<svg width="40" height="40" viewBox="0 0 40 40" fill="none" xmlns="http://www.w3.org/2000/svg">
<path opacity="0.4" d="M29.2566 12.1602C33.3416 12.1602 36.6666 15.5931 36.6666 19.8125V28.1997C36.6666 32.4088 33.35 35.8332 29.2733 35.8332H10.7466C6.65996 35.8332 3.33329 32.4019 3.33329 28.1825V19.7953C3.33329 15.5863 6.65162 12.1602 10.73 12.1602H12.2966L29.2566 12.1602Z" fill="url(#paint0_linear_6090_33)"/>
<path d="M20.9105 26.7288L25.7588 21.7823C26.2588 21.2711 26.2588 20.4484 25.7555 19.9388C25.2522 19.4309 24.4405 19.4326 23.9405 19.9422L21.2855 22.6507L21.2855 5.47C21.2855 4.75054 20.7105 4.1665 20.0005 4.1665C19.2922 4.1665 18.7188 4.75054 18.7188 5.47L18.7188 22.6507L16.0622 19.9422C15.5622 19.4326 14.7505 19.4309 14.2472 19.9388C13.9955 20.1944 13.8688 20.5279 13.8688 20.8631C13.8688 21.1949 13.9955 21.5284 14.2438 21.7823L19.0922 26.7288C19.3338 26.9743 19.6605 27.1131 20.0005 27.1131C20.3422 27.1131 20.6688 26.9743 20.9105 26.7288Z" fill="url(#paint1_linear_6090_33)"/>
<defs>
<linearGradient id="paint0_linear_6090_33" x1="36.6666" y1="23.9967" x2="3.33329" y2="23.9967" gradientUnits="userSpaceOnUse">
<stop stop-color="#6F77FF"/>
<stop offset="1" stop-color="#943E87"/>
</linearGradient>
<linearGradient id="paint1_linear_6090_33" x1="26.1334" y1="15.6398" x2="13.8688" y2="15.6398" gradientUnits="userSpaceOnUse">
<stop stop-color="#6F77FF"/>
<stop offset="1" stop-color="#943E87"/>
</linearGradient>
</defs>
</svg>
