<svg width="40" height="40" viewBox="0 0 40 40" fill="none" xmlns="http://www.w3.org/2000/svg">
<path d="M22.2619 10.7509C22.178 9.94037 22.0906 9.09938 21.8757 8.26018C21.2902 6.25255 19.6684 5.00002 17.9295 5.00002C16.9595 4.99644 15.7326 5.59407 15.0371 6.19887L9.27154 11.0283H6.25332C4.03204 11.0283 2.24593 12.7407 1.90863 15.2117C1.62202 17.5844 1.55211 22.0631 1.90863 24.6737C2.21797 27.2844 3.92369 28.9717 6.25332 28.9717H9.27154L15.1489 33.8727C15.7519 34.397 16.8162 34.9982 17.7949 34.9982C17.8578 35 17.9137 35 17.9697 35C19.7418 35 21.3024 33.7009 21.8879 31.6987C22.1099 30.8469 22.1868 30.0489 22.2619 29.2777L22.3406 28.5136C22.6412 26.0354 22.6412 13.9485 22.3406 11.4881L22.2619 10.7509Z" fill="url(#paint0_linear_6090_31)"/>
<path opacity="0.4" d="M29.0107 10.8241C28.5301 10.1156 27.5776 9.93842 26.8803 10.4305C26.19 10.9261 26.0187 11.9031 26.4993 12.6099C27.8363 14.5799 28.572 17.2031 28.572 19.9998C28.572 22.7948 27.8363 25.4197 26.4993 27.3898C26.0187 28.0966 26.19 29.0735 26.8821 29.5692C27.1407 29.7517 27.4431 29.8483 27.7541 29.8483C28.2557 29.8483 28.7241 29.596 29.0107 29.1755C30.6989 26.6884 31.6305 23.43 31.6305 19.9998C31.6305 16.5697 30.6989 13.3113 29.0107 10.8241Z" fill="url(#paint1_linear_6090_31)"/>
<path opacity="0.4" d="M34.2787 5.76193C33.8015 5.05515 32.8456 4.87443 32.15 5.36828C31.4597 5.86393 31.2884 6.8409 31.7673 7.54769C34.0287 10.8794 35.2748 15.3027 35.2748 19.9997C35.2748 24.6985 34.0287 29.1217 31.7673 32.4534C31.2884 33.162 31.4597 34.1372 32.1517 34.6328C32.4104 34.8153 32.711 34.912 33.0221 34.912C33.5237 34.912 33.9938 34.6597 34.2787 34.2392C36.8932 30.3903 38.3332 25.3337 38.3332 19.9997C38.3332 14.6692 36.8932 9.61079 34.2787 5.76193Z" fill="url(#paint2_linear_6090_31)"/>
<defs>
<linearGradient id="paint0_linear_6090_31" x1="12.1164" y1="5" x2="12.1164" y2="35" gradientUnits="userSpaceOnUse">
<stop stop-color="#6F77FF"/>
<stop offset="1" stop-color="#943E87"/>
</linearGradient>
<linearGradient id="paint1_linear_6090_31" x1="28.9285" y1="10.1519" x2="28.9285" y2="29.8483" gradientUnits="userSpaceOnUse">
<stop stop-color="#6F77FF"/>
<stop offset="1" stop-color="#943E87"/>
</linearGradient>
<linearGradient id="paint2_linear_6090_31" x1="34.9145" y1="5.08936" x2="34.9145" y2="34.912" gradientUnits="userSpaceOnUse">
<stop stop-color="#6F77FF"/>
<stop offset="1" stop-color="#943E87"/>
</linearGradient>
</defs>
</svg>
