<?xml version="1.0" standalone="no"?>
<!DOCTYPE svg PUBLIC "-//W3C//DTD SVG 1.1//EN" "http://www.w3.org/Graphics/SVG/1.1/DTD/svg11.dtd" >
<svg xmlns="http://www.w3.org/2000/svg" xmlns:xlink="http://www.w3.org/1999/xlink" version="1.1">
<metadata>
Created by FontForge 20201107 at Mon May 20 20:45:24 2024
 By 
Copyright (c) 2019 by Anosov Vladimir. All rights reserved.
</metadata>
<defs>
<font id="Double-Regular" horiz-adv-x="409" >
  <font-face 
    font-family="Double"
    font-weight="400"
    font-stretch="normal"
    units-per-em="2048"
    panose-1="0 0 0 0 0 0 0 0 0 0"
    ascent="1536"
    descent="-512"
    x-height="1249"
    cap-height="1434"
    bbox="-31 -287 768 1638"
    underline-thickness="102"
    underline-position="-204"
    unicode-range="U+000D-FB02"
  />
<missing-glyph horiz-adv-x="204" 
 />
    <glyph glyph-name="AE" unicode="AE" horiz-adv-x="614" 
d="M358 1434h205v-103h-102q-70 0 -86.5 -19.5t-16.5 -103.5v-133q21 10 103 10h102v-102h-102q-65 0 -83.5 -15.5t-19.5 -76.5v-133h103v-103h-103v-102q0 -84 16.5 -103.5t86.5 -19.5h102v-102h-102q-36 0 -62 2.5t-33 5.5l-8 2v-113q0 -84 16.5 -103.5t86.5 -19.5h102
v-102h-102q-123 0 -164 41t-41 164v123h-102v-328h-103v1229q0 49 3.5 79.5t17.5 55t32.5 37t56.5 21t81.5 10.5t115.5 2zM154 1229v-154q9 4 34.5 6.5t46.5 2.5l21 1v246q-26 0 -43 -1.5t-28.5 -7.5t-17.5 -11t-9 -20t-3.5 -25.5t-0.5 -36.5zM154 655v-225h102v225h-102z
M154 881v-123h102v225q-62 0 -82 -20.5t-20 -81.5z" />
    <glyph glyph-name="ae" unicode="ae" horiz-adv-x="614" 
d="M563 102v-102h-307q-123 0 -164 41t-41 164v266q0 123 41 164t164 41v82q0 67 -9.5 84.5t-41.5 17.5h-154v103h205v81v23q-1 52 -11.5 66t-39.5 14h-154v102h154q69 0 102 -24q33 24 103 24q87 0 120 -42t33 -163v-286q0 -106 -33.5 -145.5t-119.5 -39.5h-52v-81
q0 -67 10 -85t42 -18h153v-102h-205v-82q0 -67 10 -85t42 -18h153zM256 102v185q-82 0 -102 10v-92q0 -69 16.5 -86t85.5 -17zM410 676q32 0 41.5 14.5t9.5 67.5q0 67 -9.5 84.5t-41.5 17.5t-42 -17.5t-10 -84.5v-82h52zM256 389v184q-69 0 -85.5 -15t-16.5 -77t16.5 -77
t85.5 -15zM358 963q36 0 62 -2.5t34 -5.5l7 -3v92q0 67 -9.5 85t-41.5 18t-42 -18t-10 -85v-81z" />
    <glyph glyph-name="OE" unicode="OE" horiz-adv-x="614" 
d="M358 338v-133v-10q1 -62 19.5 -77.5t83.5 -15.5h102v-102h-102q-108 0 -150 29q-32 -29 -106 -29q-87 0 -120.5 42.5t-33.5 162.5v1024q0 120 33.5 162.5t120.5 42.5q70 0 106 -29q48 29 150 29h102v-103h-102q-70 0 -86.5 -19.5t-16.5 -103.5v-133q21 10 103 10h102
v-102h-102q-65 0 -83.5 -15.5t-19.5 -76.5v-133h103v-103h-103v-102q0 -84 16.5 -103.5t86.5 -19.5h102v-102h-102q-36 0 -62 2.5t-33 5.5zM154 881v-349q0 -67 9.5 -84.5t41.5 -17.5t41.5 17.5t9.5 84.5v349q0 67 -9.5 84.5t-41.5 17.5t-41.5 -17.5t-9.5 -84.5zM154 1229
v-144q8 7 51 7t51 -7v144q0 67 -9.5 84.5t-41.5 17.5t-41.5 -17.5t-9.5 -84.5zM256 205v123q-8 -8 -51 -8t-51 8v-123q0 -67 9.5 -85t41.5 -18t41.5 18t9.5 85z" />
    <glyph glyph-name="oe" unicode="oe" horiz-adv-x="614" 
d="M563 102v-102h-153q-68 0 -103 25q-35 -25 -102 -25q-87 0 -120.5 42.5t-33.5 162.5v839q0 120 33.5 162.5t120.5 42.5q69 0 102 -24q33 24 103 24q87 0 120 -42t33 -163v-286q0 -106 -33.5 -145.5t-119.5 -39.5h-52v-81q0 -67 10 -85t42 -18h153v-102h-153
q-14 0 -27 2.5t-19 4.5l-6 3v-92q0 -67 10 -85t42 -18h153zM154 758v-266q0 -67 9.5 -85t41.5 -18q29 0 39.5 13.5t11.5 62.5v317q-1 50 -11.5 64t-39.5 14q-32 0 -41.5 -17.5t-9.5 -84.5zM358 676h52q32 0 41.5 14.5t9.5 67.5q0 67 -9.5 84.5t-41.5 17.5t-42 -17.5
t-10 -84.5v-82zM256 205v82q-8 -7 -51 -7t-51 7v-82q0 -67 9.5 -85t41.5 -18q29 0 39.5 14t11.5 64v25zM358 1044v-81q8 7 52 7t51 -7v81q0 67 -9.5 85t-41.5 18q-30 0 -40.5 -14t-11.5 -66v-23zM154 1044v-81q8 7 51 7t51 -7v81v23q-1 52 -11.5 66t-39.5 14
q-32 0 -41.5 -18t-9.5 -85z" />
    <glyph glyph-name="f_i" unicode="fi" horiz-adv-x="501" 
d="M338 0v1044h-113q-32 0 -42.5 -18t-10.5 -84l2 -266h62v-103h-62v-184h62v-102h-62v-287h-102v287h-41v102h41v184h-41v103h41v553q0 121 33 163t120 42h41v-103h-41q-32 0 -41.5 -17.5t-9.5 -84.5v-92q20 10 51 10h113v102h102v-1249h-102zM389 1311q-29 0 -45.5 19
t-16.5 42.5t16.5 42.5t45.5 19t45.5 -19t16.5 -42.5t-16.5 -42.5t-45.5 -19z" />
    <glyph glyph-name="f_l" unicode="fl" horiz-adv-x="696" 
d="M645 102v-102h-153q-87 0 -120.5 42.5t-33.5 162.5v839h-113q-32 0 -42.5 -18t-10.5 -84l2 -266h62v-103h-62v-184h62v-102h-62v-287h-102v287h-41v102h41v184h-41v103h41v553q0 121 33 163t120 42h215v-942q0 -67 10 -85t42 -18h153v-102h-153q-14 0 -27 3t-19 5.5
t-6 1.5v-92q0 -67 10 -85t42 -18h153zM174 1137q0 -1 6 1.5t18.5 5.5t26.5 3h113v184h-113q-32 0 -41.5 -17.5t-9.5 -84.5v-92z" />
    <glyph glyph-name=".notdef" horiz-adv-x="204" 
 />
    <glyph glyph-name=".null" horiz-adv-x="0" 
 />
    <glyph glyph-name="nonmarkingreturn" horiz-adv-x="682" 
 />
    <glyph glyph-name="NULL" horiz-adv-x="0" 
 />
    <glyph glyph-name="NULL" horiz-adv-x="0" 
 />
    <glyph glyph-name="CR" unicode="&#xd;" horiz-adv-x="204" 
 />
    <glyph glyph-name="space" unicode=" " horiz-adv-x="204" 
 />
    <glyph glyph-name="exclam" unicode="!" horiz-adv-x="204" 
d="M51 1434h103v-1229h-103v1229zM51 0v102h103v-102h-103z" />
    <glyph glyph-name="quotedbl" unicode="&#x22;" horiz-adv-x="337" 
d="M51 1126v308h92v-308h-92zM195 1126v308h92v-308h-92z" />
    <glyph glyph-name="numbersign" unicode="#" horiz-adv-x="512" 
d="M307 0v328h-102v-328h-103v328h-51v102h51v225h-51v103h51v225h-51v102h51v246h103v-246h102v246h103v-246h51v-102h-51v-225h51v-103h-51v-225h51v-102h-51v-328h-103zM205 655v-225h102v225h-102zM205 983v-225h102v225h-102z" />
    <glyph glyph-name="dollar" unicode="$" 
d="M154 1423v113h102v-102h102v-103h-102q-69 0 -85.5 -19.5t-16.5 -103.5v-133q20 10 102 10h102v-102h-102q-69 0 -85.5 -15t-16.5 -77q0 -39 21 -70.5t51 -55.5t60 -51t51 -70.5t21 -100.5v-338q0 -95 -21.5 -138.5t-80.5 -58.5v-110h-102v102h-103v102h103
q69 0 85.5 19.5t16.5 103.5v113q-20 -10 -102 -10h-103v102h103q69 0 85.5 18.5t16.5 94.5q0 33 -21 62.5t-51 55t-60.5 54t-51.5 74t-21 102.5v338q0 94 22 137.5t81 56.5z" />
    <glyph glyph-name="percent" unicode="%" horiz-adv-x="614" 
d="M256 655q-69 0 -85.5 -16.5t-16.5 -85.5v-553h-103v553q0 123 41 164t164 41h102q69 0 86 16.5t17 85.5v574h102v-574q0 -123 -41 -164t-164 -41h-102zM358 1065v164q0 121 -33 163t-120 42t-120.5 -42.5t-33.5 -162.5v-164q0 -120 33.5 -162.5t120.5 -42.5t120 42
t33 163zM563 205v143q0 121 -33 163t-120 42t-120.5 -42.5t-33.5 -162.5v-143q0 -120 33.5 -162.5t120.5 -42.5t120 42t33 163zM154 1065v164q0 67 9.5 84.5t41.5 17.5t41.5 -17.5t9.5 -84.5v-164q0 -67 -9.5 -84.5t-41.5 -17.5t-41.5 17.5t-9.5 84.5zM358 205v143
q0 67 10 85t42 18t41.5 -18t9.5 -85v-143q0 -67 -9.5 -85t-41.5 -18t-42 18t-10 85z" />
    <glyph glyph-name="ampersand" unicode="&#x26;" horiz-adv-x="512" 
d="M154 338v-133q0 -67 9.5 -85t41.5 -18t41.5 18t9.5 85v123q-36 0 -61.5 2.5t-32.5 5.5zM256 655h-51q-32 0 -41.5 -17.5t-9.5 -84.5v-21q0 -69 16.5 -85.5t85.5 -16.5v225zM154 1229v-369q0 -69 16.5 -85.5t85.5 -16.5v102h102v-102h103v-103h-103v-225h103v-102h-103
v-123q0 -121 -33 -163t-120 -42t-120.5 42.5t-33.5 162.5v348q0 123 51 154q-51 31 -51 194v328q0 120 33.5 162.5t120.5 42.5h143v-103h-143q-31 0 -41 -18t-10 -84z" />
    <glyph glyph-name="quotesingle" unicode="'" horiz-adv-x="194" 
d="M51 1126v308h92v-308h-92z" />
    <glyph glyph-name="parenleft" unicode="(" horiz-adv-x="307" 
d="M154 1106v-881q0 -84 16.5 -103.5t85.5 -19.5v-102q-123 0 -164 41t-41 164v921q0 123 41 164t164 41v-102q-69 0 -85.5 -19.5t-16.5 -103.5z" />
    <glyph glyph-name="parenright" unicode=")" horiz-adv-x="307" 
d="M154 225v881q0 84 -16.5 103.5t-86.5 19.5v102q123 0 164 -41t41 -164v-921q0 -123 -41 -164t-164 -41v102q70 0 86.5 19.5t16.5 103.5z" />
    <glyph glyph-name="asterisk" unicode="*" horiz-adv-x="450" 
d="M399 1434v-2q0 -121 -51 -152q51 -31 51 -154h-82q0 67 -9.5 85t-41.5 18v-144h-82v144q-32 0 -41.5 -18t-9.5 -85h-82q0 123 51 154q-51 31 -51 154h82q0 -67 9.5 -85t41.5 -18v144h82v-144q32 0 41.5 18t9.5 85h82z" />
    <glyph glyph-name="plus" unicode="+" 
d="M51 645v82h113v113h82v-113h112v-82h-112v-113h-82v113h-113z" />
    <glyph glyph-name="comma" unicode="," horiz-adv-x="153" 
d="M41 51v51h82v-51q0 -98 -22.5 -125.5t-100.5 -27.5v61q24 0 32.5 16.5t8.5 75.5z" />
    <glyph glyph-name="hyphen" unicode="-" horiz-adv-x="307" 
d="M51 328v102h205v-102h-205zM51 819v103h205v-103h-205z" />
    <glyph glyph-name="period" unicode="." horiz-adv-x="204" 
d="M51 0v102h103v-102h-103z" />
    <glyph glyph-name="slash" unicode="/" horiz-adv-x="307" 
d="M51 0l103 1434h102l-102 -1434h-103z" />
    <glyph glyph-name="zero" unicode="0" 
d="M154 1229v-144q8 7 51 7t51 -7v144q0 67 -9.5 84.5t-41.5 17.5t-41.5 -17.5t-9.5 -84.5zM154 881v-349q0 -67 9.5 -84.5t41.5 -17.5t41.5 17.5t9.5 84.5v349q0 67 -9.5 84.5t-41.5 17.5t-41.5 -17.5t-9.5 -84.5zM256 205v123q-8 -8 -51 -8t-51 8v-123q0 -67 9.5 -85
t41.5 -18t41.5 18t9.5 85zM358 1229v-1024q0 -121 -33 -163t-120 -42t-120.5 42.5t-33.5 162.5v1024q0 120 33.5 162.5t120.5 42.5t120 -42t33 -163z" />
    <glyph glyph-name="one" unicode="1" horiz-adv-x="307" 
d="M51 1434h205v-1434h-102v983h-103v102h103v246h-103v103z" />
    <glyph glyph-name="two" unicode="2" 
d="M51 0v532q0 57 21 100.5t51 70.5t60.5 51.5t51.5 56t21 70.5q0 67 -9.5 84.5t-41.5 17.5h-154v102h154q14 0 26.5 -2.5t18.5 -4.5l6 -3v154q0 67 -9.5 84.5t-41.5 17.5h-154v103h154q87 0 120 -42t33 -163v-348q0 -57 -21 -102.5t-51 -74.5t-60 -54t-51 -55t-21 -63v-102
h204v-102h-204v-226h204v-102h-307z" />
    <glyph glyph-name="three" unicode="3" 
d="M358 553v-348q0 -121 -33 -163t-120 -42h-154v102h154q32 0 41.5 18t9.5 85v133q-20 -10 -51 -10h-154v102h154q29 0 40 18.5t11 83.5v21q0 69 -16.5 85.5t-85.5 16.5v103q69 0 85.5 16.5t16.5 85.5v123h-205v102h205v246h-205v103h307v-574q0 -122 -51 -153
q51 -31 51 -154z" />
    <glyph glyph-name="four" unicode="4" 
d="M358 0h-102v328h-205v1106h103v-676h102v676h102v-1434zM154 430h102v225h-102v-225z" />
    <glyph glyph-name="five" unicode="5" 
d="M256 205v133q-20 -10 -51 -10h-154v102h154q32 0 41.5 17.5t9.5 84.5v349q0 69 -16.5 85.5t-85.5 16.5h-103v451h307v-103h-204v-246q121 0 162.5 -41t41.5 -163v-676q0 -121 -33 -163t-120 -42h-154v102h154q32 0 41.5 18t9.5 85z" />
    <glyph glyph-name="six" unicode="6" 
d="M154 881v-123q8 8 51 8t51 -8v123q0 67 -9.5 84.5t-41.5 17.5t-41.5 -17.5t-9.5 -84.5zM256 532v21q0 67 -9.5 84.5t-41.5 17.5t-41.5 -17.5t-9.5 -84.5v-21q0 -67 9.5 -84.5t41.5 -17.5t41.5 17.5t9.5 84.5zM154 328v-123q0 -67 9.5 -85t41.5 -18t41.5 18t9.5 85v123
q-8 -8 -51 -8t-51 8zM51 205v1024q0 120 33.5 162.5t120.5 42.5h153v-103h-153q-32 0 -41.5 -17.5t-9.5 -84.5v-154q20 10 51 10q87 0 120 -42t33 -162v-676q0 -121 -33 -163t-120 -42t-120.5 42.5t-33.5 162.5z" />
    <glyph glyph-name="seven" unicode="7" 
d="M51 1085h205v246h-205v103h307v-553q0 -57 -21 -102.5t-51 -74.5t-60 -54t-51 -55t-21 -63v-532h-103v532q0 57 21 100.5t51 70.5t60.5 51.5t51.5 56t21 70.5v102h-205v102z" />
    <glyph glyph-name="eight" unicode="8" 
d="M205 655q-32 0 -41.5 -17.5t-9.5 -84.5v-21q0 -67 9.5 -84.5t41.5 -17.5t41.5 17.5t9.5 84.5v21q0 67 -9.5 84.5t-41.5 17.5zM51 205v348q0 123 51 154q-51 31 -51 194v328q0 120 33.5 162.5t120.5 42.5t120 -42t33 -163v-369q0 -122 -51 -153q51 -31 51 -154v-348
q0 -121 -33 -163t-120 -42t-120.5 42.5t-33.5 162.5zM154 328v-123q0 -67 9.5 -85t41.5 -18t41.5 18t9.5 85v123q-8 -8 -51 -8t-51 8zM256 1085v144q0 67 -9.5 84.5t-41.5 17.5t-41.5 -17.5t-9.5 -84.5v-144q8 7 51 7t51 -7zM205 983q-32 0 -41.5 -17.5t-9.5 -84.5v-21
q0 -67 9.5 -84.5t41.5 -17.5t41.5 17.5t9.5 84.5v21q0 67 -9.5 84.5t-41.5 17.5z" />
    <glyph glyph-name="nine" unicode="9" 
d="M256 532v123q-8 -7 -51 -7t-51 7v-123q0 -67 9.5 -84.5t41.5 -17.5t41.5 17.5t9.5 84.5zM154 881v-21q0 -67 9.5 -84.5t41.5 -17.5t41.5 17.5t9.5 84.5v21q0 67 -9.5 84.5t-41.5 17.5t-41.5 -17.5t-9.5 -84.5zM256 1085v144q0 67 -9.5 84.5t-41.5 17.5t-41.5 -17.5
t-9.5 -84.5v-144q8 7 51 7t51 -7zM358 1229v-1024q0 -121 -33 -163t-120 -42h-154v102h154q32 0 41.5 18t9.5 85v133q-20 -10 -51 -10q-87 0 -120.5 42t-33.5 162v697q0 120 33.5 162.5t120.5 42.5t120 -42t33 -163z" />
    <glyph glyph-name="colon" unicode=":" horiz-adv-x="204" 
d="M51 287v102h103v-102h-103zM51 573v103h103v-103h-103zM51 860v103h103v-103h-103z" />
    <glyph glyph-name="semicolon" unicode=";" horiz-adv-x="215" 
d="M61 573v103h103v-103h-103zM61 860v103h103v-103h-103zM72 389v-51q0 -59 -8 -75.5t-33 -16.5v-62q77 0 100 27.5t23 126.5v51h-82z" />
    <glyph glyph-name="equal" unicode="=" 
d="M51 369v102h307v-102h-307zM51 573v103h307v-103h-307z" />
    <glyph glyph-name="question" unicode="?" 
d="M154 0v102h102v-102h-102zM154 205v327q0 69 16 126t35 87.5t35 66.5t16 69q0 61 -10 81.5t-41 20.5h-154v102h154q14 0 26.5 -2.5t18.5 -4.5l6 -3v154q0 61 -10 81.5t-41 20.5h-154v103h154q87 0 120 -42t33 -163v-328q0 -54 -16 -101t-35 -76t-35 -79.5t-16 -112.5
v-327h-102z" />
    <glyph glyph-name="at" unicode="@" horiz-adv-x="819" 
d="M768 1044v-839q0 -123 -41 -164t-164 -41h-102q-123 0 -164 41t-41 164v266q0 123 41 164t164 41v82q0 67 -9.5 84.5t-41.5 17.5h-154v103h154q87 0 120 -42t33 -163v-369q69 0 86 17t17 86v552q0 69 -17 86t-86 17h-307q-69 0 -85.5 -17t-16.5 -86v-839h-103v839
q0 123 41 164t164 41h307q123 0 164 -41t41 -164zM563 102q64 0 83.5 18t19.5 85v92q-21 -10 -103 -10v-185zM358 481q0 -60 19.5 -76t83.5 -16v184q-69 0 -86 -15t-17 -77zM358 205q0 -69 17 -86t86 -17v185q-36 0 -62 2.5t-33 4.5l-8 3v-92z" />
    <glyph glyph-name="A" unicode="A" 
d="M154 1229v-154q9 4 34.5 6.5t46.5 2.5l21 1v246q-26 0 -43 -1.5t-28.5 -7.5t-17.5 -11t-9 -20t-3.5 -25.5t-0.5 -36.5zM358 1434v-1434h-102v328h-102v-328h-103v1229q0 49 3.5 79.5t17.5 55t32.5 37t56.5 21t81.5 10.5t115.5 2zM154 655v-225h102v225h-102zM154 881
v-123h102v225q-62 0 -82 -20.5t-20 -81.5z" />
    <glyph glyph-name="B" unicode="B" 
d="M154 328v-226q69 0 85.5 17t16.5 86v20q0 69 -16.5 86t-85.5 17zM256 553q0 69 -16.5 85.5t-85.5 16.5v-225q69 0 85.5 16.5t16.5 85.5v21zM256 881q0 69 -16.5 85.5t-85.5 16.5v-225q69 0 85.5 16.5t16.5 85.5v21zM154 1331v-246q69 0 85.5 17t16.5 86v41
q0 69 -16.5 85.5t-85.5 16.5zM358 1229v-41q0 -123 -51 -154q51 -31 51 -153v-21q0 -122 -51 -153q51 -31 51 -154v-21q0 -122 -51 -153q51 -31 51 -154v-20q0 -123 -40.5 -164t-163.5 -41h-103v1434h103q122 0 163 -42.5t41 -162.5z" />
    <glyph glyph-name="C" unicode="C" 
d="M154 860v-307q0 -84 16.5 -103.5t85.5 -19.5h102v-102h-102q-36 0 -61.5 2.5t-32.5 5.5l-8 2v-113q0 -84 16.5 -103.5t85.5 -19.5h102v-102h-102q-123 0 -164 41t-41 164v1024q0 123 41 164t164 41h102v-103h-102q-69 0 -85.5 -19.5t-16.5 -103.5v-133q20 10 102 10h102
v-102h-102q-69 0 -85.5 -19.5t-16.5 -103.5z" />
    <glyph glyph-name="D" unicode="D" 
d="M256 1065v164q0 69 -16.5 85.5t-85.5 16.5v-246q36 0 61.5 -5t32.5 -10zM358 1229v-1024q0 -123 -40.5 -164t-163.5 -41h-103v1434h103q122 0 163 -41t41 -164zM256 553v307q0 73 -18 98t-84 25v-553q69 0 85.5 19.5t16.5 103.5zM154 328v-226q69 0 85.5 19.5t16.5 103.5
v123q-9 -9 -34.5 -14t-46.5 -6h-21z" />
    <glyph glyph-name="E" unicode="E" 
d="M154 860v-102h102v-103h-102v-102q0 -84 16.5 -103.5t85.5 -19.5h102v-102h-102q-36 0 -61.5 2.5t-32.5 5.5l-8 2v-113q0 -84 16.5 -103.5t85.5 -19.5h102v-102h-102q-123 0 -164 41t-41 164v1024q0 123 41 164t164 41h102v-103h-102q-69 0 -85.5 -19.5t-16.5 -103.5
v-133q20 10 102 10h102v-102h-102q-69 0 -85.5 -19.5t-16.5 -103.5z" />
    <glyph glyph-name="F" unicode="F" 
d="M51 0v1434h307v-103h-204v-246h204v-102h-204v-225h102v-103h-102v-655h-103z" />
    <glyph glyph-name="G" unicode="G" 
d="M256 430v102h102v-532h-102q-123 0 -164 41t-41 164v1024q0 123 41 164t164 41h102v-103h-102q-69 0 -85.5 -19.5t-16.5 -103.5v-133q20 10 102 10h102v-102h-102q-69 0 -85.5 -19.5t-16.5 -103.5v-307q0 -84 16.5 -103.5t85.5 -19.5zM154 338v-113q0 -84 16.5 -103.5
t85.5 -19.5v226q-36 0 -61.5 2.5t-32.5 5.5z" />
    <glyph glyph-name="H" unicode="H" 
d="M51 1434h103v-349h102v349h102v-1434h-102v328h-102v-328h-103v1434zM256 430v553h-102v-553h102z" />
    <glyph glyph-name="I" unicode="I" horiz-adv-x="204" 
d="M51 1434h103v-1434h-103v1434z" />
    <glyph glyph-name="J" unicode="J" 
d="M256 553v430h-154v102h154v246h-154v103h256v-1229q0 -123 -40.5 -164t-163.5 -41h-103v102h103q69 0 85.5 19.5t16.5 103.5v113q-20 -10 -102 -10h-103v102h103q69 0 85.5 19.5t16.5 103.5z" />
    <glyph glyph-name="K" unicode="K" 
d="M307 1034q51 -31 51 -153v-349q0 -122 -51 -153q51 -31 51 -154v-225h-102v225q0 69 -16.5 86t-85.5 17v-328h-103v1434h103v-349q69 0 85.5 17t16.5 86v246h102v-246q0 -123 -51 -154zM256 532v349q0 69 -16.5 85.5t-85.5 16.5v-553q69 0 85.5 16.5t16.5 85.5z" />
    <glyph glyph-name="L" unicode="L" 
d="M154 328v-226h204v-102h-307v1434h103v-1004h204v-102h-204z" />
    <glyph glyph-name="M" unicode="M" horiz-adv-x="614" 
d="M461 0v881q0 67 -9.5 84.5t-41.5 17.5q-29 0 -40 -14t-12 -64v-803h-102v779q0 67 -9.5 84.5t-41.5 17.5t-41.5 -17.5t-9.5 -84.5v-881h-103v1229q0 120 33.5 162.5t120.5 42.5q67 0 102 -25q35 25 103 25q87 0 120 -42t33 -163v-1229h-102zM358 1229v-144q8 7 52 7
t51 -7v144q0 67 -9.5 84.5t-41.5 17.5q-30 0 -40.5 -14t-11.5 -66v-22zM154 1229v-144q8 7 51 7t51 -7v144q0 67 -9.5 84.5t-41.5 17.5t-41.5 -17.5t-9.5 -84.5z" />
    <glyph glyph-name="N" unicode="N" 
d="M51 0v1434h103q118 0 161 -47.5t43 -157.5v-1229h-102v881q0 69 -16.5 85.5t-85.5 16.5v-983h-103zM256 1075v154q0 69 -16.5 85.5t-85.5 16.5v-246q82 0 102 -10z" />
    <glyph glyph-name="O" unicode="O" 
d="M154 1229v-144q8 7 51 7t51 -7v144q0 67 -9.5 84.5t-41.5 17.5t-41.5 -17.5t-9.5 -84.5zM154 881v-349q0 -67 9.5 -84.5t41.5 -17.5t41.5 17.5t9.5 84.5v349q0 67 -9.5 84.5t-41.5 17.5t-41.5 -17.5t-9.5 -84.5zM256 205v123q-8 -8 -51 -8t-51 8v-123q0 -67 9.5 -85
t41.5 -18t41.5 18t9.5 85zM358 1229v-1024q0 -121 -33 -163t-120 -42t-120.5 42.5t-33.5 162.5v1024q0 120 33.5 162.5t120.5 42.5t120 -42t33 -163z" />
    <glyph glyph-name="P" unicode="P" 
d="M154 983v-225q69 0 85.5 16.5t16.5 85.5v21q0 69 -16.5 85.5t-85.5 16.5zM154 1331v-246q36 0 61.5 -2.5t32.5 -4.5l8 -3v154q0 69 -16.5 85.5t-85.5 16.5zM154 430q69 0 85.5 16.5t16.5 85.5v134q-20 -11 -102 -11v-225zM358 1229v-697q0 -123 -40.5 -163.5
t-163.5 -40.5v-328h-103v1434h103q123 0 163.5 -41t40.5 -164z" />
    <glyph glyph-name="Q" unicode="Q" 
d="M154 1229v-144q8 7 51 7t51 -7v144q0 67 -9.5 84.5t-41.5 17.5t-41.5 -17.5t-9.5 -84.5zM154 881v-349q0 -67 9.5 -84.5t41.5 -17.5t41.5 17.5t9.5 84.5v349q0 67 -9.5 84.5t-41.5 17.5t-41.5 -17.5t-9.5 -84.5zM358 1229v-1024q0 -102 -23 -147t-79 -54v-106h-102v106
q-56 9 -79.5 54t-23.5 147v1024q0 120 33.5 162.5t120.5 42.5t120 -42t33 -163zM256 205v123q-8 -8 -51 -8t-51 8v-123q0 -67 9.5 -85t41.5 -18t41.5 18t9.5 85z" />
    <glyph glyph-name="R" unicode="R" 
d="M51 0v1434h103q123 0 163.5 -41t40.5 -164v-41q0 -123 -51 -154q51 -31 51 -153v-21q0 -122 -51 -153q51 -31 51 -154v-21q0 -122 -51 -153q51 -31 51 -154v-225h-102v225q0 69 -16.5 86t-85.5 17v-328h-103zM154 655v-225q69 0 85.5 16.5t16.5 85.5v21q0 69 -16.5 85.5
t-85.5 16.5zM154 983v-225q69 0 85.5 16.5t16.5 85.5v21q0 69 -16.5 85.5t-85.5 16.5zM256 1188v41q0 69 -16.5 85.5t-85.5 16.5v-246q69 0 85.5 17t16.5 86z" />
    <glyph glyph-name="S" unicode="S" 
d="M256 543q0 33 -21 62.5t-51 55t-60.5 54t-51.5 74t-21 102.5v338q0 123 41 164t164 41h102v-103h-102q-69 0 -85.5 -19.5t-16.5 -103.5v-133q20 10 102 10h102v-102h-102q-69 0 -85.5 -15t-16.5 -77q0 -39 21 -70.5t51 -55.5t60 -51t51 -70.5t21 -100.5v-338
q0 -123 -40.5 -164t-163.5 -41h-103v102h103q69 0 85.5 19.5t16.5 103.5v113q-20 -10 -102 -10h-103v102h103q69 0 85.5 18.5t16.5 94.5z" />
    <glyph glyph-name="T" unicode="T" 
d="M358 1331h-102v-246h102v-102h-102v-983h-102v983h-103v102h103v246h-103v103h307v-103z" />
    <glyph glyph-name="U" unicode="U" 
d="M256 532v902h102v-1229q0 -121 -33 -163t-120 -42t-120.5 42.5t-33.5 162.5v1229h103v-902q0 -67 9.5 -84.5t41.5 -17.5t41.5 17.5t9.5 84.5zM154 328v-123q0 -67 9.5 -85t41.5 -18t41.5 18t9.5 85v123q-8 -8 -51 -8t-51 8z" />
    <glyph glyph-name="V" unicode="V" 
d="M51 0v1434h103v-1004q69 0 85.5 16.5t16.5 85.5v902h102v-1229q0 -110 -43 -157.5t-161 -47.5h-103zM256 205v133q-9 -4 -34.5 -6.5t-46.5 -3.5h-21v-226q69 0 85.5 17t16.5 86z" />
    <glyph glyph-name="W" unicode="W" horiz-adv-x="614" 
d="M358 0h-102q-123 0 -164 41t-41 164v1229h103v-902q0 -69 16.5 -85.5t85.5 -16.5v1004h102v-1004q69 0 86 16.5t17 85.5v902h102v-1229q0 -123 -41 -164t-164 -41zM461 205v133q-21 -10 -103 -10v-226q69 0 86 17t17 86zM154 338v-133q0 -69 16.5 -86t85.5 -17v226
q-36 0 -61.5 2.5t-32.5 5.5z" />
    <glyph glyph-name="X" unicode="X" 
d="M256 225q0 67 -9.5 85t-41.5 18t-41.5 -18t-9.5 -85v-225h-103v225q0 123 51 154q-51 31 -51 153v349q0 122 51 153q-51 31 -51 154v246h103v-246q0 -67 9.5 -85t41.5 -18t41.5 18t9.5 85v246h102v-246q0 -123 -51 -154q51 -31 51 -153v-349q0 -122 -51 -153
q51 -31 51 -154v-225h-102v225zM256 881q0 67 -9.5 84.5t-41.5 17.5t-41.5 -17.5t-9.5 -84.5v-349q0 -67 9.5 -84.5t41.5 -17.5t41.5 17.5t9.5 84.5v349z" />
    <glyph glyph-name="Y" unicode="Y" 
d="M256 1434h102v-902q0 -48 -5 -82.5t-12.5 -54.5t-22.5 -34t-27.5 -20t-34.5 -13v-328h-102v328q-28 9 -43 18t-31 29.5t-22.5 59t-6.5 97.5v902h103v-574q0 -67 9.5 -84.5t41.5 -17.5t41.5 17.5t9.5 84.5v574zM205 430q32 0 41.5 17.5t9.5 84.5v123q-8 -7 -51 -7t-51 7
v-123q0 -67 9.5 -84.5t41.5 -17.5z" />
    <glyph glyph-name="Z" unicode="Z" 
d="M51 1085h205v246h-205v103h307v-553q0 -57 -21 -102.5t-51 -74.5t-60 -54t-51 -55t-21 -63v-102h204v-102h-204v-226h204v-102h-307v532q0 57 21 100.5t51 70.5t60.5 51.5t51.5 56t21 70.5v102h-205v102z" />
    <glyph glyph-name="bracketleft" unicode="[" horiz-adv-x="307" 
d="M154 1229v-1127h102v-102h-205v1331h205v-102h-102z" />
    <glyph glyph-name="backslash" unicode="\" horiz-adv-x="307" 
d="M154 1434l102 -1434h-102l-103 1434h103z" />
    <glyph glyph-name="bracketright" unicode="]" horiz-adv-x="307" 
d="M154 102v1127h-103v102h205v-1331h-205v102h103z" />
    <glyph glyph-name="asciicircum" unicode="^" horiz-adv-x="450" 
d="M276 1454l72 -143l-59 -21l-64 109l-63 -109l-60 21l72 143h102z" />
    <glyph glyph-name="underscore" unicode="_" horiz-adv-x="460" 
d="M410 92v-92h-359v92h359z" />
    <glyph glyph-name="grave" unicode="`" horiz-adv-x="245" 
d="M135 1290l-84 144h103l41 -123z" />
    <glyph glyph-name="a" unicode="a" 
d="M51 205v266q0 123 41 164t164 41v82q0 67 -9.5 84.5t-41.5 17.5h-154v103h154q14 0 26.5 -2.5t18.5 -5.5l6 -3v92q0 67 -9.5 85t-41.5 18h-154v102h154q87 0 120 -42t33 -163v-1044h-102q-123 0 -164 41t-41 164zM256 389v184q-69 0 -85.5 -15t-16.5 -77t16.5 -77
t85.5 -15zM256 102v185q-82 0 -102 10v-92q0 -69 16.5 -86t85.5 -17z" />
    <glyph glyph-name="b" unicode="b" 
d="M51 1434h103v-185q123 0 163.5 -41t40.5 -164v-839q0 -123 -40.5 -164t-163.5 -41h-103v1434zM256 758q0 69 -16.5 85.5t-85.5 16.5v-471q69 0 85.5 17t16.5 86v266zM154 102q69 0 85.5 17t16.5 86v92q-9 -4 -34.5 -6.5t-46.5 -2.5l-21 -1v-185zM154 963q82 -1 102 -13
v94q0 69 -16.5 86t-85.5 17v-184z" />
    <glyph glyph-name="c" unicode="c" 
d="M154 758v-266q0 -68 17 -85.5t85 -17.5h102v-102h-102q-36 0 -61.5 2.5t-32.5 4.5l-8 3v-92q0 -69 16.5 -86t85.5 -17h102v-102h-102q-123 0 -164 41t-41 164v839q0 123 41 164t164 41h102v-102h-102q-69 0 -85.5 -17t-16.5 -86v-92q20 11 102 11h102v-103h-102
q-69 0 -85.5 -16.5t-16.5 -85.5z" />
    <glyph glyph-name="d" unicode="d" 
d="M256 1434h102v-1434h-102q-123 0 -164 41t-41 164v839q0 123 41 164t164 41v185zM154 758v-266q0 -69 16.5 -86t85.5 -17v471q-69 0 -85.5 -16.5t-16.5 -85.5zM256 102v185q-82 0 -102 10v-92q0 -69 16.5 -86t85.5 -17zM256 963v184q-69 0 -85.5 -17t-16.5 -86v-94
q9 5 34.5 8.5t46.5 3.5z" />
    <glyph glyph-name="e" unicode="e" 
d="M358 102v-102h-153q-87 0 -120.5 42.5t-33.5 162.5v839q0 120 33.5 162.5t120.5 42.5t120 -42t33 -163v-286q0 -106 -33.5 -145.5t-119.5 -39.5h-51v-81q0 -67 9.5 -85t41.5 -18h153v-102h-153q-14 0 -26.5 2.5t-18.5 4.5l-6 3v-92q0 -67 9.5 -85t41.5 -18h153zM205 676
q32 0 41.5 14.5t9.5 67.5q0 67 -9.5 84.5t-41.5 17.5t-41.5 -17.5t-9.5 -84.5v-82h51zM154 963q8 7 51 7t51 -7v81q0 67 -9.5 85t-41.5 18t-41.5 -18t-9.5 -85v-81z" />
    <glyph glyph-name="f" unicode="f" horiz-adv-x="430" 
d="M31 573v103h41v184h-41v103h41v266q0 121 33 163t120 42h154v-103h-154q-32 0 -41.5 -17.5t-9.5 -84.5v-266h102v-103h-102v-184h102v-103h-102v-573h-102v573h-41z" />
    <glyph glyph-name="g" unicode="g" 
d="M358 1249v-1351q0 -106 -33.5 -145.5t-119.5 -39.5h-154v103h154q32 0 41.5 14.5t9.5 67.5v102q-123 0 -164 41t-41 164v839q0 123 41 164t164 41h102zM154 492q0 -69 16.5 -86t85.5 -17v471q-69 0 -85.5 -16.5t-16.5 -85.5v-266zM256 963v184q-69 0 -85.5 -17t-16.5 -86
v-92q9 4 34.5 7t46.5 3zM256 287q-82 0 -102 12v-94q0 -69 16.5 -86t85.5 -17v185z" />
    <glyph glyph-name="h" unicode="h" 
d="M51 0v1434h103v-185q123 0 163.5 -41t40.5 -164v-1044h-102v758q0 69 -16.5 85.5t-85.5 16.5v-860h-103zM256 952v92q0 69 -16.5 86t-85.5 17v-184q82 -1 102 -11z" />
    <glyph glyph-name="i" unicode="i" horiz-adv-x="225" 
d="M113 1290q-29 0 -45.5 19t-16.5 42.5t16.5 42.5t45.5 19t45.5 -19t16.5 -42.5t-16.5 -42.5t-45.5 -19zM61 0v1249h103v-1249h-103z" />
    <glyph glyph-name="j" unicode="j" horiz-adv-x="419" 
d="M307 1290q-29 0 -45.5 19t-16.5 42.5t16.5 42.5t45.5 19t45.5 -19t16.5 -42.5t-16.5 -42.5t-45.5 -19zM51 -287v103h154q32 0 41.5 17.5t9.5 84.5v92q0 1 -6 -1.5t-18.5 -5.5t-26.5 -3h-154v102h154q32 0 41.5 18t9.5 85v655h-102v103h102v184h-102v102h204v-1331
q0 -121 -33 -163t-120 -42h-154z" />
    <glyph glyph-name="k" unicode="k" 
d="M256 1249h102v-184q0 -123 -51 -154q51 -31 51 -153v-266q0 -123 -51 -154q51 -31 51 -154v-184h-102v184q0 69 -16.5 86t-85.5 17v-287h-103v1434h103v-471q69 0 85.5 16.5t16.5 85.5v184zM256 492v266q0 69 -16.5 85.5t-85.5 16.5v-471q69 0 85.5 17t16.5 86z" />
    <glyph glyph-name="l" unicode="l" 
d="M358 102v-102h-153q-87 0 -120.5 42.5t-33.5 162.5v1229h103v-942q0 -67 9.5 -85t41.5 -18h153v-102h-153q-14 0 -26.5 3t-18.5 5.5t-6 1.5v-92q0 -67 9.5 -85t41.5 -18h153z" />
    <glyph glyph-name="m" unicode="m" horiz-adv-x="614" 
d="M461 0v758q0 67 -9.5 84.5t-41.5 17.5q-29 0 -40 -14t-12 -64v-680h-102v656q0 67 -9.5 84.5t-41.5 17.5t-41.5 -17.5t-9.5 -84.5v-758h-103v1044q0 120 33.5 162.5t120.5 42.5q69 0 102 -24q33 24 103 24q87 0 120 -42t33 -163v-1044h-102zM358 1044v-81q8 7 52 7t51 -7
v81q0 67 -9.5 85t-41.5 18q-30 0 -40.5 -14t-11.5 -66v-23zM154 1044v-81q8 7 51 7t51 -7v81q0 67 -9.5 85t-41.5 18t-41.5 -18t-9.5 -85z" />
    <glyph glyph-name="n" unicode="n" 
d="M51 0v1249h103q118 0 161 -47.5t43 -157.5v-1044h-102v758q0 69 -16.5 85.5t-85.5 16.5v-860h-103zM256 952v92q0 69 -16.5 86t-85.5 17v-184q82 -1 102 -11z" />
    <glyph glyph-name="o" unicode="o" 
d="M154 1044v-81q8 7 51 7t51 -7v81q0 67 -9.5 85t-41.5 18t-41.5 -18t-9.5 -85zM154 758v-266q0 -67 9.5 -85t41.5 -18t41.5 18t9.5 85v266q0 67 -9.5 84.5t-41.5 17.5t-41.5 -17.5t-9.5 -84.5zM256 205v82q-8 -7 -51 -7t-51 7v-82q0 -67 9.5 -85t41.5 -18t41.5 18t9.5 85z
M358 1044v-839q0 -121 -33 -163t-120 -42t-120.5 42.5t-33.5 162.5v839q0 120 33.5 162.5t120.5 42.5t120 -42t33 -163z" />
    <glyph glyph-name="p" unicode="p" 
d="M154 860v-471q69 0 85.5 17t16.5 86v266q0 69 -16.5 85.5t-85.5 16.5zM154 1147v-184q82 -1 102 -11v92q0 69 -16.5 86t-85.5 17zM154 102q69 0 85.5 17t16.5 86v92q-9 -4 -34.5 -6.5t-46.5 -2.5l-21 -1v-185zM358 1044v-839q0 -123 -40.5 -164t-163.5 -41v-287h-103
v1536h103q123 0 163.5 -41t40.5 -164z" />
    <glyph glyph-name="q" unicode="q" 
d="M256 389v471q-69 0 -85.5 -16.5t-16.5 -85.5v-266q0 -69 16.5 -86t85.5 -17zM256 963v184q-69 0 -85.5 -17t-16.5 -86v-92q9 4 34.5 7t46.5 3zM256 102v185q-82 0 -102 10v-92q0 -69 16.5 -86t85.5 -17zM51 1044q0 123 41 164t164 41h102v-1536h-102v287q-123 0 -164 41
t-41 164v839z" />
    <glyph glyph-name="r" unicode="r" 
d="M358 1249v-102h-153q-32 0 -41.5 -18t-9.5 -85v-92q0 -1 6 1.5t18.5 6t26.5 3.5h153v-103h-153q-32 0 -41.5 -17.5t-9.5 -84.5v-758h-103v1044q0 120 33.5 162.5t120.5 42.5h153z" />
    <glyph glyph-name="s" unicode="s" 
d="M256 471q0 36 -21 62.5t-51 45t-60.5 40.5t-51.5 62t-21 97v266q0 123 41 164t164 41h102v-102h-102q-69 0 -85.5 -17t-16.5 -86v-92q20 11 102 11h102v-103h-102q-68 0 -85 -14t-17 -68q0 -36 21 -62.5t51 -45t60 -40.5t51 -62t21 -97v-266q0 -123 -40.5 -164
t-163.5 -41h-103v102h103q69 0 85.5 17t16.5 86v92q-20 -10 -102 -10h-103v102h103q68 0 85 14t17 68z" />
    <glyph glyph-name="t" unicode="t" horiz-adv-x="430" 
d="M31 1147v102h41v185h102v-185h102v-102h-102v-184h102v-103h-102v-368q0 -67 9.5 -85t41.5 -18h154v-102h-154q-14 0 -26.5 2.5t-18.5 4.5l-6 3v-92q0 -67 9.5 -85t41.5 -18h154v-102h-154q-87 0 -120 42t-33 163v655h-41v103h41v184h-41z" />
    <glyph glyph-name="u" unicode="u" 
d="M256 492v757h102v-1044q0 -121 -33 -163t-120 -42t-120.5 42.5t-33.5 162.5v1044h103v-757q0 -67 9.5 -85t41.5 -18t41.5 18t9.5 85zM154 287v-82q0 -67 9.5 -85t41.5 -18t41.5 18t9.5 85v82q-8 -7 -51 -7t-51 7z" />
    <glyph glyph-name="v" unicode="v" 
d="M51 0v1249h103v-860q69 0 85.5 17t16.5 86v757h102v-1044q0 -110 -43 -157.5t-161 -47.5h-103zM256 205v92q-9 -4 -34.5 -6.5t-46.5 -2.5l-21 -1v-185q69 0 85.5 17t16.5 86z" />
    <glyph glyph-name="w" unicode="w" horiz-adv-x="614" 
d="M358 0h-102q-123 0 -164 41t-41 164v1044h103v-757q0 -69 16.5 -86t85.5 -17v860h102v-860q69 0 86 17t17 86v757h102v-1044q0 -123 -41 -164t-164 -41zM461 205v92q-9 -4 -34.5 -6.5t-46.5 -2.5l-22 -1v-185q69 0 86 17t17 86zM154 297v-92q0 -69 16.5 -86t85.5 -17v185
q-82 0 -102 10z" />
    <glyph glyph-name="x" unicode="x" 
d="M256 184q0 67 -9.5 85t-41.5 18t-41.5 -18t-9.5 -85v-184h-103v184q0 123 51 154q-51 31 -51 154v266q0 122 51 153q-51 31 -51 154v184h103v-184q0 -67 9.5 -84.5t41.5 -17.5t41.5 17.5t9.5 84.5v184h102v-184q0 -123 -51 -154q51 -31 51 -153v-266q0 -123 -51 -154
q51 -31 51 -154v-184h-102v184zM256 758q0 67 -9.5 84.5t-41.5 17.5t-41.5 -17.5t-9.5 -84.5v-266q0 -67 9.5 -85t41.5 -18t41.5 18t9.5 85v266z" />
    <glyph glyph-name="y" unicode="y" 
d="M358 1249v-1331q0 -121 -33 -163t-120 -42h-154v103h154q32 0 41.5 17.5t9.5 84.5v82q-123 0 -164 41t-41 164v1044h103v-757q0 -69 16.5 -86t85.5 -17v860h102zM256 102v185q-36 0 -61.5 2.5t-32.5 4.5l-8 3v-92q0 -69 16.5 -86t85.5 -17z" />
    <glyph glyph-name="z" unicode="z" 
d="M51 963h205v184h-205v102h307v-450q0 -51 -21 -94t-51 -73t-60 -57.5t-51 -58.5t-21 -65v-62h204v-102h-204v-185h204v-102h-307v451q0 43 15 79.5t38 60.5t49.5 49t49.5 46t38 50.5t15 62.5v61h-205v103z" />
    <glyph glyph-name="exclamdown" unicode="&#xa1;" horiz-adv-x="204" 
d="M154 0h-103v1229h103v-1229zM51 1331v103h103v-103h-103z" />
    <glyph glyph-name="cent" unicode="&#xa2;" 
d="M154 1239v92h102v-82h102v-102h-102q-69 0 -85.5 -17t-16.5 -86v-92q20 11 102 11h102v-103h-102q-69 0 -85.5 -16.5t-16.5 -85.5v-266q0 -68 17 -85.5t85 -17.5h102v-102h-102q-36 0 -61.5 2.5t-32.5 4.5l-8 3v-92q0 -69 16.5 -86t85.5 -17h102v-102h-102v-102h-102v110
q-59 15 -81 59t-22 138v839q0 94 22 138t81 57z" />
    <glyph glyph-name="sterling" unicode="&#xa3;" horiz-adv-x="512" 
d="M51 655v103h103v471q0 100 44.5 152.5t159.5 52.5h103v-103h-103q-45 0 -73.5 -30t-28.5 -72v-471h102v-103h-102v-225h205v-102h-205v-226h205v-102h-410v102q69 0 86 17t17 86v123h-103v102q69 0 86 16.5t17 85.5v123h-103z" />
    <glyph glyph-name="yen" unicode="&#xa5;" 
d="M51 430v102h103v123q-28 9 -43 18t-31 30t-22.5 59.5t-6.5 97.5v574h103v-574q0 -67 9.5 -84.5t41.5 -17.5t41.5 17.5t9.5 84.5v574h102v-574q0 -48 -5 -82.5t-12.5 -54.5t-22.5 -34.5t-27.5 -20.5t-34.5 -13v-123h102v-102h-102v-102h102v-103h-102v-225h-102v225h-103
v103h103v102h-103z" />
    <glyph glyph-name="dieresis" unicode="&#xa8;" horiz-adv-x="389" 
d="M113 1290q-29 0 -45.5 19t-16.5 42.5t16.5 42.5t45.5 19t45.5 -19t16.5 -42.5t-16.5 -42.5t-45.5 -19zM276 1290q-29 0 -45.5 19t-16.5 42.5t16.5 42.5t45.5 19t45.5 -19t16.5 -42.5t-16.5 -42.5t-45.5 -19z" />
    <glyph glyph-name="degree" unicode="&#xb0;" horiz-adv-x="368" 
d="M317 1331q0 -107 -28 -145.5t-105 -38.5t-105 38.5t-28 145.5t28 146t105 39t105 -39t28 -146zM133 1331q0 -67 9.5 -84.5t41.5 -17.5t42 17.5t10 84.5t-10 85t-42 18t-41.5 -18t-9.5 -85z" />
    <glyph glyph-name="acute" unicode="&#xb4;" horiz-adv-x="245" 
d="M195 1434l-84 -144l-60 21l41 123h103z" />
    <glyph glyph-name="cedilla" unicode="&#xb8;" horiz-adv-x="215" 
d="M51 -61v102h31v-61q38 0 60 -22t22 -60q0 -82 -113 -82v41q62 0 62 41t-62 41z" />
    <glyph glyph-name="questiondown" unicode="&#xbf;" 
d="M256 1434v-103h-102v103h102zM256 881v348h-102v-348q0 -62 -16 -112.5t-35.5 -79.5t-35.5 -76t-16 -101v-307q0 -120 33.5 -162.5t120.5 -42.5h153v102h-153q-31 0 -41 20.5t-10 82.5v133q20 -10 51 -10h153v102h-153q-31 0 -41 20t-10 82q0 33 16 69t35 66.5t35 87.5
t16 126z" />
    <glyph glyph-name="Agrave" unicode="&#xc0;" 
d="M184 1475l-84 143h103l41 -123zM154 1229v-154q9 4 34.5 6.5t46.5 2.5l21 1v246q-26 0 -43 -1.5t-28.5 -7.5t-17.5 -11t-9 -20t-3.5 -25.5t-0.5 -36.5zM358 1434v-1434h-102v328h-102v-328h-103v1229q0 49 3.5 79.5t17.5 55t32.5 37t56.5 21t81.5 10.5t115.5 2zM154 655
v-225h102v225h-102zM154 881v-123h102v225q-62 0 -82 -20.5t-20 -81.5z" />
    <glyph glyph-name="Aacute" unicode="&#xc1;" 
d="M309 1618l-84 -143l-59 20l41 123h102zM154 1229v-154q9 4 34.5 6.5t46.5 2.5l21 1v246q-26 0 -43 -1.5t-28.5 -7.5t-17.5 -11t-9 -20t-3.5 -25.5t-0.5 -36.5zM358 1434v-1434h-102v328h-102v-328h-103v1229q0 49 3.5 79.5t17.5 55t32.5 37t56.5 21t81.5 10.5t115.5 2z
M154 655v-225h102v225h-102zM154 881v-123h102v225q-62 0 -82 -20.5t-20 -81.5z" />
    <glyph glyph-name="Acircumflex" unicode="&#xc2;" 
d="M287 1618l41 -123l-60 -20l-63 108l-64 -108l-59 20l41 123h164zM154 1229v-154q9 4 34.5 6.5t46.5 2.5l21 1v246q-26 0 -43 -1.5t-28.5 -7.5t-17.5 -11t-9 -20t-3.5 -25.5t-0.5 -36.5zM358 1434v-1434h-102v328h-102v-328h-103v1229q0 49 3.5 79.5t17.5 55t32.5 37
t56.5 21t81.5 10.5t115.5 2zM154 655v-225h102v225h-102zM154 881v-123h102v225q-62 0 -82 -20.5t-20 -81.5z" />
    <glyph glyph-name="Atilde" unicode="&#xc3;" 
d="M256 1577q23 0 41 -5.5t25 -10.5l6 -5v-51h-72q-26 0 -51 -15t-51 -15q-23 0 -41 5t-25 10l-6 5v51h72q26 0 51 15.5t51 15.5zM154 1229v-154q9 4 34.5 6.5t46.5 2.5l21 1v246q-26 0 -43 -1.5t-28.5 -7.5t-17.5 -11t-9 -20t-3.5 -25.5t-0.5 -36.5zM358 1434v-1434h-102
v328h-102v-328h-103v1229q0 49 3.5 79.5t17.5 55t32.5 37t56.5 21t81.5 10.5t115.5 2zM154 655v-225h102v225h-102zM154 881v-123h102v225q-62 0 -82 -20.5t-20 -81.5z" />
    <glyph glyph-name="Adieresis" unicode="&#xc4;" 
d="M123 1475q-29 0 -45.5 19t-16.5 42t16.5 42t45.5 19t45.5 -19t16.5 -42t-16.5 -42t-45.5 -19zM287 1475q-29 0 -45.5 19t-16.5 42t16.5 42t45.5 19t45.5 -19t16.5 -42t-16.5 -42t-45.5 -19zM154 1229v-154q9 4 34.5 6.5t46.5 2.5l21 1v246q-26 0 -43 -1.5t-28.5 -7.5
t-17.5 -11t-9 -20t-3.5 -25.5t-0.5 -36.5zM358 1434v-1434h-102v328h-102v-328h-103v1229q0 49 3.5 79.5t17.5 55t32.5 37t56.5 21t81.5 10.5t115.5 2zM154 655v-225h102v225h-102zM154 881v-123h102v225q-62 0 -82 -20.5t-20 -81.5z" />
    <glyph glyph-name="Aring" unicode="&#xc5;" 
d="M205 1475q-38 0 -60 21.5t-22 59.5t22 60t60 22t60 -22t22 -60t-22 -59.5t-60 -21.5zM205 1516q14 0 22.5 12t8.5 28t-8.5 28.5t-22.5 12.5t-22.5 -12.5t-8.5 -28.5t8.5 -28t22.5 -12zM154 1229v-154q9 4 34.5 6.5t46.5 2.5l21 1v246q-26 0 -43 -1.5t-28.5 -7.5
t-17.5 -11t-9 -20t-3.5 -25.5t-0.5 -36.5zM358 1434v-1434h-102v328h-102v-328h-103v1229q0 49 3.5 79.5t17.5 55t32.5 37t56.5 21t81.5 10.5t115.5 2zM154 655v-225h102v225h-102zM154 881v-123h102v225q-62 0 -82 -20.5t-20 -81.5z" />
    <glyph glyph-name="Ccedilla" unicode="&#xc7;" 
d="M154 860v-307q0 -84 16.5 -103.5t85.5 -19.5h102v-102h-102q-36 0 -61.5 2.5t-32.5 5.5l-8 2v-113q0 -84 16.5 -103.5t85.5 -19.5h102v-102h-102h-41v-20q38 0 60 -22t22 -60q0 -82 -113 -82v41q62 0 62 41t-62 41v65q-77 9 -105 53t-28 148v1024q0 123 41 164t164 41
h102v-103h-102q-69 0 -85.5 -19.5t-16.5 -103.5v-133q20 10 102 10h102v-102h-102q-69 0 -85.5 -19.5t-16.5 -103.5z" />
    <glyph glyph-name="Egrave" unicode="&#xc8;" 
d="M154 860q0 84 16.5 103.5t85.5 19.5h102v102h-102q-36 0 -61.5 -2.5t-32.5 -4.5l-8 -3v133q0 84 16.5 103.5t85.5 19.5h102v103h-102q-123 0 -164 -41t-41 -164v-1024q0 -123 41 -164t164 -41h102v102h-102q-69 0 -85.5 19.5t-16.5 103.5v113q20 -10 102 -10h102v102
h-102q-69 0 -85.5 19.5t-16.5 103.5v102h102v103h-102v102zM184 1475l-84 143h103l41 -123z" />
    <glyph glyph-name="Eacute" unicode="&#xc9;" 
d="M309 1618l-84 -143l-59 20l41 123h102zM154 860q0 84 16.5 103.5t85.5 19.5h102v102h-102q-36 0 -61.5 -2.5t-32.5 -4.5l-8 -3v133q0 84 16.5 103.5t85.5 19.5h102v103h-102q-123 0 -164 -41t-41 -164v-1024q0 -123 41 -164t164 -41h102v102h-102q-69 0 -85.5 19.5
t-16.5 103.5v113q20 -10 102 -10h102v102h-102q-69 0 -85.5 19.5t-16.5 103.5v102h102v103h-102v102z" />
    <glyph glyph-name="Ecircumflex" unicode="&#xca;" 
d="M154 860q0 84 16.5 103.5t85.5 19.5h102v102h-102q-36 0 -61.5 -2.5t-32.5 -4.5l-8 -3v133q0 84 16.5 103.5t85.5 19.5h102v103h-102q-123 0 -164 -41t-41 -164v-1024q0 -123 41 -164t164 -41h102v102h-102q-69 0 -85.5 19.5t-16.5 103.5v113q20 -10 102 -10h102v102
h-102q-69 0 -85.5 19.5t-16.5 103.5v102h102v103h-102v102zM287 1618l41 -123l-60 -20l-63 108l-64 -108l-59 20l41 123h164z" />
    <glyph glyph-name="Edieresis" unicode="&#xcb;" 
d="M154 860q0 84 16.5 103.5t85.5 19.5h102v102h-102q-36 0 -61.5 -2.5t-32.5 -4.5l-8 -3v133q0 84 16.5 103.5t85.5 19.5h102v103h-102q-123 0 -164 -41t-41 -164v-1024q0 -123 41 -164t164 -41h102v102h-102q-69 0 -85.5 19.5t-16.5 103.5v113q20 -10 102 -10h102v102
h-102q-69 0 -85.5 19.5t-16.5 103.5v102h102v103h-102v102zM123 1475q-29 0 -45.5 19t-16.5 42t16.5 42t45.5 19t45.5 -19t16.5 -42t-16.5 -42t-45.5 -19zM287 1475q-29 0 -45.5 19t-16.5 42t16.5 42t45.5 19t45.5 -19t16.5 -42t-16.5 -42t-45.5 -19z" />
    <glyph glyph-name="Igrave" unicode="&#xcc;" horiz-adv-x="206" 
d="M84 1475l-84 143h102l41 -123zM156 1434h-103v-1434h103v1434z" />
    <glyph glyph-name="Iacute" unicode="&#xcd;" horiz-adv-x="206" 
d="M154 1434h-103v-1434h103v1434zM207 1618l-84 -143l-60 20l41 123h103z" />
    <glyph glyph-name="Icircumflex" unicode="&#xce;" horiz-adv-x="245" 
d="M174 1434h-102v-1434h102v1434zM205 1618l41 -123l-60 -20l-63 108l-64 -108l-59 20l41 123h164z" />
    <glyph glyph-name="Idieresis" unicode="&#xcf;" horiz-adv-x="225" 
d="M164 1434h-103v-1434h103v1434zM31 1475q-29 0 -45.5 19t-16.5 42t16.5 42t45.5 19t45.5 -19t16.5 -42t-16.5 -42t-45.5 -19zM195 1475q-29 0 -45.5 19t-16.5 42t16.5 42t45.5 19t45.5 -19t16.5 -42t-16.5 -42t-45.5 -19z" />
    <glyph glyph-name="Eth" unicode="&#xd0;" horiz-adv-x="419" 
d="M10 655v103h51v676h103q122 0 163.5 -41t41.5 -164v-1024q0 -123 -41 -164t-164 -41h-103v655h-51zM266 553v307q0 73 -18 98t-84 25v-225h51v-103h-51v-225q69 0 85.5 19.5t16.5 103.5zM266 1065v164q0 69 -16.5 85.5t-85.5 16.5v-246q36 0 61.5 -5t32.5 -10zM164 328
v-226q69 0 85.5 19.5t16.5 103.5v123q-9 -9 -34.5 -14t-46.5 -6h-21z" />
    <glyph glyph-name="Ntilde" unicode="&#xd1;" 
d="M51 0v1434h103q118 0 161 -47.5t43 -157.5v-1229h-102v881q0 69 -16.5 85.5t-85.5 16.5v-983h-103zM256 1075v154q0 69 -16.5 85.5t-85.5 16.5v-246q82 0 102 -10zM256 1577q23 0 41 -5.5t25 -10.5l6 -5v-51h-72q-26 0 -51 -15t-51 -15q-23 0 -41 5t-25 10l-6 5v51h72
q26 0 51 15.5t51 15.5z" />
    <glyph glyph-name="Ograve" unicode="&#xd2;" 
d="M154 1085v144q0 67 9.5 84.5t41.5 17.5t41.5 -17.5t9.5 -84.5v-144q-8 7 -51 7t-51 -7zM154 532v349q0 67 9.5 84.5t41.5 17.5t41.5 -17.5t9.5 -84.5v-349q0 -67 -9.5 -84.5t-41.5 -17.5t-41.5 17.5t-9.5 84.5zM256 328v-123q0 -67 -9.5 -85t-41.5 -18t-41.5 18t-9.5 85
v123q8 -8 51 -8t51 8zM358 205v1024q0 121 -33 163t-120 42t-120.5 -42.5t-33.5 -162.5v-1024q0 -120 33.5 -162.5t120.5 -42.5t120 42t33 163zM184 1475l-84 143h103l41 -123z" />
    <glyph glyph-name="Oacute" unicode="&#xd3;" 
d="M154 1085v144q0 67 9.5 84.5t41.5 17.5t41.5 -17.5t9.5 -84.5v-144q-8 7 -51 7t-51 -7zM154 532v349q0 67 9.5 84.5t41.5 17.5t41.5 -17.5t9.5 -84.5v-349q0 -67 -9.5 -84.5t-41.5 -17.5t-41.5 17.5t-9.5 84.5zM256 328v-123q0 -67 -9.5 -85t-41.5 -18t-41.5 18t-9.5 85
v123q8 -8 51 -8t51 8zM358 205v1024q0 121 -33 163t-120 42t-120.5 -42.5t-33.5 -162.5v-1024q0 -120 33.5 -162.5t120.5 -42.5t120 42t33 163zM309 1618l-84 -143l-59 20l41 123h102z" />
    <glyph glyph-name="Ocircumflex" unicode="&#xd4;" 
d="M154 1085v144q0 67 9.5 84.5t41.5 17.5t41.5 -17.5t9.5 -84.5v-144q-8 7 -51 7t-51 -7zM154 532v349q0 67 9.5 84.5t41.5 17.5t41.5 -17.5t9.5 -84.5v-349q0 -67 -9.5 -84.5t-41.5 -17.5t-41.5 17.5t-9.5 84.5zM256 328v-123q0 -67 -9.5 -85t-41.5 -18t-41.5 18t-9.5 85
v123q8 -8 51 -8t51 8zM358 205v1024q0 121 -33 163t-120 42t-120.5 -42.5t-33.5 -162.5v-1024q0 -120 33.5 -162.5t120.5 -42.5t120 42t33 163zM287 1618l41 -123l-60 -20l-63 108l-64 -108l-59 20l41 123h164z" />
    <glyph glyph-name="Otilde" unicode="&#xd5;" 
d="M154 1085v144q0 67 9.5 84.5t41.5 17.5t41.5 -17.5t9.5 -84.5v-144q-8 7 -51 7t-51 -7zM154 532v349q0 67 9.5 84.5t41.5 17.5t41.5 -17.5t9.5 -84.5v-349q0 -67 -9.5 -84.5t-41.5 -17.5t-41.5 17.5t-9.5 84.5zM256 328v-123q0 -67 -9.5 -85t-41.5 -18t-41.5 18t-9.5 85
v123q8 -8 51 -8t51 8zM358 205v1024q0 121 -33 163t-120 42t-120.5 -42.5t-33.5 -162.5v-1024q0 -120 33.5 -162.5t120.5 -42.5t120 42t33 163zM256 1577q23 0 41 -5.5t25 -10.5l6 -5v-51h-72q-26 0 -51 -15t-51 -15q-23 0 -41 5t-25 10l-6 5v51h72q26 0 51 15.5t51 15.5z
" />
    <glyph glyph-name="Odieresis" unicode="&#xd6;" 
d="M154 1085v144q0 67 9.5 84.5t41.5 17.5t41.5 -17.5t9.5 -84.5v-144q-8 7 -51 7t-51 -7zM154 532v349q0 67 9.5 84.5t41.5 17.5t41.5 -17.5t9.5 -84.5v-349q0 -67 -9.5 -84.5t-41.5 -17.5t-41.5 17.5t-9.5 84.5zM256 328v-123q0 -67 -9.5 -85t-41.5 -18t-41.5 18t-9.5 85
v123q8 -8 51 -8t51 8zM358 205v1024q0 121 -33 163t-120 42t-120.5 -42.5t-33.5 -162.5v-1024q0 -120 33.5 -162.5t120.5 -42.5t120 42t33 163zM123 1475q-29 0 -45.5 19t-16.5 42t16.5 42t45.5 19t45.5 -19t16.5 -42t-16.5 -42t-45.5 -19zM287 1475q-29 0 -45.5 19
t-16.5 42t16.5 42t45.5 19t45.5 -19t16.5 -42t-16.5 -42t-45.5 -19z" />
    <glyph glyph-name="Oslash" unicode="&#xd8;" 
d="M154 1229v-144q8 7 51 7t51 -7v144q0 67 -9.5 84.5t-41.5 17.5t-41.5 -17.5t-9.5 -84.5zM256 840v41q0 67 -9.5 84.5t-41.5 17.5t-41.5 -17.5t-9.5 -84.5v-144q5 5 33.5 22.5t48.5 37.5t20 43zM256 205v123q-8 -8 -51 -8t-51 8v-123q0 -67 9.5 -85t41.5 -18t41.5 18
t9.5 85zM358 1229v-1024q0 -121 -33 -163t-120 -42t-120.5 42.5t-33.5 162.5v1024q0 120 33.5 162.5t120.5 42.5t120 -42t33 -163zM256 676q-5 -5 -33.5 -22.5t-48.5 -37.5t-20 -43v-41q0 -67 9.5 -84.5t41.5 -17.5q30 0 40.5 18.5t10.5 83.5v144z" />
    <glyph glyph-name="Ugrave" unicode="&#xd9;" 
d="M256 1434v-902q0 -67 -9.5 -84.5t-41.5 -17.5t-41.5 17.5t-9.5 84.5v902h-103v-1229q0 -120 33.5 -162.5t120.5 -42.5t120 42t33 163v1229h-102zM154 205v123q8 -8 51 -8t51 8v-123q0 -67 -9.5 -85t-41.5 -18t-41.5 18t-9.5 85zM184 1475l-84 143h103l41 -123z" />
    <glyph glyph-name="Uacute" unicode="&#xda;" 
d="M256 1434v-902q0 -67 -9.5 -84.5t-41.5 -17.5t-41.5 17.5t-9.5 84.5v902h-103v-1229q0 -120 33.5 -162.5t120.5 -42.5t120 42t33 163v1229h-102zM154 205v123q8 -8 51 -8t51 8v-123q0 -67 -9.5 -85t-41.5 -18t-41.5 18t-9.5 85zM309 1618l-84 -143l-59 20l41 123h102z
" />
    <glyph glyph-name="Ucircumflex" unicode="&#xdb;" 
d="M256 1434v-902q0 -67 -9.5 -84.5t-41.5 -17.5t-41.5 17.5t-9.5 84.5v902h-103v-1229q0 -120 33.5 -162.5t120.5 -42.5t120 42t33 163v1229h-102zM154 205v123q8 -8 51 -8t51 8v-123q0 -67 -9.5 -85t-41.5 -18t-41.5 18t-9.5 85zM287 1618l41 -123l-60 -20l-63 108
l-64 -108l-59 20l41 123h164z" />
    <glyph glyph-name="Udieresis" unicode="&#xdc;" 
d="M256 1434v-902q0 -67 -9.5 -84.5t-41.5 -17.5t-41.5 17.5t-9.5 84.5v902h-103v-1229q0 -120 33.5 -162.5t120.5 -42.5t120 42t33 163v1229h-102zM154 205v123q8 -8 51 -8t51 8v-123q0 -67 -9.5 -85t-41.5 -18t-41.5 18t-9.5 85zM123 1475q-29 0 -45.5 19t-16.5 42
t16.5 42t45.5 19t45.5 -19t16.5 -42t-16.5 -42t-45.5 -19zM287 1475q-29 0 -45.5 19t-16.5 42t16.5 42t45.5 19t45.5 -19t16.5 -42t-16.5 -42t-45.5 -19z" />
    <glyph glyph-name="Yacute" unicode="&#xdd;" 
d="M256 1434h102v-902q0 -48 -5 -82.5t-12.5 -54.5t-22.5 -34t-27.5 -20t-34.5 -13v-328h-102v328q-28 9 -43 18t-31 29.5t-22.5 59t-6.5 97.5v902h103v-574q0 -67 9.5 -84.5t41.5 -17.5t41.5 17.5t9.5 84.5v574zM205 430q32 0 41.5 17.5t9.5 84.5v123q-8 -7 -51 -7t-51 7
v-123q0 -67 9.5 -84.5t41.5 -17.5zM309 1618l-84 -143l-59 20l41 123h102z" />
    <glyph glyph-name="Thorn" unicode="&#xde;" 
d="M154 819v-225q69 0 85.5 16.5t16.5 85.5v21q0 69 -16.5 85.5t-85.5 16.5zM154 1167v-245q36 0 61.5 -3t32.5 -5l8 -3v154q0 69 -16.5 85.5t-85.5 16.5zM154 266q69 0 85.5 17t16.5 86v133q-20 -10 -102 -10v-226zM358 1065v-696q0 -123 -40.5 -164t-163.5 -41v-164h-103
v1434h103v-164q123 0 163.5 -41t40.5 -164z" />
    <glyph glyph-name="germandbls" unicode="&#xdf;" horiz-adv-x="460" 
d="M51 0v1229q0 120 33.5 162.5t120.5 42.5h205v-656q0 -121 -52 -153q52 -32 52 -154v-266q0 -123 -41 -164t-164 -41v102q69 0 85.5 17t16.5 86v266q0 69 -16.5 85.5t-85.5 16.5v103q69 0 85.5 16.5t16.5 85.5v82h-51q-69 0 -85.5 -16.5t-16.5 -85.5v-758h-103zM307 963
v368h-102q-32 0 -41.5 -17.5t-9.5 -84.5v-277l7 2q7 2 33 5.5t62 3.5h51z" />
    <glyph glyph-name="agrave" unicode="&#xe0;" 
d="M51 205v266q0 123 41 164t164 41v82q0 67 -9.5 84.5t-41.5 17.5h-154v103h154q14 0 26.5 -2.5t18.5 -5.5l6 -3v92q0 67 -9.5 85t-41.5 18h-154v102h154q87 0 120 -42t33 -163v-1044h-102q-123 0 -164 41t-41 164zM256 389v184q-69 0 -85.5 -15t-16.5 -77t16.5 -77
t85.5 -15zM256 102v185q-82 0 -102 10v-92q0 -69 16.5 -86t85.5 -17zM184 1290l-84 144h103l41 -123z" />
    <glyph glyph-name="aacute" unicode="&#xe1;" 
d="M51 205v266q0 123 41 164t164 41v82q0 67 -9.5 84.5t-41.5 17.5h-154v103h154q14 0 26.5 -2.5t18.5 -5.5l6 -3v92q0 67 -9.5 85t-41.5 18h-154v102h154q87 0 120 -42t33 -163v-1044h-102q-123 0 -164 41t-41 164zM256 389v184q-69 0 -85.5 -15t-16.5 -77t16.5 -77
t85.5 -15zM256 102v185q-82 0 -102 10v-92q0 -69 16.5 -86t85.5 -17zM309 1434l-84 -144l-59 21l41 123h102z" />
    <glyph glyph-name="acircumflex" unicode="&#xe2;" 
d="M51 205v266q0 123 41 164t164 41v82q0 67 -9.5 84.5t-41.5 17.5h-154v103h154q14 0 26.5 -2.5t18.5 -5.5l6 -3v92q0 67 -9.5 85t-41.5 18h-154v102h154q87 0 120 -42t33 -163v-1044h-102q-123 0 -164 41t-41 164zM256 389v184q-69 0 -85.5 -15t-16.5 -77t16.5 -77
t85.5 -15zM256 102v185q-82 0 -102 10v-92q0 -69 16.5 -86t85.5 -17zM287 1434l41 -123l-60 -21l-63 109l-64 -109l-59 21l41 123h164z" />
    <glyph glyph-name="atilde" unicode="&#xe3;" 
d="M51 205v266q0 123 41 164t164 41v82q0 67 -9.5 84.5t-41.5 17.5h-154v103h154q14 0 26.5 -2.5t18.5 -5.5l6 -3v92q0 67 -9.5 85t-41.5 18h-154v102h154q87 0 120 -42t33 -163v-1044h-102q-123 0 -164 41t-41 164zM256 389v184q-69 0 -85.5 -15t-16.5 -77t16.5 -77
t85.5 -15zM256 102v185q-82 0 -102 10v-92q0 -69 16.5 -86t85.5 -17zM256 1393q23 0 41 -5.5t25 -10.5l6 -5v-51h-72q-26 0 -51 -15.5t-51 -15.5q-23 0 -41 5t-25 11l-6 5v51h72q26 0 51 15.5t51 15.5z" />
    <glyph glyph-name="adieresis" unicode="&#xe4;" 
d="M51 205v266q0 123 41 164t164 41v82q0 67 -9.5 84.5t-41.5 17.5h-154v103h154q14 0 26.5 -2.5t18.5 -5.5l6 -3v92q0 67 -9.5 85t-41.5 18h-154v102h154q87 0 120 -42t33 -163v-1044h-102q-123 0 -164 41t-41 164zM256 389v184q-69 0 -85.5 -15t-16.5 -77t16.5 -77
t85.5 -15zM256 102v185q-82 0 -102 10v-92q0 -69 16.5 -86t85.5 -17zM123 1290q-29 0 -45.5 19t-16.5 42.5t16.5 42.5t45.5 19t45.5 -19t16.5 -42.5t-16.5 -42.5t-45.5 -19zM287 1290q-29 0 -45.5 19t-16.5 42.5t16.5 42.5t45.5 19t45.5 -19t16.5 -42.5t-16.5 -42.5
t-45.5 -19z" />
    <glyph glyph-name="aring" unicode="&#xe5;" 
d="M51 205v266q0 123 41 164t164 41v82q0 67 -9.5 84.5t-41.5 17.5h-154v103h154q14 0 26.5 -2.5t18.5 -5.5l6 -3v92q0 67 -9.5 85t-41.5 18h-154v102h154q87 0 120 -42t33 -163v-1044h-102q-123 0 -164 41t-41 164zM256 389v184q-69 0 -85.5 -15t-16.5 -77t16.5 -77
t85.5 -15zM256 102v185q-82 0 -102 10v-92q0 -69 16.5 -86t85.5 -17zM205 1290q-38 0 -60 22t-22 60t22 60t60 22t60 -22t22 -60t-22 -60t-60 -22zM205 1331q14 0 22.5 12.5t8.5 28.5t-8.5 28.5t-22.5 12.5t-22.5 -12.5t-8.5 -28.5t8.5 -28.5t22.5 -12.5z" />
    <glyph glyph-name="ccedilla" unicode="&#xe7;" 
d="M154 758v-266q0 -68 17 -85.5t85 -17.5h102v-102h-102q-36 0 -61.5 2.5t-32.5 4.5l-8 3v-92q0 -69 16.5 -86t85.5 -17h102v-102h-102h-31v-20q38 0 60 -22t22 -60q0 -82 -112 -82v41q61 0 61 41t-61 41v63q-84 9 -114 52.5t-30 150.5v839q0 123 41 164t164 41h102v-102
h-102q-69 0 -85.5 -17t-16.5 -86v-92q20 11 102 11h102v-103h-102q-69 0 -85.5 -16.5t-16.5 -85.5z" />
    <glyph glyph-name="egrave" unicode="&#xe8;" 
d="M184 1290l-84 144h103l41 -123zM358 0v102h-153q-32 0 -41.5 18t-9.5 85v92q20 -10 51 -10h153v102h-153q-32 0 -41.5 18t-9.5 85v81h51q86 0 119.5 39.5t33.5 145.5v286q0 121 -33 163t-120 42t-120.5 -42.5t-33.5 -162.5v-839q0 -120 33.5 -162.5t120.5 -42.5h153z
M205 676h-51v82q0 67 9.5 84.5t41.5 17.5t41.5 -17.5t9.5 -84.5q0 -53 -9.5 -67.5t-41.5 -14.5zM154 963v81q0 67 9.5 85t41.5 18t41.5 -18t9.5 -85v-81q-8 7 -51 7t-51 -7z" />
    <glyph glyph-name="eacute" unicode="&#xe9;" 
d="M358 0v102h-153q-32 0 -41.5 18t-9.5 85v92q20 -10 51 -10h153v102h-153q-32 0 -41.5 18t-9.5 85v81h51q86 0 119.5 39.5t33.5 145.5v286q0 121 -33 163t-120 42t-120.5 -42.5t-33.5 -162.5v-839q0 -120 33.5 -162.5t120.5 -42.5h153zM205 676h-51v82q0 67 9.5 84.5
t41.5 17.5t41.5 -17.5t9.5 -84.5q0 -53 -9.5 -67.5t-41.5 -14.5zM154 963v81q0 67 9.5 85t41.5 18t41.5 -18t9.5 -85v-81q-8 7 -51 7t-51 -7zM309 1434l-84 -144l-59 21l41 123h102z" />
    <glyph glyph-name="ecircumflex" unicode="&#xea;" 
d="M358 0v102h-153q-32 0 -41.5 18t-9.5 85v92q20 -10 51 -10h153v102h-153q-32 0 -41.5 18t-9.5 85v81h51q86 0 119.5 39.5t33.5 145.5v286q0 121 -33 163t-120 42t-120.5 -42.5t-33.5 -162.5v-839q0 -120 33.5 -162.5t120.5 -42.5h153zM205 676h-51v82q0 67 9.5 84.5
t41.5 17.5t41.5 -17.5t9.5 -84.5q0 -53 -9.5 -67.5t-41.5 -14.5zM154 963v81q0 67 9.5 85t41.5 18t41.5 -18t9.5 -85v-81q-8 7 -51 7t-51 -7zM287 1434l41 -123l-60 -21l-63 109l-64 -109l-59 21l41 123h164z" />
    <glyph glyph-name="edieresis" unicode="&#xeb;" 
d="M358 0v102h-153q-32 0 -41.5 18t-9.5 85v92q20 -10 51 -10h153v102h-153q-32 0 -41.5 18t-9.5 85v81h51q86 0 119.5 39.5t33.5 145.5v286q0 121 -33 163t-120 42t-120.5 -42.5t-33.5 -162.5v-839q0 -120 33.5 -162.5t120.5 -42.5h153zM205 676h-51v82q0 67 9.5 84.5
t41.5 17.5t41.5 -17.5t9.5 -84.5q0 -53 -9.5 -67.5t-41.5 -14.5zM154 963v81q0 67 9.5 85t41.5 18t41.5 -18t9.5 -85v-81q-8 7 -51 7t-51 -7zM123 1290q-29 0 -45.5 19t-16.5 42.5t16.5 42.5t45.5 19t45.5 -19t16.5 -42.5t-16.5 -42.5t-45.5 -19zM287 1290q-29 0 -45.5 19
t-16.5 42.5t16.5 42.5t45.5 19t45.5 -19t16.5 -42.5t-16.5 -42.5t-45.5 -19z" />
    <glyph glyph-name="igrave" unicode="&#xec;" horiz-adv-x="206" 
d="M53 0v1249h103v-1249h-103zM84 1290l-84 144h102l41 -123z" />
    <glyph glyph-name="iacute" unicode="&#xed;" horiz-adv-x="198" 
d="M51 0v1249h103v-1249h-103zM199 1434l-84 -144l-60 21l41 123h103z" />
    <glyph glyph-name="icircumflex" unicode="&#xee;" horiz-adv-x="245" 
d="M72 0v1249h102v-1249h-102zM205 1434l41 -123l-60 -21l-63 109l-64 -109l-59 21l41 123h164z" />
    <glyph glyph-name="idieresis" unicode="&#xef;" horiz-adv-x="225" 
d="M61 0v1249h103v-1249h-103zM31 1290q-29 0 -45.5 19t-16.5 42.5t16.5 42.5t45.5 19t45.5 -19t16.5 -42.5t-16.5 -42.5t-45.5 -19zM195 1290q-29 0 -45.5 19t-16.5 42.5t16.5 42.5t45.5 19t45.5 -19t16.5 -42.5t-16.5 -42.5t-45.5 -19z" />
    <glyph glyph-name="eth" unicode="&#xf0;" 
d="M154 758v-266q0 -69 16.5 -86t85.5 -17v471q-69 0 -85.5 -16.5t-16.5 -85.5zM256 205v82q-82 0 -102 10v-92q0 -67 9.5 -85t41.5 -18t41.5 18t9.5 85zM256 963v184q-69 0 -85.5 -17t-16.5 -86v-94q9 5 34.5 8.5t46.5 3.5zM102 1341v52h-51v102h51v51h103v-53
q90 -7 121.5 -50t31.5 -153v-1085q0 -121 -33 -163t-120 -42t-120.5 42.5t-33.5 162.5v839q0 123 41 164t164 41v41q0 55 -9.5 76t-41.5 25v-50h-103z" />
    <glyph glyph-name="ntilde" unicode="&#xf1;" 
d="M51 0v1249h103q118 0 161 -47.5t43 -157.5v-1044h-102v758q0 69 -16.5 85.5t-85.5 16.5v-860h-103zM256 952v92q0 69 -16.5 86t-85.5 17v-184q82 -1 102 -11zM256 1393q23 0 41 -5.5t25 -10.5l6 -5v-51h-72q-26 0 -51 -15.5t-51 -15.5q-23 0 -41 5t-25 11l-6 5v51h72
q26 0 51 15.5t51 15.5z" />
    <glyph glyph-name="ograve" unicode="&#xf2;" 
d="M154 963v81q0 67 9.5 85t41.5 18t41.5 -18t9.5 -85v-81q-8 7 -51 7t-51 -7zM154 492v266q0 67 9.5 84.5t41.5 17.5t41.5 -17.5t9.5 -84.5v-266q0 -67 -9.5 -85t-41.5 -18t-41.5 18t-9.5 85zM256 287v-82q0 -67 -9.5 -85t-41.5 -18t-41.5 18t-9.5 85v82q8 -7 51 -7t51 7z
M358 205v839q0 121 -33 163t-120 42t-120.5 -42.5t-33.5 -162.5v-839q0 -120 33.5 -162.5t120.5 -42.5t120 42t33 163zM184 1290q1 0 -20 36l-42 72l-22 36h103l41 -123q-2 -1 -5 -2t-11 -3.5t-15 -5l-14 -5t-11 -3.5z" />
    <glyph glyph-name="oacute" unicode="&#xf3;" 
d="M154 963v81q0 67 9.5 85t41.5 18t41.5 -18t9.5 -85v-81q-8 7 -51 7t-51 -7zM154 492v266q0 67 9.5 84.5t41.5 17.5t41.5 -17.5t9.5 -84.5v-266q0 -67 -9.5 -85t-41.5 -18t-41.5 18t-9.5 85zM256 287v-82q0 -67 -9.5 -85t-41.5 -18t-41.5 18t-9.5 85v82q8 -7 51 -7t51 7z
M358 205v839q0 121 -33 163t-120 42t-120.5 -42.5t-33.5 -162.5v-839q0 -120 33.5 -162.5t120.5 -42.5t120 42t33 163zM309 1434l-84 -144l-59 21l41 123h102z" />
    <glyph glyph-name="ocircumflex" unicode="&#xf4;" 
d="M154 963v81q0 67 9.5 85t41.5 18t41.5 -18t9.5 -85v-81q-8 7 -51 7t-51 -7zM154 492v266q0 67 9.5 84.5t41.5 17.5t41.5 -17.5t9.5 -84.5v-266q0 -67 -9.5 -85t-41.5 -18t-41.5 18t-9.5 85zM256 287v-82q0 -67 -9.5 -85t-41.5 -18t-41.5 18t-9.5 85v82q8 -7 51 -7t51 7z
M358 205v839q0 121 -33 163t-120 42t-120.5 -42.5t-33.5 -162.5v-839q0 -120 33.5 -162.5t120.5 -42.5t120 42t33 163zM287 1434l41 -123l-60 -21l-63 109l-64 -109l-59 21l41 123h164z" />
    <glyph glyph-name="otilde" unicode="&#xf5;" 
d="M154 963v81q0 67 9.5 85t41.5 18t41.5 -18t9.5 -85v-81q-8 7 -51 7t-51 -7zM154 492v266q0 67 9.5 84.5t41.5 17.5t41.5 -17.5t9.5 -84.5v-266q0 -67 -9.5 -85t-41.5 -18t-41.5 18t-9.5 85zM256 287v-82q0 -67 -9.5 -85t-41.5 -18t-41.5 18t-9.5 85v82q8 -7 51 -7t51 7z
M358 205v839q0 121 -33 163t-120 42t-120.5 -42.5t-33.5 -162.5v-839q0 -120 33.5 -162.5t120.5 -42.5t120 42t33 163zM256 1393q23 0 41 -5.5t25 -10.5l6 -5v-51h-72q-26 0 -51 -15.5t-51 -15.5q-23 0 -41 5t-25 11l-6 5v51h72q26 0 51 15.5t51 15.5z" />
    <glyph glyph-name="odieresis" unicode="&#xf6;" 
d="M154 963v81q0 67 9.5 85t41.5 18t41.5 -18t9.5 -85v-81q-8 7 -51 7t-51 -7zM154 492v266q0 67 9.5 84.5t41.5 17.5t41.5 -17.5t9.5 -84.5v-266q0 -67 -9.5 -85t-41.5 -18t-41.5 18t-9.5 85zM256 287v-82q0 -67 -9.5 -85t-41.5 -18t-41.5 18t-9.5 85v82q8 -7 51 -7t51 7z
M358 205v839q0 121 -33 163t-120 42t-120.5 -42.5t-33.5 -162.5v-839q0 -120 33.5 -162.5t120.5 -42.5t120 42t33 163zM123 1290q-29 0 -45.5 19t-16.5 42.5t16.5 42.5t45.5 19t45.5 -19t16.5 -42.5t-16.5 -42.5t-45.5 -19zM287 1290q-29 0 -45.5 19t-16.5 42.5t16.5 42.5
t45.5 19t45.5 -19t16.5 -42.5t-16.5 -42.5t-45.5 -19z" />
    <glyph glyph-name="oslash" unicode="&#xf8;" 
d="M154 1044v-81q8 7 51 7t51 -7v81q0 67 -9.5 85t-41.5 18t-41.5 -18t-9.5 -85zM154 492q0 -67 9.5 -85t41.5 -18t41.5 18t9.5 85v102q-5 -5 -33.5 -22t-48.5 -37t-20 -43zM256 758q0 67 -9.5 84.5t-41.5 17.5t-41.5 -17.5t-9.5 -84.5v-103q5 5 33.5 22.5t48.5 37.5t20 43z
M256 205v82q-8 -7 -51 -7t-51 7v-82q0 -67 9.5 -85t41.5 -18t41.5 18t9.5 85zM358 1044v-839q0 -121 -33 -163t-120 -42t-120.5 42.5t-33.5 162.5v839q0 120 33.5 162.5t120.5 42.5t120 -42t33 -163z" />
    <glyph glyph-name="ugrave" unicode="&#xf9;" 
d="M256 1249v-757q0 -67 -9.5 -85t-41.5 -18t-41.5 18t-9.5 85v757h-103v-1044q0 -120 33.5 -162.5t120.5 -42.5t120 42t33 163v1044h-102zM154 205v82q8 -7 51 -7t51 7v-82q0 -67 -9.5 -85t-41.5 -18t-41.5 18t-9.5 85zM184 1290q1 0 -20 36l-42 72l-22 36h103l41 -123
q-2 -1 -5 -2t-11 -3.5t-15 -5l-14 -5t-11 -3.5z" />
    <glyph glyph-name="uacute" unicode="&#xfa;" 
d="M256 1249v-757q0 -67 -9.5 -85t-41.5 -18t-41.5 18t-9.5 85v757h-103v-1044q0 -120 33.5 -162.5t120.5 -42.5t120 42t33 163v1044h-102zM154 205v82q8 -7 51 -7t51 7v-82q0 -67 -9.5 -85t-41.5 -18t-41.5 18t-9.5 85zM309 1434l-84 -144l-59 21l41 123h102z" />
    <glyph glyph-name="ucircumflex" unicode="&#xfb;" 
d="M256 1249v-757q0 -67 -9.5 -85t-41.5 -18t-41.5 18t-9.5 85v757h-103v-1044q0 -120 33.5 -162.5t120.5 -42.5t120 42t33 163v1044h-102zM154 205v82q8 -7 51 -7t51 7v-82q0 -67 -9.5 -85t-41.5 -18t-41.5 18t-9.5 85zM287 1434l41 -123l-60 -21l-63 109l-64 -109l-59 21
l41 123h164z" />
    <glyph glyph-name="udieresis" unicode="&#xfc;" 
d="M256 1249v-757q0 -67 -9.5 -85t-41.5 -18t-41.5 18t-9.5 85v757h-103v-1044q0 -120 33.5 -162.5t120.5 -42.5t120 42t33 163v1044h-102zM154 205v82q8 -7 51 -7t51 7v-82q0 -67 -9.5 -85t-41.5 -18t-41.5 18t-9.5 85zM123 1290q-29 0 -45.5 19t-16.5 42.5t16.5 42.5
t45.5 19t45.5 -19t16.5 -42.5t-16.5 -42.5t-45.5 -19zM287 1290q-29 0 -45.5 19t-16.5 42.5t16.5 42.5t45.5 19t45.5 -19t16.5 -42.5t-16.5 -42.5t-45.5 -19z" />
    <glyph glyph-name="yacute" unicode="&#xfd;" 
d="M309 1434l-84 -144l-59 21l41 123h102zM358 1249v-1331q0 -121 -33 -163t-120 -42h-154v103h154q32 0 41.5 17.5t9.5 84.5v82q-123 0 -164 41t-41 164v1044h103v-757q0 -69 16.5 -86t85.5 -17v860h102zM256 102v185q-36 0 -61.5 2.5t-32.5 4.5l-8 3v-92q0 -69 16.5 -86
t85.5 -17z" />
    <glyph glyph-name="thorn" unicode="&#xfe;" 
d="M154 860v-471q69 0 85.5 17t16.5 86v266q0 69 -16.5 85.5t-85.5 16.5zM154 1147v-184q82 -1 102 -11v92q0 69 -16.5 86t-85.5 17zM154 102q69 0 85.5 17t16.5 86v92q-9 -4 -34.5 -6.5t-46.5 -2.5l-21 -1v-185zM358 1044v-839q0 -123 -40.5 -164t-163.5 -41v-287h-103
v1721h103v-185q123 0 163.5 -41t40.5 -164z" />
    <glyph glyph-name="ydieresis" unicode="&#xff;" 
d="M123 1290q-29 0 -45.5 19t-16.5 42.5t16.5 42.5t45.5 19t45.5 -19t16.5 -42.5t-16.5 -42.5t-45.5 -19zM287 1290q-29 0 -45.5 19t-16.5 42.5t16.5 42.5t45.5 19t45.5 -19t16.5 -42.5t-16.5 -42.5t-45.5 -19zM358 1249v-1331q0 -121 -33 -163t-120 -42h-154v103h154
q32 0 41.5 17.5t9.5 84.5v82q-123 0 -164 41t-41 164v1044h103v-757q0 -69 16.5 -86t85.5 -17v860h102zM256 102v185q-36 0 -61.5 2.5t-32.5 4.5l-8 3v-92q0 -69 16.5 -86t85.5 -17z" />
    <glyph glyph-name="Lslash" unicode="&#x141;" horiz-adv-x="512" 
d="M51 778v103q36 0 62 -2.5t33 -5.5l8 -3v359q0 123 40.5 164t163.5 41v-103q-69 0 -85.5 -16.5t-16.5 -85.5v-369q0 -69 16.5 -85.5t85.5 -16.5v-103q-36 0 -61.5 2.5t-32.5 5.5l-8 3v-236h205v-102h-205v-226h205v-102h-410v102q69 0 86 17t17 86v123h-103v102
q69 0 86 16.5t17 85.5v144q0 69 -17 85.5t-86 16.5z" />
    <glyph glyph-name="lslash" unicode="&#x142;" horiz-adv-x="460" 
d="M205 1434v-574q0 -69 16.5 -85.5t85.5 -16.5v-103q-36 0 -61.5 2.5t-33.5 5.5l-7 3v-174q0 -67 9.5 -85t41.5 -18h154v-102h-154q-14 0 -26.5 3t-18.5 5.5t-6 1.5v-92q0 -67 9.5 -85t41.5 -18h154v-102h-154q-87 0 -120.5 42.5t-33.5 162.5v471q0 69 -16.5 85.5
t-85.5 16.5v103q36 0 61.5 -2.5t32.5 -5.5l8 -3v564h103z" />
    <glyph glyph-name="Scaron" unicode="&#x160;" 
d="M256 543q0 -76 -16.5 -94.5t-85.5 -18.5h-103v-102h103q36 0 61.5 2.5t32.5 5.5l8 2v-113q0 -84 -16.5 -103.5t-85.5 -19.5h-103v-102h103q123 0 163.5 41t40.5 164v338q0 57 -21 100.5t-51 70.5t-60 51t-51 55.5t-21 70.5q0 62 16.5 77t85.5 15h102v102h-102
q-36 0 -61.5 -2.5t-32.5 -4.5l-8 -3v133q0 84 16.5 103.5t85.5 19.5h102v103h-102q-123 0 -164 -41t-41 -164v-338q0 -48 15 -88.5t38 -66t49.5 -50.5t49.5 -44t38 -45t15 -54zM328 1597l-41 -122h-164l-41 122l59 21l64 -109l63 109z" />
    <glyph glyph-name="scaron" unicode="&#x161;" 
d="M256 471q0 -54 -17 -68t-85 -14h-103v-102h103q36 0 61.5 2.5t32.5 4.5l8 3v-92q0 -69 -16.5 -86t-85.5 -17h-103v-102h103q123 0 163.5 41t40.5 164v266q0 57 -21 97t-51 62t-60 40.5t-51 45t-21 62.5q0 54 17 68t85 14h102v103h-102q-36 0 -61.5 -2.5t-32.5 -5.5l-8 -3
v92q0 69 16.5 86t85.5 17h102v102h-102q-123 0 -164 -41t-41 -164v-266q0 -48 15 -84.5t38 -56.5t49.5 -39.5t49.5 -33.5t38 -38t15 -55zM328 1413l-41 -123h-164l-41 123l59 21l64 -109l63 109z" />
    <glyph glyph-name="Ydieresis" unicode="&#x178;" 
d="M256 1434h102v-902q0 -48 -5 -82.5t-12.5 -54.5t-22.5 -34t-27.5 -20t-34.5 -13v-328h-102v328q-28 9 -43 18t-31 29.5t-22.5 59t-6.5 97.5v902h103v-574q0 -67 9.5 -84.5t41.5 -17.5t41.5 17.5t9.5 84.5v574zM205 430q32 0 41.5 17.5t9.5 84.5v123q-8 -7 -51 -7t-51 7
v-123q0 -67 9.5 -84.5t41.5 -17.5zM123 1475q-29 0 -45.5 19t-16.5 42t16.5 42t45.5 19t45.5 -19t16.5 -42t-16.5 -42t-45.5 -19zM287 1475q-29 0 -45.5 19t-16.5 42t16.5 42t45.5 19t45.5 -19t16.5 -42t-16.5 -42t-45.5 -19z" />
    <glyph glyph-name="Zcaron" unicode="&#x17d;" 
d="M256 1085h-205v-102h205v-102q0 -39 -21 -70.5t-51 -56t-60.5 -51.5t-51.5 -70.5t-21 -100.5v-532h307v102h-204v226h204v102h-204v102q0 33 21 63t51 55t60 54t51 74.5t21 102.5v553h-307v-103h205v-246zM328 1597l-41 -122h-164l-41 122l59 21l64 -109l63 109z" />
    <glyph glyph-name="zcaron" unicode="&#x17e;" 
d="M256 963h-205v-103h205v-61q0 -39 -21 -72.5t-51 -59.5t-60.5 -54t-51.5 -69.5t-21 -92.5v-451h307v102h-204v185h204v102h-204v62q0 34 21 65t51 58.5t60 57.5t51 73t21 94v450h-307v-102h205v-184zM328 1413l-41 -123h-164l-41 123l59 21l64 -109l63 109z" />
    <glyph glyph-name="circumflex" unicode="&#x2c6;" horiz-adv-x="348" 
d="M256 1434l41 -123l-59 -21l-64 109l-63 -109l-60 21l41 123h164z" />
    <glyph glyph-name="caron" unicode="&#x2c7;" horiz-adv-x="348" 
d="M297 1413l-41 -123h-164l-41 123l60 21l63 -109l64 109z" />
    <glyph glyph-name="breve" unicode="&#x2d8;" horiz-adv-x="368" 
d="M184 1352q37 0 49.5 8.5t12.5 32.5h71q0 -27 -3.5 -42.5t-16.5 -31t-40.5 -22.5t-72.5 -7t-72.5 7t-40.5 22.5t-16.5 31t-3.5 42.5h72q0 -24 12 -32.5t49 -8.5z" />
    <glyph glyph-name="dotaccent" unicode="&#x2d9;" horiz-adv-x="225" 
d="M113 1290q-29 0 -45.5 19t-16.5 42.5t16.5 42.5t45.5 19t45.5 -19t16.5 -42.5t-16.5 -42.5t-45.5 -19z" />
    <glyph glyph-name="ring" unicode="&#x2da;" horiz-adv-x="266" 
d="M133 1290q-38 0 -60 22t-22 60t22 60t60 22t60 -22t22 -60t-22 -60t-60 -22zM133 1331q14 0 22.5 12.5t8.5 28.5t-8.5 28.5t-22.5 12.5t-22.5 -12.5t-8.5 -28.5t8.5 -28.5t22.5 -12.5z" />
    <glyph glyph-name="ogonek" unicode="&#x2db;" horiz-adv-x="225" 
d="M133 20v-20q-41 0 -41 -41q0 -51 82 -51v-51q-64 0 -93.5 23.5t-29.5 58.5t20 58t62 23z" />
    <glyph glyph-name="tilde" unicode="&#x2dc;" horiz-adv-x="348" 
d="M225 1393q23 0 41 -5.5t24 -10.5l7 -5v-51h-72q-25 0 -51 -15.5t-51 -15.5q-23 0 -41 5t-24 11l-7 5v51h72q25 0 51 15.5t51 15.5z" />
    <glyph glyph-name="hungarumlaut" unicode="&#x2dd;" horiz-adv-x="389" 
d="M195 1434l-84 -144l-60 21l41 123h103zM338 1434l-84 -144l-59 21l41 123h102z" />
    <glyph glyph-name="uni0401" unicode="&#x401;" 
d="M123 1475q-29 0 -45.5 19t-16.5 42t16.5 42t45.5 19t45.5 -19t16.5 -42t-16.5 -42t-45.5 -19zM287 1475q-29 0 -45.5 19t-16.5 42t16.5 42t45.5 19t45.5 -19t16.5 -42t-16.5 -42t-45.5 -19zM154 860q0 84 16.5 103.5t85.5 19.5h102v102h-102q-36 0 -61.5 -2.5t-32.5 -4.5
l-8 -3v133q0 84 16.5 103.5t85.5 19.5h102v103h-102q-123 0 -164 -41t-41 -164v-1024q0 -123 41 -164t164 -41h102v102h-102q-69 0 -85.5 19.5t-16.5 103.5v113q20 -10 102 -10h102v102h-102q-69 0 -85.5 19.5t-16.5 103.5v102h102v103h-102v102z" />
    <glyph glyph-name="uni0404" unicode="&#x404;" 
d="M154 655v-225h102v-102h-102v-123q0 -69 16.5 -86t85.5 -17h102v-102h-102q-123 0 -164 41t-41 164v1024q0 123 41 164t164 41h102v-103h-102q-69 0 -85.5 -16.5t-16.5 -85.5v-144h102v-102h-102v-225h102v-103h-102z" />
    <glyph glyph-name="uni0410" unicode="&#x410;" 
d="M154 1229v-154q9 4 34.5 6.5t46.5 2.5l21 1v246q-26 0 -43 -1.5t-28.5 -7.5t-17.5 -11t-9 -20t-3.5 -25.5t-0.5 -36.5zM358 1434v-1434h-102v328h-102v-328h-103v1229q0 49 3.5 79.5t17.5 55t32.5 37t56.5 21t81.5 10.5t115.5 2zM154 655v-225h102v225h-102zM154 881
v-123h102v225q-62 0 -82 -20.5t-20 -81.5z" />
    <glyph glyph-name="uni0411" unicode="&#x411;" 
d="M358 1331h-204v-246q123 0 163.5 -40.5t40.5 -163.5v-676q0 -123 -40.5 -164t-163.5 -41h-103v1434h307v-103zM256 532v21q0 69 -16.5 85.5t-85.5 16.5v-225q69 0 85.5 16.5t16.5 85.5zM154 102q69 0 85.5 17t16.5 86v133q-20 -10 -102 -10v-226zM154 758q36 0 61.5 -2.5
t32.5 -5.5l8 -2v133q0 69 -16.5 85.5t-85.5 16.5v-225z" />
    <glyph glyph-name="uni0412" unicode="&#x412;" 
d="M154 328v-226q69 0 85.5 17t16.5 86v20q0 69 -16.5 86t-85.5 17zM256 553q0 69 -16.5 85.5t-85.5 16.5v-225q69 0 85.5 16.5t16.5 85.5v21zM256 881q0 69 -16.5 85.5t-85.5 16.5v-225q69 0 85.5 16.5t16.5 85.5v21zM154 1331v-246q69 0 85.5 17t16.5 86v41
q0 69 -16.5 85.5t-85.5 16.5zM358 1229v-41q0 -123 -51 -154q51 -31 51 -153v-21q0 -122 -51 -153q51 -31 51 -154v-21q0 -122 -51 -153q51 -31 51 -154v-20q0 -123 -40.5 -164t-163.5 -41h-103v1434h103q122 0 163 -42.5t41 -162.5z" />
    <glyph glyph-name="uni0413" unicode="&#x413;" 
d="M358 1434v-103h-204v-246h204v-102h-204v-983h-103v1434h307z" />
    <glyph glyph-name="uni0414" unicode="&#x414;" horiz-adv-x="450" 
d="M276 102v226h-102v-226h102zM276 430v553q-62 0 -82 -20.5t-20 -81.5v-451h102zM174 1229v-154q9 4 34.5 6.5t46.5 2.5l21 1v246q-26 0 -43 -1.5t-28.5 -7.5t-17.5 -11t-9 -20t-3.5 -25.5t-0.5 -36.5zM379 1434v-1004h41v-102h-41v-226h41v-102h-389v102h41v226h-41v100
h41v801q0 49 3.5 79.5t17.5 55t32.5 37t56.5 21t81.5 10.5t115.5 2z" />
    <glyph glyph-name="uni0415" unicode="&#x415;" 
d="M154 860v-102h102v-103h-102v-102q0 -84 16.5 -103.5t85.5 -19.5h102v-102h-102q-36 0 -61.5 2.5t-32.5 5.5l-8 2v-113q0 -84 16.5 -103.5t85.5 -19.5h102v-102h-102q-123 0 -164 41t-41 164v1024q0 123 41 164t164 41h102v-103h-102q-69 0 -85.5 -19.5t-16.5 -103.5
v-133q20 10 102 10h102v-102h-102q-69 0 -85.5 -19.5t-16.5 -103.5z" />
    <glyph glyph-name="uni0416" unicode="&#x416;" horiz-adv-x="614" 
d="M563 1188q0 -123 -51 -154q51 -31 51 -153v-349q0 -122 -51 -153q24 -14 36 -44.5t13.5 -52t1.5 -57.5v-225h-102v225q0 69 -17 86t-86 17v-328h-102v328q-69 0 -85.5 -17t-16.5 -86v-225h-103v225q0 123 51 154q-51 31 -51 153v349q0 122 51 153q-51 31 -51 154v246h103
v-246q0 -69 16.5 -86t85.5 -17v349h102v-349q69 0 86 17t17 86v246h102v-246zM256 430v553q-69 0 -85.5 -16.5t-16.5 -85.5v-349q0 -69 16.5 -85.5t85.5 -16.5zM461 532v349q0 69 -17 85.5t-86 16.5v-553q69 0 86 16.5t17 85.5z" />
    <glyph glyph-name="uni0417" unicode="&#x417;" 
d="M256 553q0 69 -16.5 85.5t-85.5 16.5v103q69 0 85.5 16.5t16.5 85.5v21q0 69 -16.5 85.5t-85.5 16.5h-103v102h103q36 0 61.5 -2.5t32.5 -4.5l8 -3v133q0 84 -16.5 103.5t-85.5 19.5h-103v103h103q123 0 163.5 -41t40.5 -164v-369q0 -122 -51 -153q51 -31 51 -154v-348
q0 -123 -40.5 -164t-163.5 -41h-103v102h103q69 0 85.5 19.5t16.5 103.5v113q-20 -10 -102 -10h-103v102h103q69 0 85.5 16.5t16.5 85.5v21z" />
    <glyph glyph-name="uni0418" unicode="&#x418;" 
d="M51 1434h103v-369q5 5 33.5 22t48.5 37t20 43v267h102v-1434h-102v348q-5 -5 -33.5 -22t-48.5 -37t-20 -43v-246h-103v1434zM256 512v492q-5 -5 -33.5 -22.5t-48.5 -37.5t-20 -43v-491q5 5 33.5 22t48.5 37t20 43z" />
    <glyph glyph-name="uni0419" unicode="&#x419;" 
d="M205 1536q37 0 49 8.5t12 32.5h72q0 -27 -3.5 -42.5t-16.5 -31t-40.5 -22t-72.5 -6.5t-72.5 6.5t-40.5 22t-16.5 31t-3.5 42.5h71q0 -24 12.5 -32.5t49.5 -8.5zM154 1434h-103v-1434h103v246q0 23 20 43t48.5 37t33.5 22v-348h102v1434h-102v-267q0 -23 -20 -43
t-48.5 -37t-33.5 -22v369zM256 1004v-492q0 -23 -20 -43t-48.5 -37t-33.5 -22v491q0 23 20 43t48.5 37.5t33.5 22.5z" />
    <glyph glyph-name="uni041A" unicode="&#x41a;" 
d="M307 1034q51 -31 51 -153v-349q0 -122 -51 -153q51 -31 51 -154v-225h-102v225q0 69 -16.5 86t-85.5 17v-328h-103v1434h103v-349q69 0 85.5 17t16.5 86v246h102v-246q0 -123 -51 -154zM256 532v349q0 69 -16.5 85.5t-85.5 16.5v-553q69 0 85.5 16.5t16.5 85.5z" />
    <glyph glyph-name="uni041B" unicode="&#x41b;" 
d="M358 1434v-1434h-102v983q-62 0 -82 -20.5t-20 -81.5v-881h-103v1229q0 49 3.5 79.5t17.5 55t32.5 37t56.5 21t81.5 10.5t115.5 2zM154 1229v-154q9 4 34.5 6.5t46.5 2.5l21 1v246q-26 0 -43 -1.5t-28.5 -7.5t-17.5 -11t-9 -20t-3.5 -25.5t-0.5 -36.5z" />
    <glyph glyph-name="uni041C" unicode="&#x41c;" horiz-adv-x="614" 
d="M461 0v881q0 67 -9.5 84.5t-41.5 17.5q-29 0 -40 -14t-12 -64v-803h-102v779q0 67 -9.5 84.5t-41.5 17.5t-41.5 -17.5t-9.5 -84.5v-881h-103v1229q0 120 33.5 162.5t120.5 42.5q67 0 102 -25q35 25 103 25q87 0 120 -42t33 -163v-1229h-102zM358 1229v-144q8 7 52 7
t51 -7v144q0 67 -9.5 84.5t-41.5 17.5q-30 0 -40.5 -14t-11.5 -66v-22zM154 1229v-144q8 7 51 7t51 -7v144q0 67 -9.5 84.5t-41.5 17.5t-41.5 -17.5t-9.5 -84.5z" />
    <glyph glyph-name="uni041D" unicode="&#x41d;" 
d="M51 1434h103v-349h102v349h102v-1434h-102v328h-102v-328h-103v1434zM256 430v553h-102v-553h102z" />
    <glyph glyph-name="uni041E" unicode="&#x41e;" 
d="M154 1229v-144q8 7 51 7t51 -7v144q0 67 -9.5 84.5t-41.5 17.5t-41.5 -17.5t-9.5 -84.5zM154 881v-349q0 -67 9.5 -84.5t41.5 -17.5t41.5 17.5t9.5 84.5v349q0 67 -9.5 84.5t-41.5 17.5t-41.5 -17.5t-9.5 -84.5zM256 205v123q-8 -8 -51 -8t-51 8v-123q0 -67 9.5 -85
t41.5 -18t41.5 18t9.5 85zM358 1229v-1024q0 -121 -33 -163t-120 -42t-120.5 42.5t-33.5 162.5v1024q0 120 33.5 162.5t120.5 42.5t120 -42t33 -163z" />
    <glyph glyph-name="uni041F" unicode="&#x41f;" 
d="M256 1331h-102v-246h102v246zM256 0v983h-102v-983h-103v1434h307v-1434h-102z" />
    <glyph glyph-name="uni0420" unicode="&#x420;" 
d="M154 983v-225q69 0 85.5 16.5t16.5 85.5v21q0 69 -16.5 85.5t-85.5 16.5zM154 1331v-246q36 0 61.5 -2.5t32.5 -4.5l8 -3v154q0 69 -16.5 85.5t-85.5 16.5zM154 430q69 0 85.5 16.5t16.5 85.5v134q-20 -11 -102 -11v-225zM358 1229v-697q0 -123 -40.5 -163.5
t-163.5 -40.5v-328h-103v1434h103q123 0 163.5 -41t40.5 -164z" />
    <glyph glyph-name="uni0421" unicode="&#x421;" 
d="M154 860v-307q0 -84 16.5 -103.5t85.5 -19.5h102v-102h-102q-36 0 -61.5 2.5t-32.5 5.5l-8 2v-113q0 -84 16.5 -103.5t85.5 -19.5h102v-102h-102q-123 0 -164 41t-41 164v1024q0 123 41 164t164 41h102v-103h-102q-69 0 -85.5 -19.5t-16.5 -103.5v-133q20 10 102 10h102
v-102h-102q-69 0 -85.5 -19.5t-16.5 -103.5z" />
    <glyph glyph-name="uni0422" unicode="&#x422;" 
d="M358 1434v-103h-102v-246h102v-102h-102v-983h-102v983h-103v102h103v246h-103v103h307z" />
    <glyph glyph-name="uni0423" unicode="&#x423;" 
d="M358 1434v-1229q0 -121 -33 -163t-120 -42h-154v102h154q32 0 41.5 18t9.5 85v123q-123 0 -164 40.5t-41 163.5v902h103v-574q0 -69 16.5 -85.5t85.5 -16.5v676h102zM256 430v225q-36 0 -61.5 2.5t-32.5 5.5l-8 3v-134q0 -69 16.5 -85.5t85.5 -16.5z" />
    <glyph glyph-name="uni0424" unicode="&#x424;" horiz-adv-x="614" 
d="M51 205v1024q0 123 41 164t164 41v102h102v-102q123 0 164 -41t41 -164v-1024q0 -123 -41 -164t-164 -41v-102h-102v102q-123 0 -164 41t-41 164zM358 1331v-246q37 0 63 -2.5t33 -4.5l7 -3v154q0 69 -17 85.5t-86 16.5zM154 1229v-154q20 10 102 10v246
q-69 0 -85.5 -16.5t-16.5 -85.5zM358 102q69 0 86 17t17 86v133q-21 -10 -103 -10v-226zM154 338v-133q0 -69 16.5 -86t85.5 -17v226q-36 0 -61.5 2.5t-32.5 5.5zM461 532v349q0 69 -17 85.5t-86 16.5v-553q69 0 86 16.5t17 85.5zM256 983q-69 0 -85.5 -16.5t-16.5 -85.5
v-349q0 -69 16.5 -85.5t85.5 -16.5v553z" />
    <glyph glyph-name="uni0425" unicode="&#x425;" 
d="M256 225q0 67 -9.5 85t-41.5 18t-41.5 -18t-9.5 -85v-225h-103v225q0 123 51 154q-51 31 -51 153v349q0 122 51 153q-51 31 -51 154v246h103v-246q0 -67 9.5 -85t41.5 -18t41.5 18t9.5 85v246h102v-246q0 -123 -51 -154q51 -31 51 -153v-349q0 -122 -51 -153
q51 -31 51 -154v-225h-102v225zM256 881q0 67 -9.5 84.5t-41.5 17.5t-41.5 -17.5t-9.5 -84.5v-349q0 -67 9.5 -84.5t41.5 -17.5t41.5 17.5t9.5 84.5v349z" />
    <glyph glyph-name="uni0426" unicode="&#x426;" horiz-adv-x="440" 
d="M51 0v1434h103v-1004h102v1004h102v-1004h52v-102h-52v-226h52v-102h-359zM256 102v226h-102v-226h102z" />
    <glyph glyph-name="uni0427" unicode="&#x427;" 
d="M358 1434v-1434h-102v328q-123 0 -164 40.5t-41 163.5v902h103v-574q0 -69 16.5 -85.5t85.5 -16.5v676h102zM256 430v225q-36 0 -61.5 2.5t-32.5 5.5l-8 3v-134q0 -69 16.5 -85.5t85.5 -16.5z" />
    <glyph glyph-name="uni0428" unicode="&#x428;" horiz-adv-x="614" 
d="M563 0h-512v1434h103v-1004h102v1004h102v-1004h103v1004h102v-1434zM461 102v226h-103v-226h103zM256 102v226h-102v-226h102z" />
    <glyph glyph-name="uni0429" unicode="&#x429;" horiz-adv-x="645" 
d="M614 0h-563v1434h103v-1004h102v1004h102v-1004h103v1004h102v-1004h51v-102h-51v-226h51v-102zM461 102v226h-103v-226h103zM256 102v226h-102v-226h102z" />
    <glyph glyph-name="uni042A" unicode="&#x42a;" horiz-adv-x="430" 
d="M31 1434h143v-349q123 0 164 -40.5t41 -163.5v-676q0 -123 -41 -164t-164 -41h-102v1331h-41v103zM276 532v21q0 69 -16.5 85.5t-85.5 16.5v-225q69 0 85.5 16.5t16.5 85.5zM174 102q69 0 85.5 17t16.5 86v133q-20 -10 -102 -10v-226zM174 758q37 0 62 -3t32.5 -5.5
t7.5 -4.5v136q0 69 -16.5 85.5t-85.5 16.5v-225z" />
    <glyph glyph-name="uni042B" unicode="&#x42b;" horiz-adv-x="614" 
d="M563 0h-102v1434h102v-1434zM51 1434h103v-349q123 0 163.5 -40.5t40.5 -163.5v-676q0 -123 -40.5 -164t-163.5 -41h-103v1434zM256 532v21q0 69 -16.5 85.5t-85.5 16.5v-225q69 0 85.5 16.5t16.5 85.5zM154 102q69 0 85.5 17t16.5 86v133q-20 -10 -102 -10v-226z
M154 758q37 0 62 -3t32.5 -5.5t7.5 -4.5v136q0 69 -16.5 85.5t-85.5 16.5v-225z" />
    <glyph glyph-name="uni042C" unicode="&#x42c;" 
d="M51 1434h103v-349q123 0 163.5 -40.5t40.5 -163.5v-676q0 -123 -40.5 -164t-163.5 -41h-103v1434zM256 532v21q0 69 -16.5 85.5t-85.5 16.5v-225q69 0 85.5 16.5t16.5 85.5zM154 102q69 0 85.5 17t16.5 86v133q-20 -10 -102 -10v-226zM154 758q37 0 62 -3t32.5 -5.5
t7.5 -4.5v136q0 69 -16.5 85.5t-85.5 16.5v-225z" />
    <glyph glyph-name="uni042D" unicode="&#x42d;" 
d="M256 532v123h-102v103h102v123q0 69 -16.5 85.5t-85.5 16.5h-103v102h103q36 0 61.5 -2.5t32.5 -4.5l8 -3v154q0 69 -16.5 85.5t-85.5 16.5h-103v103h103q123 0 163.5 -41t40.5 -164v-1024q0 -123 -40.5 -164t-163.5 -41h-103v102h103q69 0 85.5 17t16.5 86v133
q-20 -10 -102 -10h-103v102h103q69 0 85.5 16.5t16.5 85.5z" />
    <glyph glyph-name="uni042E" unicode="&#x42e;" horiz-adv-x="614" 
d="M563 1229v-1024q0 -121 -33 -163t-120 -42t-120.5 42.5t-33.5 162.5v450h-102v-655h-103v1434h103v-676h102v471q0 120 33.5 162.5t120.5 42.5t120 -42t33 -163zM358 881v-349q0 -67 10 -84.5t42 -17.5t41.5 17.5t9.5 84.5v349q0 67 -9.5 84.5t-41.5 17.5t-42 -17.5
t-10 -84.5zM358 1229v-144q8 7 52 7t51 -7v144q0 67 -9.5 84.5t-41.5 17.5t-42 -17.5t-10 -84.5zM461 205v123q-7 -8 -51 -8t-52 8v-123q0 -67 10 -85t42 -18t41.5 18t9.5 85z" />
    <glyph glyph-name="uni042F" unicode="&#x42f;" 
d="M358 1434v-1434h-102v328q-69 0 -85.5 -17t-16.5 -86v-225h-103v225q0 123 51 154q-51 31 -51 153v21q0 123 51 154q-51 31 -51 153v21q0 122 51 153q-51 31 -51 154v41q0 123 41 164t164 41h102zM256 430v225q-69 0 -85.5 -16.5t-16.5 -85.5v-21q0 -69 16.5 -85.5
t85.5 -16.5zM256 758v225q-69 0 -85.5 -16.5t-16.5 -85.5v-21q0 -69 16.5 -85.5t85.5 -16.5zM154 1229v-41q0 -69 16.5 -86t85.5 -17v246q-69 0 -85.5 -16.5t-16.5 -85.5z" />
    <glyph glyph-name="uni0430" unicode="&#x430;" 
d="M51 205v266q0 123 41 164t164 41v82q0 67 -9.5 84.5t-41.5 17.5h-154v103h154q14 0 26.5 -2.5t18.5 -5.5l6 -3v92q0 67 -9.5 85t-41.5 18h-154v102h154q87 0 120 -42t33 -163v-1044h-102q-123 0 -164 41t-41 164zM256 389v184q-69 0 -85.5 -15t-16.5 -77t16.5 -77
t85.5 -15zM256 102v185q-82 0 -102 10v-92q0 -69 16.5 -86t85.5 -17z" />
    <glyph glyph-name="uni0431" unicode="&#x431;" 
d="M51 205v1126q0 123 41 164t164 41h102v-102h-102q-69 0 -85.5 -17t-16.5 -86v-82q123 0 163.5 -41t40.5 -164v-839q0 -121 -33 -163t-120 -42t-120.5 42.5t-33.5 162.5zM256 758q0 69 -16.5 85.5t-85.5 16.5v-471q69 0 85.5 17t16.5 86v266zM154 287v-82q0 -67 9.5 -85
t41.5 -18t41.5 18t9.5 85v92q-9 -4 -34.5 -6.5t-46.5 -2.5zM154 963q82 -1 102 -13v94q0 69 -16.5 86t-85.5 17v-184z" />
    <glyph glyph-name="uni0432" unicode="&#x432;" 
d="M154 287v-185q69 0 85.5 15.5t16.5 77.5t-16.5 77t-85.5 15zM256 481q0 62 -16.5 77t-85.5 15v-184q69 0 85.5 15t16.5 77zM256 768q0 62 -16.5 77t-85.5 15v-184q69 0 85.5 15t16.5 77zM154 1147v-184q69 0 85.5 15t16.5 77t-16.5 77t-85.5 15zM358 1055
q0 -113 -51 -144q51 -31 51 -143t-51 -143q51 -31 51 -144q0 -112 -51 -143q51 -31 51 -143q0 -116 -41 -155.5t-163 -39.5h-103v1249h103q123 0 163.5 -39t40.5 -155z" />
    <glyph glyph-name="uni0433" unicode="&#x433;" 
d="M358 1249v-102h-204v-184h204v-103h-204v-860h-103v1249h307z" />
    <glyph glyph-name="uni0434" unicode="&#x434;" 
d="M358 1331v-1126q0 -121 -33 -163t-120 -42t-120.5 42.5t-33.5 162.5v839q0 123 41 164t164 41v82q0 69 -16.5 86t-85.5 17h-103v102h103q123 0 163.5 -41t40.5 -164zM154 758v-266q0 -69 16.5 -86t85.5 -17v471q-69 0 -85.5 -16.5t-16.5 -85.5zM256 205v82q-82 0 -102 10
v-92q0 -67 9.5 -85t41.5 -18t41.5 18t9.5 85zM256 963v184q-69 0 -85.5 -17t-16.5 -86v-94q9 5 34.5 8.5t46.5 3.5z" />
    <glyph glyph-name="uni0435" unicode="&#x435;" 
d="M358 102v-102h-153q-87 0 -120.5 42.5t-33.5 162.5v839q0 120 33.5 162.5t120.5 42.5t120 -42t33 -163v-286q0 -106 -33.5 -145.5t-119.5 -39.5h-51v-81q0 -67 9.5 -85t41.5 -18h153v-102h-153q-14 0 -26.5 2.5t-18.5 4.5l-6 3v-92q0 -67 9.5 -85t41.5 -18h153zM205 676
q32 0 41.5 14.5t9.5 67.5q0 67 -9.5 84.5t-41.5 17.5t-41.5 -17.5t-9.5 -84.5v-82h51zM154 963q8 7 51 7t51 -7v81q0 67 -9.5 85t-41.5 18t-41.5 -18t-9.5 -85v-81z" />
    <glyph glyph-name="uni0436" unicode="&#x436;" horiz-adv-x="614" 
d="M563 1249v-164q0 -143 -51 -174q51 -31 51 -153v-266q0 -123 -51 -154q51 -31 51 -154v-184h-102v184q0 69 -17 86t-86 17v-287h-102v287q-69 0 -85.5 -17t-16.5 -86v-184h-103v184q0 123 51 154q-51 31 -51 154v266q0 122 51 153q-51 31 -51 174v164h103v-164
q0 -84 16 -103t86 -19v286h102v-286q70 0 86.5 19t16.5 103v164h102zM256 389v471q-69 0 -85.5 -16.5t-16.5 -85.5v-266q0 -69 16.5 -86t85.5 -17zM461 492v266q0 69 -17 85.5t-86 16.5v-471q69 0 86 17t17 86z" />
    <glyph glyph-name="uni0437" unicode="&#x437;" 
d="M256 481q0 62 -16.5 77t-85.5 15v103q69 0 85.5 15t16.5 77t-16.5 77t-85.5 15h-103v103h103q36 0 61.5 -2.5t32.5 -5.5l8 -3v72q0 84 -16.5 103.5t-85.5 19.5h-103v102h103q123 0 163.5 -41t40.5 -164v-276q0 -112 -51 -143q51 -31 51 -144v-276q0 -123 -40.5 -164
t-163.5 -41h-103v102h103q69 0 85.5 19.5t16.5 103.5v72q-20 -10 -102 -10h-103v102h103q72 0 87 12.5t15 79.5z" />
    <glyph glyph-name="uni0438" unicode="&#x438;" 
d="M51 1249h103v-307q5 5 33.5 22t48.5 37t20 43v205h102v-1249h-102v307q-5 -5 -33.5 -22t-48.5 -37t-20 -43v-205h-103v1249zM256 471v410q-5 -5 -33.5 -22.5t-48.5 -37.5t-20 -43v-409q5 5 33.5 22t48.5 37t20 43z" />
    <glyph glyph-name="uni0439" unicode="&#x439;" 
d="M205 1352q37 0 49 8.5t12 32.5h72q0 -27 -3.5 -42.5t-16.5 -31t-40.5 -22.5t-72.5 -7t-72.5 7t-40.5 22.5t-16.5 31t-3.5 42.5h71q0 -24 12.5 -32.5t49.5 -8.5zM154 1249h-103v-1249h103v205q0 23 20 43t48.5 37t33.5 22v-307h102v1249h-102v-205q0 -23 -20 -43
t-48.5 -37t-33.5 -22v307zM256 881v-410q0 -23 -20 -43t-48.5 -37t-33.5 -22v409q0 23 20 43t48.5 37.5t33.5 22.5z" />
    <glyph glyph-name="uni043A" unicode="&#x43a;" 
d="M256 1249h102v-184q0 -123 -51 -154q51 -31 51 -153v-266q0 -123 -51 -154q51 -31 51 -154v-184h-102v184q0 69 -16.5 86t-85.5 17v-287h-103v1249h103v-286q69 0 85.5 16.5t16.5 85.5v184zM256 492v266q0 69 -16.5 85.5t-85.5 16.5v-471q69 0 85.5 17t16.5 86z" />
    <glyph glyph-name="uni043B" unicode="&#x43b;" 
d="M358 1249v-1249h-102v860q-69 0 -85.5 -16.5t-16.5 -85.5v-758h-103v1044q0 109 43.5 157t161.5 48h102zM154 1044v-92q9 4 34.5 7t46.5 3l21 1v184q-69 0 -85.5 -17t-16.5 -86z" />
    <glyph glyph-name="uni043C" unicode="&#x43c;" horiz-adv-x="614" 
d="M461 0v758q0 67 -9.5 84.5t-41.5 17.5q-29 0 -40 -14t-12 -64v-680h-102v656q0 67 -9.5 84.5t-41.5 17.5t-41.5 -17.5t-9.5 -84.5v-758h-103v1044q0 120 33.5 162.5t120.5 42.5q69 0 102 -24q33 24 103 24q87 0 120 -42t33 -163v-1044h-102zM358 1044v-81q8 7 52 7t51 -7
v81q0 67 -9.5 85t-41.5 18q-30 0 -40.5 -14t-11.5 -66v-23zM154 1044v-81q8 7 51 7t51 -7v81q0 67 -9.5 85t-41.5 18t-41.5 -18t-9.5 -85z" />
    <glyph glyph-name="uni043D" unicode="&#x43d;" 
d="M358 1249v-1249h-102v287h-102v-287h-103v1249h103v-286h102v286h102zM256 389v471h-102v-471h102z" />
    <glyph glyph-name="uni043E" unicode="&#x43e;" 
d="M154 1044v-81q8 7 51 7t51 -7v81q0 67 -9.5 85t-41.5 18t-41.5 -18t-9.5 -85zM154 758v-266q0 -67 9.5 -85t41.5 -18t41.5 18t9.5 85v266q0 67 -9.5 84.5t-41.5 17.5t-41.5 -17.5t-9.5 -84.5zM256 205v82q-8 -7 -51 -7t-51 7v-82q0 -67 9.5 -85t41.5 -18t41.5 18t9.5 85z
M358 1044v-839q0 -121 -33 -163t-120 -42t-120.5 42.5t-33.5 162.5v839q0 120 33.5 162.5t120.5 42.5t120 -42t33 -163z" />
    <glyph glyph-name="uni043F" unicode="&#x43f;" 
d="M358 1249v-1249h-102v860h-102v-860h-103v1249h307zM256 963v184h-102v-184h102z" />
    <glyph glyph-name="uni0440" unicode="&#x440;" 
d="M154 860v-471q69 0 85.5 17t16.5 86v266q0 69 -16.5 85.5t-85.5 16.5zM154 1147v-184q82 -1 102 -11v92q0 69 -16.5 86t-85.5 17zM154 102q69 0 85.5 17t16.5 86v92q-9 -4 -34.5 -6.5t-46.5 -2.5l-21 -1v-185zM358 1044v-839q0 -123 -40.5 -164t-163.5 -41v-287h-103
v1536h103q123 0 163.5 -41t40.5 -164z" />
    <glyph glyph-name="uni0441" unicode="&#x441;" 
d="M154 758v-266q0 -68 17 -85.5t85 -17.5h102v-102h-102q-36 0 -61.5 2.5t-32.5 4.5l-8 3v-92q0 -69 16.5 -86t85.5 -17h102v-102h-102q-123 0 -164 41t-41 164v839q0 123 41 164t164 41h102v-102h-102q-69 0 -85.5 -17t-16.5 -86v-92q20 11 102 11h102v-103h-102
q-69 0 -85.5 -16.5t-16.5 -85.5z" />
    <glyph glyph-name="uni0442" unicode="&#x442;" 
d="M358 1249v-102h-102v-184h102v-103h-102v-860h-102v860h-103v103h103v184h-103v102h307z" />
    <glyph glyph-name="uni0443" unicode="&#x443;" 
d="M358 1249v-1331q0 -121 -33 -163t-120 -42h-154v103h154q32 0 41.5 17.5t9.5 84.5v82q-123 0 -164 41t-41 164v1044h103v-757q0 -69 16.5 -86t85.5 -17v860h102zM256 102v185q-36 0 -61.5 2.5t-32.5 4.5l-8 3v-92q0 -69 16.5 -86t85.5 -17z" />
    <glyph glyph-name="uni0444" unicode="&#x444;" horiz-adv-x="614" 
d="M51 205v839q0 123 41 164t164 41v103h102v-103q123 0 164 -41t41 -164v-839q0 -123 -41 -164t-164 -41v-287h-102v287q-123 0 -164 41t-41 164zM358 1147v-184q36 0 62 -2.5t34 -5.5l7 -3v92q0 69 -17 86t-86 17zM154 1044v-92q20 11 102 11v184q-69 0 -85.5 -17
t-16.5 -86zM358 102q69 0 86 17t17 86v92q-21 -10 -103 -10v-185zM154 297v-92q0 -69 16.5 -86t85.5 -17v185q-36 0 -61.5 2.5t-32.5 4.5zM461 492v266q0 69 -17 85.5t-86 16.5v-471q69 0 86 17t17 86zM256 860q-69 0 -85.5 -16.5t-16.5 -85.5v-266q0 -69 16.5 -86t85.5 -17
v471z" />
    <glyph glyph-name="uni0445" unicode="&#x445;" 
d="M256 184q0 67 -9.5 85t-41.5 18t-41.5 -18t-9.5 -85v-184h-103v184q0 123 51 154q-51 31 -51 154v266q0 122 51 153q-51 31 -51 154v184h103v-184q0 -67 9.5 -84.5t41.5 -17.5t41.5 17.5t9.5 84.5v184h102v-184q0 -123 -51 -154q51 -31 51 -153v-266q0 -123 -51 -154
q51 -31 51 -154v-184h-102v184zM256 758q0 67 -9.5 84.5t-41.5 17.5t-41.5 -17.5t-9.5 -84.5v-266q0 -67 9.5 -85t41.5 -18t41.5 18t9.5 85v266z" />
    <glyph glyph-name="uni0446" unicode="&#x446;" horiz-adv-x="430" 
d="M399 0h-348v1249h103v-860h102v860h102v-860h41v-102h-41v-185h41v-102zM256 102v185h-102v-185h102z" />
    <glyph glyph-name="uni0447" unicode="&#x447;" 
d="M256 1249h102v-1249h-102v287q-123 0 -164 41t-41 164v757h103v-471q0 -69 16.5 -85.5t85.5 -16.5v573zM256 389v184q-36 0 -61.5 2.5t-32.5 5.5l-8 3v-92q0 -69 16.5 -86t85.5 -17z" />
    <glyph glyph-name="uni0448" unicode="&#x448;" horiz-adv-x="614" 
d="M563 0h-512v1249h103v-860h102v860h102v-860h103v860h102v-1249zM461 102v185h-103v-185h103zM256 102v185h-102v-185h102z" />
    <glyph glyph-name="uni0449" unicode="&#x449;" horiz-adv-x="634" 
d="M604 0h-553v1249h103v-860h102v860h102v-860h103v860h102v-860h41v-102h-41v-185h41v-102zM461 102v185h-103v-185h103zM256 102v185h-102v-185h102z" />
    <glyph glyph-name="uni044A" unicode="&#x44a;" horiz-adv-x="430" 
d="M31 1249h143v-286q123 0 164 -41t41 -164v-553q0 -123 -41 -164t-164 -41h-102v1147h-41v102zM276 481q0 62 -16.5 77t-85.5 15v-184q69 0 85.5 15t16.5 77zM174 102q69 0 85.5 17t16.5 86v92q-20 -10 -102 -10v-185zM174 676q36 0 61.5 -2.5t32.5 -5.5l8 -2v92
q0 69 -16.5 85.5t-85.5 16.5v-184z" />
    <glyph glyph-name="uni044B" unicode="&#x44b;" horiz-adv-x="614" 
d="M461 1249h102v-1249h-102v1249zM51 1249h103v-286q123 0 163.5 -41t40.5 -164v-553q0 -123 -40.5 -164t-163.5 -41h-103v1249zM256 481q0 62 -16.5 77t-85.5 15v-184q69 0 85.5 15t16.5 77zM154 102q69 0 85.5 17t16.5 86v92q-20 -10 -102 -10v-185zM154 676
q36 0 61.5 -2.5t32.5 -5.5l8 -2v92q0 69 -16.5 85.5t-85.5 16.5v-184z" />
    <glyph glyph-name="uni044C" unicode="&#x44c;" 
d="M51 1249h103v-286q123 0 163.5 -41t40.5 -164v-553q0 -123 -40.5 -164t-163.5 -41h-103v1249zM256 481q0 62 -16.5 77t-85.5 15v-184q69 0 85.5 15t16.5 77zM154 102q69 0 85.5 17t16.5 86v92q-20 -10 -102 -10v-185zM154 676q36 0 61.5 -2.5t32.5 -5.5l8 -2v92
q0 69 -16.5 85.5t-85.5 16.5v-184z" />
    <glyph glyph-name="uni044D" unicode="&#x44d;" 
d="M256 492v81h-102v103h102v82q0 69 -16.5 85.5t-85.5 16.5h-103v103h103q36 0 61.5 -2.5t32.5 -5.5l8 -3v92q0 69 -16.5 86t-85.5 17h-103v102h103q123 0 163.5 -41t40.5 -164v-839q0 -123 -40.5 -164t-163.5 -41h-103v102h103q69 0 85.5 17t16.5 86v92q-20 -10 -102 -10
h-103v102h103q69 0 85.5 17t16.5 86z" />
    <glyph glyph-name="uni044E" unicode="&#x44e;" horiz-adv-x="614" 
d="M563 1044v-839q0 -121 -33 -163t-120 -42t-120.5 42.5t-33.5 162.5v368h-102v-573h-103v1249h103v-573h102v368q0 120 33.5 162.5t120.5 42.5t120 -42t33 -163zM358 758v-266q0 -67 10 -85t42 -18t41.5 18t9.5 85v266q0 67 -9.5 84.5t-41.5 17.5t-42 -17.5t-10 -84.5z
M358 1044v-81q8 7 52 7t51 -7v81q0 67 -9.5 85t-41.5 18t-42 -18t-10 -85zM461 205v82q-7 -7 -51 -7t-52 7v-82q0 -67 10 -85t42 -18t41.5 18t9.5 85z" />
    <glyph glyph-name="uni044F" unicode="&#x44f;" 
d="M358 1249v-1249h-102v287q-69 0 -85.5 -17t-16.5 -86v-184h-103v184q0 123 51 154q-51 31 -51 143q0 113 51 144q-51 31 -51 143t51 143q-51 31 -51 144q0 116 41 155t164 39h102zM256 389v184q-69 0 -85.5 -15t-16.5 -77t16.5 -77t85.5 -15zM256 676v184
q-69 0 -85.5 -15t-16.5 -77t16.5 -77t85.5 -15zM154 1055q0 -62 16.5 -77t85.5 -15v184q-69 0 -85.5 -15t-16.5 -77z" />
    <glyph glyph-name="uni0451" unicode="&#x451;" 
d="M358 0v102h-153q-32 0 -41.5 18t-9.5 85v92q20 -10 51 -10h153v102h-153q-32 0 -41.5 18t-9.5 85v81h51q86 0 119.5 39.5t33.5 145.5v286q0 121 -33 163t-120 42t-120.5 -42.5t-33.5 -162.5v-839q0 -120 33.5 -162.5t120.5 -42.5h153zM205 676h-51v82q0 67 9.5 84.5
t41.5 17.5t41.5 -17.5t9.5 -84.5q0 -53 -9.5 -67.5t-41.5 -14.5zM154 963v81q0 67 9.5 85t41.5 18t41.5 -18t9.5 -85v-81q-8 7 -51 7t-51 -7zM123 1290q-29 0 -45.5 19t-16.5 42.5t16.5 42.5t45.5 19t45.5 -19t16.5 -42.5t-16.5 -42.5t-45.5 -19zM287 1290q-29 0 -45.5 19
t-16.5 42.5t16.5 42.5t45.5 19t45.5 -19t16.5 -42.5t-16.5 -42.5t-45.5 -19z" />
    <glyph glyph-name="uni0454" unicode="&#x454;" horiz-adv-x="411" 
d="M154 573v-184h102v-102h-102v-82q0 -69 16.5 -86t85.5 -17h102v-102h-102q-123 0 -164 41t-41 164v839q0 123 41 164t164 41h102v-102h-102q-69 0 -85.5 -17t-16.5 -86v-81h102v-103h-102v-184h102v-103h-102z" />
    <glyph glyph-name="endash" unicode="&#x2013;" horiz-adv-x="294" 
d="M51 784v97h193v-97h-193zM51 465v96h193v-96h-193z" />
    <glyph glyph-name="emdash" unicode="&#x2014;" horiz-adv-x="432" 
d="M51 682v96h330v-96h-330zM51 362v97h330v-97h-330z" />
    <glyph glyph-name="quoteleft" unicode="&#x2018;" horiz-adv-x="184" 
d="M133 1280v-51h-82v51q0 99 23 126.5t100 27.5v-62q-24 0 -32.5 -16.5t-8.5 -75.5z" />
    <glyph glyph-name="quoteright" unicode="&#x2019;" horiz-adv-x="204" 
d="M92 1382v52h82v-52q0 -98 -22.5 -125.5t-100.5 -27.5v61q25 0 33 16.5t8 75.5z" />
    <glyph glyph-name="quotedblleft" unicode="&#x201c;" horiz-adv-x="327" 
d="M133 1280v-51h-82v51q0 99 23 126.5t100 27.5v-62q-24 0 -32.5 -16.5t-8.5 -75.5zM276 1280v-51h-81v51q0 99 22.5 126.5t99.5 27.5v-62q-25 0 -33 -16.5t-8 -75.5z" />
    <glyph glyph-name="quotedblright" unicode="&#x201d;" horiz-adv-x="348" 
d="M236 1382v52h81v-52q0 -99 -22.5 -126t-99.5 -27v61q25 0 33 16.5t8 75.5zM92 1382v52h82v-52q0 -98 -22.5 -125.5t-100.5 -27.5v61q25 0 33 16.5t8 75.5z" />
    <glyph glyph-name="ellipsis" unicode="&#x2026;" horiz-adv-x="602" 
d="M51 0v102h103v-102h-103zM250 0v102h102v-102h-102zM449 0v102h102v-102h-102z" />
    <glyph glyph-name="Euro" unicode="&#x20ac;" horiz-adv-x="430" 
d="M20 573v103h52v82h-52v102h52v369q0 123 40.5 164t163.5 41h103v-103h-103q-69 0 -85.5 -19.5t-16.5 -103.5v-133q20 10 102 10h103v-102h-103q-69 0 -85.5 -19.5t-16.5 -103.5h102v-102h-102v-82h102v-103h-102q0 -54 2.5 -79.5t14.5 -41.5t29.5 -19t55.5 -3h103v-102
h-103q-36 0 -61.5 2.5t-32.5 5.5l-8 2v-113q0 -84 16.5 -103.5t85.5 -19.5h103v-102h-103q-123 0 -163.5 41t-40.5 164v368h-52z" />
    <glyph glyph-name="numero" unicode="&#x2116;" horiz-adv-x="768" 
d="M51 0v1434h103q118 0 161 -47.5t43 -157.5v-1229h-102v881q0 69 -16.5 85.5t-85.5 16.5v-983h-103zM256 1075v154q0 69 -16.5 85.5t-85.5 16.5v-246q82 0 102 -10zM717 1229q0 117 -35 161t-109 44t-108.5 -44t-34.5 -161t34.5 -161t108.5 -44t109 44t35 161zM522 1229
q0 67 9.5 84.5t41.5 17.5t42 -17.5t10 -84.5t-10 -85t-42 -18t-41.5 18t-9.5 85zM430 860v103h287v-103h-287z" />
    <glyph glyph-name="_0004" horiz-adv-x="0" 
 />
    <glyph glyph-name="A.001" 
d="M256 1075v154q0 26 -0.5 36.5t-3.5 25.5t-9 20t-17.5 11t-28.5 7.5t-43 1.5v-246q82 0 102 -10zM358 1434v-1434h-102v328h-102v-328h-103v1229q0 49 3.5 79.5t17.5 55t32.5 37t56.5 21t81.5 10.5t115.5 2zM256 430v225h-102v-225h102zM256 758v123q0 61 -20 81.5
t-82 20.5v-225h102z" />
    <glyph glyph-name="B.001" 
d="M256 102v226q-69 0 -85.5 -17t-16.5 -86v-20q0 -69 16.5 -86t85.5 -17zM154 553v-21q0 -69 16.5 -85.5t85.5 -16.5v225q-69 0 -85.5 -16.5t-16.5 -85.5zM154 881v-21q0 -69 16.5 -85.5t85.5 -16.5v225q-69 0 -85.5 -16.5t-16.5 -85.5zM256 1085v246q-69 0 -85.5 -16.5
t-16.5 -85.5v-41q0 -69 16.5 -86t85.5 -17zM358 1229v-41q0 -123 -51 -154q51 -31 51 -153v-21q0 -122 -51 -153q51 -31 51 -154v-21q0 -122 -51 -153q51 -31 51 -154v-20q0 -123 -40.5 -164t-163.5 -41h-103v1434h103q122 0 163 -42.5t41 -162.5z" />
    <glyph glyph-name="C.001" 
d="M154 860v-307q0 -84 16.5 -103.5t85.5 -19.5h102v-102h-102q-36 0 -61.5 2.5t-32.5 5.5l-8 2v-113q0 -84 16.5 -103.5t85.5 -19.5h102v-102h-102q-123 0 -164 41t-41 164v1024q0 123 41 164t164 41h102v-103h-102q-69 0 -85.5 -19.5t-16.5 -103.5v-133q20 10 102 10h102
v-102h-102q-69 0 -85.5 -19.5t-16.5 -103.5z" />
    <glyph glyph-name="D.001" 
d="M154 1229v-164q20 20 102 20v246q-69 0 -85.5 -16.5t-16.5 -85.5zM358 1229v-1024q0 -123 -40.5 -164t-163.5 -41h-103v1434h103q122 0 163 -41t41 -164zM154 860v-307q0 -84 16.5 -103.5t85.5 -19.5v553q-66 0 -84 -25t-18 -98zM256 102v226q-82 0 -102 20v-123
q0 -84 16.5 -103.5t85.5 -19.5z" />
    <glyph glyph-name="E.001" 
d="M154 860v-102h102v-103h-102v-102q0 -84 16.5 -103.5t85.5 -19.5h102v-102h-102q-36 0 -61.5 2.5t-32.5 5.5l-8 2v-113q0 -84 16.5 -103.5t85.5 -19.5h102v-102h-102q-123 0 -164 41t-41 164v1024q0 123 41 164t164 41h102v-103h-102q-69 0 -85.5 -19.5t-16.5 -103.5
v-133q20 10 102 10h102v-102h-102q-69 0 -85.5 -19.5t-16.5 -103.5z" />
    <glyph glyph-name="F.001" 
d="M51 0v1434h307v-103h-204v-246h204v-102h-204v-225h102v-103h-102v-655h-103z" />
    <glyph glyph-name="G.001" 
d="M256 430v102h102v-532h-102q-123 0 -164 41t-41 164v1024q0 123 41 164t164 41h102v-103h-102q-69 0 -85.5 -19.5t-16.5 -103.5v-133q20 10 102 10h102v-102h-102q-69 0 -85.5 -19.5t-16.5 -103.5v-307q0 -84 16.5 -103.5t85.5 -19.5zM256 225v113q-20 -10 -102 -10v-226
q69 0 85.5 19.5t16.5 103.5z" />
    <glyph glyph-name="H.001" 
d="M51 1434h103v-349h102v349h102v-1434h-102v328h-102v-328h-103v1434zM256 430v553h-102v-553h102z" />
    <glyph glyph-name="I.001" horiz-adv-x="204" 
d="M51 1434h103v-1434h-103v1434z" />
    <glyph glyph-name="J.001" 
d="M256 553v430h-154v102h154v246h-154v103h256v-1229q0 -123 -40.5 -164t-163.5 -41h-103v102h103q69 0 85.5 19.5t16.5 103.5v113q-20 -10 -102 -10h-103v102h103q69 0 85.5 19.5t16.5 103.5z" />
    <glyph glyph-name="K.001" 
d="M307 1034q51 -31 51 -153v-349q0 -122 -51 -153q51 -31 51 -154v-225h-102v225q0 69 -16.5 86t-85.5 17v-328h-103v1434h103v-349q69 0 85.5 17t16.5 86v246h102v-246q0 -123 -51 -154zM154 881v-349q0 -69 16.5 -85.5t85.5 -16.5v553q-69 0 -85.5 -16.5t-16.5 -85.5z
" />
    <glyph glyph-name="L.001" 
d="M154 328v-226h204v-102h-307v1434h103v-1004h204v-102h-204z" />
    <glyph glyph-name="M.001" horiz-adv-x="614" 
d="M461 0v881q0 67 -9.5 84.5t-41.5 17.5q-29 0 -40 -14t-12 -64v-803h-102v779q0 67 -9.5 84.5t-41.5 17.5t-41.5 -17.5t-9.5 -84.5v-881h-103v1229q0 120 33.5 162.5t120.5 42.5q67 0 102 -25q35 25 103 25q87 0 120 -42t33 -163v-1229h-102zM358 1331v-143v-23
q1 -52 11.5 -66t40.5 -14q32 0 41.5 18t9.5 85v143q-7 -7 -51 -7t-52 7zM154 1331v-143q0 -67 9.5 -85t41.5 -18t41.5 18t9.5 85v143q-8 -7 -51 -7t-51 7z" />
    <glyph glyph-name="N.001" 
d="M51 0v1434h103q118 0 161 -47.5t43 -157.5v-1229h-102v881q0 69 -16.5 85.5t-85.5 16.5v-983h-103zM256 1178v153q-9 -4 -34.5 -6.5t-46.5 -2.5l-21 -1v-246q69 0 85.5 17t16.5 86z" />
    <glyph glyph-name="O.001" 
d="M154 1331v-143q0 -67 9.5 -85t41.5 -18t41.5 18t9.5 85v143q-8 -7 -51 -7t-51 7zM154 881v-349q0 -67 9.5 -84.5t41.5 -17.5t41.5 17.5t9.5 84.5v349q0 67 -9.5 84.5t-41.5 17.5t-41.5 -17.5t-9.5 -84.5zM256 102v123q0 67 -9.5 85t-41.5 18t-41.5 -18t-9.5 -85v-123
q8 8 51 8t51 -8zM358 1229v-1024q0 -121 -33 -163t-120 -42t-120.5 42.5t-33.5 162.5v1024q0 120 33.5 162.5t120.5 42.5t120 -42t33 -163z" />
    <glyph glyph-name="P.001" 
d="M256 758v225q-69 0 -85.5 -16.5t-16.5 -85.5v-21q0 -69 16.5 -85.5t85.5 -16.5zM256 1085v246q-69 0 -85.5 -16.5t-16.5 -85.5v-154q20 10 102 10zM256 430v225q-36 0 -61.5 2.5t-32.5 5.5l-8 3v-134q0 -69 16.5 -85.5t85.5 -16.5zM358 1229v-697q0 -123 -40.5 -163.5
t-163.5 -40.5v-328h-103v1434h103q123 0 163.5 -41t40.5 -164z" />
    <glyph glyph-name="Q.001" 
d="M154 1331v-143q0 -67 9.5 -85t41.5 -18t41.5 18t9.5 85v143q-8 -7 -51 -7t-51 7zM154 881v-349q0 -67 9.5 -84.5t41.5 -17.5t41.5 17.5t9.5 84.5v349q0 67 -9.5 84.5t-41.5 17.5t-41.5 -17.5t-9.5 -84.5zM358 1229v-1024q0 -102 -23 -147t-79 -54v-106h-102v106
q-56 9 -79.5 54t-23.5 147v1024q0 120 33.5 162.5t120.5 42.5t120 -42t33 -163zM256 102v123q0 67 -9.5 85t-41.5 18t-41.5 -18t-9.5 -85v-123q8 8 51 8t51 -8z" />
    <glyph glyph-name="R.001" 
d="M51 0v1434h103q123 0 163.5 -41t40.5 -164v-41q0 -123 -51 -154q51 -31 51 -153v-21q0 -122 -51 -153q51 -31 51 -154v-21q0 -122 -51 -153q51 -31 51 -154v-225h-102v225q0 69 -16.5 86t-85.5 17v-328h-103zM256 430v225q-69 0 -85.5 -16.5t-16.5 -85.5v-21
q0 -69 16.5 -85.5t85.5 -16.5zM256 758v225q-69 0 -85.5 -16.5t-16.5 -85.5v-21q0 -69 16.5 -85.5t85.5 -16.5zM154 1229v-41q0 -69 16.5 -86t85.5 -17v246q-69 0 -85.5 -16.5t-16.5 -85.5z" />
    <glyph glyph-name="S.001" 
d="M256 543q0 33 -21 62.5t-51 55t-60.5 54t-51.5 74t-21 102.5v338q0 123 41 164t164 41h102v-103h-102q-69 0 -85.5 -19.5t-16.5 -103.5v-133q20 10 102 10h102v-102h-102q-69 0 -85.5 -15t-16.5 -77q0 -39 21 -70.5t51 -55.5t60 -51t51 -70.5t21 -100.5v-338
q0 -123 -40.5 -164t-163.5 -41h-103v102h103q69 0 85.5 19.5t16.5 103.5v113q-20 -10 -102 -10h-103v102h103q69 0 85.5 18.5t16.5 94.5z" />
    <glyph glyph-name="T.001" 
d="M358 1331h-102v-246h102v-102h-102v-983h-102v983h-103v102h103v246h-103v103h307v-103z" />
    <glyph glyph-name="U.001" 
d="M256 532v902h102v-1229q0 -121 -33 -163t-120 -42t-120.5 42.5t-33.5 162.5v1229h103v-902q0 -67 9.5 -84.5t41.5 -17.5t41.5 17.5t9.5 84.5zM154 225v-123q8 8 51 8t51 -8v123q0 67 -9.5 85t-41.5 18t-41.5 -18t-9.5 -85z" />
    <glyph glyph-name="V.001" 
d="M51 0v1434h103v-1004q69 0 85.5 16.5t16.5 85.5v902h102v-1229q0 -110 -43 -157.5t-161 -47.5h-103zM154 338v-133q0 -69 16.5 -86t85.5 -17v226q-82 0 -102 10z" />
    <glyph glyph-name="W.001" horiz-adv-x="614" 
d="M358 0h-102q-123 0 -164 41t-41 164v1229h103v-902q0 -69 16.5 -85.5t85.5 -16.5v1004h102v-1004q69 0 86 16.5t17 85.5v902h102v-1229q0 -123 -41 -164t-164 -41zM461 102v134q0 69 -17 85.5t-86 16.5v-225q36 0 62 -2.5t34 -5.5zM154 236v-134q20 11 102 11v225
q-69 0 -85.5 -16.5t-16.5 -85.5z" />
    <glyph glyph-name="X.001" 
d="M256 225q0 67 -9.5 85t-41.5 18t-41.5 -18t-9.5 -85v-225h-103v225q0 123 51 154q-51 31 -51 153v349q0 122 51 153q-51 31 -51 154v246h103v-246q0 -67 9.5 -85t41.5 -18t41.5 18t9.5 85v246h102v-246q0 -123 -51 -154q51 -31 51 -153v-349q0 -122 -51 -153
q51 -31 51 -154v-225h-102v225zM256 881q0 67 -9.5 84.5t-41.5 17.5t-41.5 -17.5t-9.5 -84.5v-349q0 -67 9.5 -84.5t41.5 -17.5t41.5 17.5t9.5 84.5v349z" />
    <glyph glyph-name="Y.001" 
d="M256 1434h102v-902q0 -48 -5 -82.5t-12.5 -54.5t-22.5 -34t-27.5 -20t-34.5 -13v-328h-102v328q-28 9 -43 18t-31 29.5t-22.5 59t-6.5 97.5v902h103v-574q0 -67 9.5 -84.5t41.5 -17.5t41.5 17.5t9.5 84.5v574zM205 655q-32 0 -41.5 -17.5t-9.5 -84.5v-123q8 8 51 8t51 -8
v123q0 67 -9.5 84.5t-41.5 17.5z" />
    <glyph glyph-name="Z.001" 
d="M51 1085h205v246h-205v103h307v-553q0 -57 -21 -102.5t-51 -74.5t-60 -54t-51 -55t-21 -63v-102h204v-102h-204v-226h204v-102h-307v532q0 57 21 100.5t51 70.5t60.5 51.5t51.5 56t21 70.5v102h-205v102z" />
    <glyph glyph-name="a.001" 
d="M51 205v266q0 123 41 164t164 41v82q0 67 -9.5 84.5t-41.5 17.5h-154v103h154q14 0 26.5 -2.5t18.5 -5.5l6 -3v92q0 67 -9.5 85t-41.5 18h-154v102h154q87 0 120 -42t33 -163v-1044h-102q-123 0 -164 41t-41 164zM154 573v-184q69 0 85.5 15t16.5 77t-16.5 77t-85.5 15z
M154 287v-185q69 0 85.5 17t16.5 86v92q-20 -10 -102 -10z" />
    <glyph glyph-name="b.001" 
d="M51 1434h103v-185q123 0 163.5 -41t40.5 -164v-839q0 -123 -40.5 -164t-163.5 -41h-103v1434zM154 758v-266q0 -69 16.5 -86t85.5 -17v471q-69 0 -85.5 -16.5t-16.5 -85.5zM256 102v185q-82 0 -102 10v-92q0 -69 16.5 -86t85.5 -17zM256 963v184q-69 0 -85.5 -17
t-16.5 -86v-94q9 5 34.5 8.5t46.5 3.5z" />
    <glyph glyph-name="c.001" 
d="M154 758v-266q0 -68 17 -85.5t85 -17.5h102v-102h-102q-36 0 -61.5 2.5t-32.5 4.5l-8 3v-92q0 -69 16.5 -86t85.5 -17h102v-102h-102q-123 0 -164 41t-41 164v839q0 123 41 164t164 41h102v-102h-102q-69 0 -85.5 -17t-16.5 -86v-92q20 11 102 11h102v-103h-102
q-69 0 -85.5 -16.5t-16.5 -85.5z" />
    <glyph glyph-name="d.001" 
d="M256 1434h102v-1434h-102q-123 0 -164 41t-41 164v839q0 123 41 164t164 41v185zM256 758q0 69 -16.5 85.5t-85.5 16.5v-471q69 0 85.5 17t16.5 86v266zM154 287v-185q69 0 85.5 17t16.5 86v92q-9 -4 -34.5 -6.5t-46.5 -2.5zM154 963q82 -1 102 -13v94q0 69 -16.5 86
t-85.5 17v-184z" />
    <glyph glyph-name="e.001" 
d="M358 102v-102h-153q-87 0 -120.5 42.5t-33.5 162.5v839q0 120 33.5 162.5t120.5 42.5t120 -42t33 -163v-286q0 -106 -33.5 -145.5t-119.5 -39.5h-51v-81q0 -67 9.5 -85t41.5 -18h153v-102h-153q-14 0 -26.5 2.5t-18.5 4.5l-6 3v-92q0 -67 9.5 -85t41.5 -18h153zM205 1147
h-51v-82q0 -67 9.5 -84.5t41.5 -17.5t41.5 17.5t9.5 84.5q0 53 -9.5 67.5t-41.5 14.5zM154 860v-82q0 -67 9.5 -84.5t41.5 -17.5t41.5 17.5t9.5 84.5v82q-8 -8 -51 -8t-51 8z" />
    <glyph glyph-name="f.001" horiz-adv-x="430" 
d="M31 573v103h41v184h-41v103h41v266q0 121 33 163t120 42h154v-103h-154q-32 0 -41.5 -17.5t-9.5 -84.5v-266h102v-103h-102v-184h102v-103h-102v-573h-102v573h-41z" />
    <glyph glyph-name="g.001" 
d="M358 1249v-1351q0 -106 -33.5 -145.5t-119.5 -39.5h-154v103h154q32 0 41.5 14.5t9.5 67.5v102q-123 0 -164 41t-41 164v839q0 123 41 164t164 41h102zM256 492v266q0 69 -16.5 85.5t-85.5 16.5v-471q69 0 85.5 17t16.5 86zM154 1147v-184q82 -1 102 -11v92
q0 69 -16.5 86t-85.5 17zM154 287v-185q69 0 85.5 17t16.5 86v94q-9 -5 -34.5 -8t-46.5 -3z" />
    <glyph glyph-name="h.001" 
d="M51 0v1434h103v-185q123 0 163.5 -41t40.5 -164v-1044h-102v758q0 69 -16.5 85.5t-85.5 16.5v-860h-103zM154 1044v-92q9 4 34.5 7t46.5 3l21 1v184q-69 0 -85.5 -17t-16.5 -86z" />
    <glyph glyph-name="i.001" horiz-adv-x="225" 
d="M113 1290q-29 0 -45.5 19t-16.5 42.5t16.5 42.5t45.5 19t45.5 -19t16.5 -42.5t-16.5 -42.5t-45.5 -19zM61 0v1249h103v-1249h-103z" />
    <glyph glyph-name="j.001" horiz-adv-x="419" 
d="M307 1290q-29 0 -45.5 19t-16.5 42.5t16.5 42.5t45.5 19t45.5 -19t16.5 -42.5t-16.5 -42.5t-45.5 -19zM51 -287v103h154q32 0 41.5 17.5t9.5 84.5v92q0 1 -6 -1.5t-18.5 -5.5t-26.5 -3h-154v102h154q32 0 41.5 18t9.5 85v655h-102v103h102v184h-102v102h204v-1331
q0 -121 -33 -163t-120 -42h-154z" />
    <glyph glyph-name="k.001" 
d="M256 1249h102v-184q0 -123 -51 -154q51 -31 51 -153v-266q0 -123 -51 -154q51 -31 51 -154v-184h-102v184q0 69 -16.5 86t-85.5 17v-287h-103v1434h103v-471q69 0 85.5 16.5t16.5 85.5v184zM154 758v-266q0 -69 16.5 -86t85.5 -17v471q-69 0 -85.5 -16.5t-16.5 -85.5z
" />
    <glyph glyph-name="l.001" 
d="M358 102v-102h-153q-87 0 -120.5 42.5t-33.5 162.5v1229h103v-942q0 -67 9.5 -85t41.5 -18h153v-102h-153q-14 0 -26.5 3t-18.5 5.5t-6 1.5v-92q0 -67 9.5 -85t41.5 -18h153z" />
    <glyph glyph-name="m.001" horiz-adv-x="614" 
d="M461 0v758q0 67 -9.5 84.5t-41.5 17.5q-29 0 -40 -14t-12 -64v-680h-102v656q0 67 -9.5 84.5t-41.5 17.5t-41.5 -17.5t-9.5 -84.5v-758h-103v1044q0 120 33.5 162.5t120.5 42.5q69 0 102 -24q33 24 103 24q87 0 120 -42t33 -163v-1044h-102zM358 1147v-82v-23
q1 -51 11.5 -65t40.5 -14q32 0 41.5 17.5t9.5 84.5v82q-7 -7 -51 -7t-52 7zM154 1147v-82q0 -67 9.5 -84.5t41.5 -17.5t41.5 17.5t9.5 84.5v82q-8 -7 -51 -7t-51 7z" />
    <glyph glyph-name="n.001" 
d="M51 0v1249h103q118 0 161 -47.5t43 -157.5v-1044h-102v758q0 69 -16.5 85.5t-85.5 16.5v-860h-103zM256 1055v92q-9 -4 -34.5 -6.5t-46.5 -2.5l-21 -1v-185q69 0 85.5 17t16.5 86z" />
    <glyph glyph-name="o.001" 
d="M154 1147v-82q0 -67 9.5 -84.5t41.5 -17.5t41.5 17.5t9.5 84.5v82q-8 -7 -51 -7t-51 7zM154 758v-266q0 -67 9.5 -85t41.5 -18t41.5 18t9.5 85v266q0 67 -9.5 84.5t-41.5 17.5t-41.5 -17.5t-9.5 -84.5zM256 102v82q0 67 -9.5 85t-41.5 18t-41.5 -18t-9.5 -85v-82
q8 8 51 8t51 -8zM358 1044v-839q0 -121 -33 -163t-120 -42t-120.5 42.5t-33.5 162.5v839q0 120 33.5 162.5t120.5 42.5t120 -42t33 -163z" />
    <glyph glyph-name="p.001" 
d="M256 389v471q-69 0 -85.5 -16.5t-16.5 -85.5v-266q0 -69 16.5 -86t85.5 -17zM256 963v184q-69 0 -85.5 -17t-16.5 -86v-92q9 4 34.5 7t46.5 3zM256 102v185q-82 0 -102 10v-92q0 -69 16.5 -86t85.5 -17zM358 1044v-839q0 -123 -40.5 -164t-163.5 -41v-287h-103v1536h103
q123 0 163.5 -41t40.5 -164z" />
    <glyph glyph-name="q.001" 
d="M256 389v471q-69 0 -85.5 -16.5t-16.5 -85.5v-266q0 -69 16.5 -86t85.5 -17zM256 963v184q-69 0 -85.5 -17t-16.5 -86v-92q9 4 34.5 7t46.5 3zM256 102v185q-82 0 -102 10v-92q0 -69 16.5 -86t85.5 -17zM51 1044q0 123 41 164t164 41h102v-1536h-102v287q-123 0 -164 41
t-41 164v839z" />
    <glyph glyph-name="r.001" 
d="M358 1249v-102h-153q-32 0 -41.5 -18t-9.5 -85v-92q0 -1 6 1.5t18.5 6t26.5 3.5h153v-103h-153q-32 0 -41.5 -17.5t-9.5 -84.5v-758h-103v1044q0 120 33.5 162.5t120.5 42.5h153z" />
    <glyph glyph-name="s.001" 
d="M256 471q0 36 -21 62.5t-51 45t-60.5 40.5t-51.5 62t-21 97v266q0 123 41 164t164 41h102v-102h-102q-69 0 -85.5 -17t-16.5 -86v-92q20 11 102 11h102v-103h-102q-68 0 -85 -14t-17 -68q0 -36 21 -62.5t51 -45t60 -40.5t51 -62t21 -97v-266q0 -123 -40.5 -164
t-163.5 -41h-103v102h103q69 0 85.5 17t16.5 86v92q-20 -10 -102 -10h-103v102h103q68 0 85 14t17 68z" />
    <glyph glyph-name="t.001" horiz-adv-x="430" 
d="M31 1147v102h41v185h102v-185h102v-102h-102v-184h102v-103h-102v-368q0 -67 9.5 -85t41.5 -18h154v-102h-154q-14 0 -26.5 2.5t-18.5 4.5l-6 3v-92q0 -67 9.5 -85t41.5 -18h154v-102h-154q-87 0 -120 42t-33 163v655h-41v103h41v184h-41z" />
    <glyph glyph-name="u.001" 
d="M256 492v757h102v-1044q0 -121 -33 -163t-120 -42t-120.5 42.5t-33.5 162.5v1044h103v-757q0 -67 9.5 -85t41.5 -18t41.5 18t9.5 85zM154 184v-82q8 8 51 8t51 -8v82q0 67 -9.5 85t-41.5 18t-41.5 -18t-9.5 -85z" />
    <glyph glyph-name="v.001" 
d="M51 0v1249h103v-860q69 0 85.5 17t16.5 86v757h102v-1044q0 -110 -43 -157.5t-161 -47.5h-103zM154 297v-92q0 -69 16.5 -86t85.5 -17v185q-82 0 -102 10z" />
    <glyph glyph-name="w.001" horiz-adv-x="614" 
d="M358 0h-102q-123 0 -164 41t-41 164v1044h103v-757q0 -69 16.5 -86t85.5 -17v860h102v-860q69 0 86 17t17 86v757h102v-1044q0 -123 -41 -164t-164 -41zM461 102v93q0 69 -17 85.5t-86 16.5v-184q83 -1 103 -11zM154 195v-93q9 4 34.5 7t46.5 3l21 1v184
q-69 0 -85.5 -16.5t-16.5 -85.5z" />
    <glyph glyph-name="x.001" 
d="M256 184q0 67 -9.5 85t-41.5 18t-41.5 -18t-9.5 -85v-184h-103v184q0 123 51 154q-51 31 -51 154v266q0 122 51 153q-51 31 -51 154v184h103v-184q0 -67 9.5 -84.5t41.5 -17.5t41.5 17.5t9.5 84.5v184h102v-184q0 -123 -51 -154q51 -31 51 -153v-266q0 -123 -51 -154
q51 -31 51 -154v-184h-102v184zM256 758q0 67 -9.5 84.5t-41.5 17.5t-41.5 -17.5t-9.5 -84.5v-266q0 -67 9.5 -85t41.5 -18t41.5 18t9.5 85v266z" />
    <glyph glyph-name="y.001" 
d="M358 1249v-1331q0 -121 -33 -163t-120 -42h-154v103h154q32 0 41.5 17.5t9.5 84.5v82q-123 0 -164 41t-41 164v1044h103v-757q0 -69 16.5 -86t85.5 -17v860h102zM154 287v-185q69 0 85.5 17t16.5 86v92q-20 -10 -102 -10z" />
    <glyph glyph-name="z.001" 
d="M51 963h205v184h-205v102h307v-450q0 -51 -21 -94t-51 -73t-60 -57.5t-51 -58.5t-21 -65v-62h204v-102h-204v-185h204v-102h-307v451q0 43 15 79.5t38 60.5t49.5 49t49.5 46t38 50.5t15 62.5v61h-205v103z" />
    <glyph glyph-name="uni0401.001" 
d="M123 1475q-29 0 -45.5 19t-16.5 42t16.5 42t45.5 19t45.5 -19t16.5 -42t-16.5 -42t-45.5 -19zM287 1475q-29 0 -45.5 19t-16.5 42t16.5 42t45.5 19t45.5 -19t16.5 -42t-16.5 -42t-45.5 -19zM154 860q0 84 16.5 103.5t85.5 19.5h102v102h-102q-36 0 -61.5 -2.5t-32.5 -4.5
l-8 -3v133q0 84 16.5 103.5t85.5 19.5h102v103h-102q-123 0 -164 -41t-41 -164v-1024q0 -123 41 -164t164 -41h102v102h-102q-69 0 -85.5 19.5t-16.5 103.5v113q20 -10 102 -10h102v102h-102q-69 0 -85.5 19.5t-16.5 103.5v102h102v103h-102v102z" />
    <glyph glyph-name="uni0451.001" 
d="M358 0v102h-153q-32 0 -41.5 18t-9.5 85v92q20 -10 51 -10h153v102h-153q-32 0 -41.5 18t-9.5 85v81h51q86 0 119.5 39.5t33.5 145.5v286q0 121 -33 163t-120 42t-120.5 -42.5t-33.5 -162.5v-839q0 -120 33.5 -162.5t120.5 -42.5h153zM205 676q-32 0 -41.5 14.5
t-9.5 67.5q0 67 9.5 84.5t41.5 17.5t41.5 -17.5t9.5 -84.5v-82h-51zM256 963q-8 7 -51 7t-51 -7v81q0 67 9.5 85t41.5 18t41.5 -18t9.5 -85v-81zM123 1290q-29 0 -45.5 19t-16.5 42.5t16.5 42.5t45.5 19t45.5 -19t16.5 -42.5t-16.5 -42.5t-45.5 -19zM287 1290
q-29 0 -45.5 19t-16.5 42.5t16.5 42.5t45.5 19t45.5 -19t16.5 -42.5t-16.5 -42.5t-45.5 -19z" />
    <glyph glyph-name="uni0410.001" 
d="M256 1075v154q0 26 -0.5 36.5t-3.5 25.5t-9 20t-17.5 11t-28.5 7.5t-43 1.5v-246q82 0 102 -10zM358 1434v-1434h-102v328h-102v-328h-103v1229q0 49 3.5 79.5t17.5 55t32.5 37t56.5 21t81.5 10.5t115.5 2zM256 430v225h-102v-225h102zM256 758v123q0 61 -20 81.5
t-82 20.5v-225h102z" />
    <glyph glyph-name="uni0411.001" 
d="M358 1331h-204v-246q123 0 163.5 -40.5t40.5 -163.5v-676q0 -123 -40.5 -164t-163.5 -41h-103v1434h307v-103zM154 553v-21q0 -69 16.5 -85.5t85.5 -16.5v225q-69 0 -85.5 -16.5t-16.5 -85.5zM256 102v226q-36 0 -61.5 2.5t-32.5 5.5l-8 2v-133q0 -69 16.5 -86t85.5 -17z
M256 758v225q-69 0 -85.5 -16.5t-16.5 -85.5v-133q20 10 102 10z" />
    <glyph glyph-name="uni0412.001" 
d="M256 102v226q-69 0 -85.5 -17t-16.5 -86v-20q0 -69 16.5 -86t85.5 -17zM154 553v-21q0 -69 16.5 -85.5t85.5 -16.5v225q-69 0 -85.5 -16.5t-16.5 -85.5zM154 881v-21q0 -69 16.5 -85.5t85.5 -16.5v225q-69 0 -85.5 -16.5t-16.5 -85.5zM256 1085v246q-69 0 -85.5 -16.5
t-16.5 -85.5v-41q0 -69 16.5 -86t85.5 -17zM358 1229v-41q0 -123 -51 -154q51 -31 51 -153v-21q0 -122 -51 -153q51 -31 51 -154v-21q0 -122 -51 -153q51 -31 51 -154v-20q0 -123 -40.5 -164t-163.5 -41h-103v1434h103q122 0 163 -42.5t41 -162.5z" />
    <glyph glyph-name="uni0413.001" 
d="M358 1434v-103h-204v-246h204v-102h-204v-983h-103v1434h307z" />
    <glyph glyph-name="uni0414.001" horiz-adv-x="450" 
d="M174 328v-226h102v226h-102zM174 983v-553h102v451q0 61 -20 81.5t-82 20.5zM276 1075v154q0 26 -0.5 36.5t-3.5 25.5t-9 20t-17.5 11t-28.5 7.5t-43 1.5v-246q82 0 102 -10zM379 1434v-1004h41v-102h-41v-226h41v-102h-389v102h41v226h-41v100h41v801q0 49 3.5 79.5
t17.5 55t32.5 37t56.5 21t81.5 10.5t115.5 2z" />
    <glyph glyph-name="uni0415.001" 
d="M154 860v-102h102v-103h-102v-102q0 -84 16.5 -103.5t85.5 -19.5h102v-102h-102q-36 0 -61.5 2.5t-32.5 5.5l-8 2v-113q0 -84 16.5 -103.5t85.5 -19.5h102v-102h-102q-123 0 -164 41t-41 164v1024q0 123 41 164t164 41h102v-103h-102q-69 0 -85.5 -19.5t-16.5 -103.5
v-133q20 10 102 10h102v-102h-102q-69 0 -85.5 -19.5t-16.5 -103.5z" />
    <glyph glyph-name="uni0416.001" horiz-adv-x="614" 
d="M563 1188q0 -123 -51 -154q51 -31 51 -153v-349q0 -122 -51 -153q24 -14 36 -44.5t13.5 -52t1.5 -57.5v-225h-102v225q0 69 -17 86t-86 17v-328h-102v328q-69 0 -85.5 -17t-16.5 -86v-225h-103v225q0 123 51 154q-51 31 -51 153v349q0 122 51 153q-51 31 -51 154v246h103
v-246q0 -69 16.5 -86t85.5 -17v349h102v-349q69 0 86 17t17 86v246h102v-246zM154 983v-553q69 0 85.5 16.5t16.5 85.5v349q0 69 -16.5 85.5t-85.5 16.5zM358 881v-349q0 -69 17 -85.5t86 -16.5v553q-69 0 -86 -16.5t-17 -85.5z" />
    <glyph glyph-name="uni0417.001" 
d="M256 553q0 69 -16.5 85.5t-85.5 16.5v103q69 0 85.5 16.5t16.5 85.5v21q0 69 -16.5 85.5t-85.5 16.5h-103v102h103q36 0 61.5 -2.5t32.5 -4.5l8 -3v133q0 84 -16.5 103.5t-85.5 19.5h-103v103h103q123 0 163.5 -41t40.5 -164v-369q0 -122 -51 -153q51 -31 51 -154v-348
q0 -123 -40.5 -164t-163.5 -41h-103v102h103q69 0 85.5 19.5t16.5 103.5v113q-20 -10 -102 -10h-103v102h103q69 0 85.5 16.5t16.5 85.5v21z" />
    <glyph glyph-name="uni0418.001" 
d="M51 1434h103v-369q5 5 33.5 22t48.5 37t20 43v267h102v-1434h-102v348q-5 -5 -33.5 -22t-48.5 -37t-20 -43v-246h-103v1434zM256 410v491q0 23 -20 43t-48.5 37.5t-33.5 22.5v-492q0 -23 20 -43t48.5 -37t33.5 -22z" />
    <glyph glyph-name="uni0419.001" 
d="M205 1536q37 0 49 8.5t12 32.5h72q0 -27 -3.5 -42.5t-16.5 -31t-40.5 -22t-72.5 -6.5t-72.5 6.5t-40.5 22t-16.5 31t-3.5 42.5h71q0 -24 12.5 -32.5t49.5 -8.5zM154 1434h-103v-1434h103v246q0 23 20 43t48.5 37t33.5 22v-348h102v1434h-102v-267q0 -23 -20 -43
t-48.5 -37t-33.5 -22v369zM256 901v-491q-5 5 -33.5 22t-48.5 37t-20 43v492q5 -5 33.5 -22.5t48.5 -37.5t20 -43z" />
    <glyph glyph-name="uni041A.001" 
d="M307 1034q51 -31 51 -153v-349q0 -122 -51 -153q51 -31 51 -154v-225h-102v225q0 69 -16.5 86t-85.5 17v-328h-103v1434h103v-349q69 0 85.5 17t16.5 86v246h102v-246q0 -123 -51 -154zM154 881v-349q0 -69 16.5 -85.5t85.5 -16.5v553q-69 0 -85.5 -16.5t-16.5 -85.5z
" />
    <glyph glyph-name="uni041B.001" 
d="M358 1434v-1434h-102v983q-62 0 -82 -20.5t-20 -81.5v-881h-103v1229q0 49 3.5 79.5t17.5 55t32.5 37t56.5 21t81.5 10.5t115.5 2zM256 1075v154q0 26 -0.5 36.5t-3.5 25.5t-9 20t-17.5 11t-28.5 7.5t-43 1.5v-246q82 0 102 -10z" />
    <glyph glyph-name="uni041C.001" horiz-adv-x="614" 
d="M461 0v881q0 67 -9.5 84.5t-41.5 17.5q-29 0 -40 -14t-12 -64v-803h-102v779q0 67 -9.5 84.5t-41.5 17.5t-41.5 -17.5t-9.5 -84.5v-881h-103v1229q0 120 33.5 162.5t120.5 42.5q67 0 102 -25q35 25 103 25q87 0 120 -42t33 -163v-1229h-102zM358 1331v-143v-23
q1 -52 11.5 -66t40.5 -14q32 0 41.5 18t9.5 85v143q-7 -7 -51 -7t-52 7zM154 1331v-143q0 -67 9.5 -85t41.5 -18t41.5 18t9.5 85v143q-8 -7 -51 -7t-51 7z" />
    <glyph glyph-name="uni041D.001" 
d="M51 1434h103v-349h102v349h102v-1434h-102v328h-102v-328h-103v1434zM256 430v553h-102v-553h102z" />
    <glyph glyph-name="uni041E.001" 
d="M154 1331v-143q0 -67 9.5 -85t41.5 -18t41.5 18t9.5 85v143q-8 -7 -51 -7t-51 7zM154 881v-349q0 -67 9.5 -84.5t41.5 -17.5t41.5 17.5t9.5 84.5v349q0 67 -9.5 84.5t-41.5 17.5t-41.5 -17.5t-9.5 -84.5zM256 102v123q0 67 -9.5 85t-41.5 18t-41.5 -18t-9.5 -85v-123
q8 8 51 8t51 -8zM358 1229v-1024q0 -121 -33 -163t-120 -42t-120.5 42.5t-33.5 162.5v1024q0 120 33.5 162.5t120.5 42.5t120 -42t33 -163z" />
    <glyph glyph-name="uni041F.001" 
d="M256 1331h-102v-246h102v246zM256 0v983h-102v-983h-103v1434h307v-1434h-102z" />
    <glyph glyph-name="uni0420.001" 
d="M256 758v225q-69 0 -85.5 -16.5t-16.5 -85.5v-21q0 -69 16.5 -85.5t85.5 -16.5zM256 1085v246q-69 0 -85.5 -16.5t-16.5 -85.5v-154q20 10 102 10zM256 430v225q-36 0 -61.5 2.5t-32.5 5.5l-8 3v-134q0 -69 16.5 -85.5t85.5 -16.5zM358 1229v-697q0 -123 -40.5 -163.5
t-163.5 -40.5v-328h-103v1434h103q123 0 163.5 -41t40.5 -164z" />
    <glyph glyph-name="uni0421.001" 
d="M154 860v-307q0 -84 16.5 -103.5t85.5 -19.5h102v-102h-102q-36 0 -61.5 2.5t-32.5 5.5l-8 2v-113q0 -84 16.5 -103.5t85.5 -19.5h102v-102h-102q-123 0 -164 41t-41 164v1024q0 123 41 164t164 41h102v-103h-102q-69 0 -85.5 -19.5t-16.5 -103.5v-133q20 10 102 10h102
v-102h-102q-69 0 -85.5 -19.5t-16.5 -103.5z" />
    <glyph glyph-name="uni0422.001" 
d="M358 1434v-103h-102v-246h102v-102h-102v-983h-102v983h-103v102h103v246h-103v103h307z" />
    <glyph glyph-name="uni0423.001" 
d="M358 1434v-1229q0 -121 -33 -163t-120 -42h-154v102h154q32 0 41.5 18t9.5 85v123q-123 0 -164 40.5t-41 163.5v902h103v-574q0 -69 16.5 -85.5t85.5 -16.5v676h102zM154 655v-225q69 0 85.5 16.5t16.5 85.5v134q-20 -11 -102 -11z" />
    <glyph glyph-name="uni0424.001" horiz-adv-x="614" 
d="M51 205v1024q0 123 41 164t164 41v102h102v-102q123 0 164 -41t41 -164v-1024q0 -123 -41 -164t-164 -41v-102h-102v102q-123 0 -164 41t-41 164zM358 1321v-246q69 0 86 17t17 86v153q-19 -10 -103 -10zM154 1331v-153q0 -69 16.5 -86t85.5 -17v246q-36 0 -61.5 2.5
t-32.5 4.5zM358 338v-225q36 0 62 -2.5t34 -5.5l7 -3v134q0 69 -17 85.5t-86 16.5zM154 236v-134q20 11 102 11v225q-69 0 -85.5 -16.5t-16.5 -85.5zM461 532v349q0 69 -17 85.5t-86 16.5v-553q69 0 86 16.5t17 85.5zM256 983q-69 0 -85.5 -16.5t-16.5 -85.5v-349
q0 -69 16.5 -85.5t85.5 -16.5v553z" />
    <glyph glyph-name="uni0425.001" 
d="M256 225q0 67 -9.5 85t-41.5 18t-41.5 -18t-9.5 -85v-225h-103v225q0 123 51 154q-51 31 -51 153v349q0 122 51 153q-51 31 -51 154v246h103v-246q0 -67 9.5 -85t41.5 -18t41.5 18t9.5 85v246h102v-246q0 -123 -51 -154q51 -31 51 -153v-349q0 -122 -51 -153
q51 -31 51 -154v-225h-102v225zM256 881q0 67 -9.5 84.5t-41.5 17.5t-41.5 -17.5t-9.5 -84.5v-349q0 -67 9.5 -84.5t41.5 -17.5t41.5 17.5t9.5 84.5v349z" />
    <glyph glyph-name="uni0426.001" horiz-adv-x="440" 
d="M51 0v1434h103v-1004h102v1004h102v-1004h52v-102h-52v-226h52v-102h-359zM256 102v226h-102v-226h102z" />
    <glyph glyph-name="uni0427.001" 
d="M358 1434v-1434h-102v328q-123 0 -164 40.5t-41 163.5v902h103v-574q0 -69 16.5 -85.5t85.5 -16.5v676h102zM154 655v-225q69 0 85.5 16.5t16.5 85.5v134q-20 -11 -102 -11z" />
    <glyph glyph-name="uni0428.001" horiz-adv-x="614" 
d="M563 0h-512v1434h103v-1004h102v1004h102v-1004h103v1004h102v-1434zM461 102v226h-103v-226h103zM256 102v226h-102v-226h102z" />
    <glyph glyph-name="uni0429.001" horiz-adv-x="645" 
d="M614 0h-563v1434h103v-1004h102v1004h102v-1004h103v1004h102v-1004h51v-102h-51v-226h51v-102zM461 102v226h-103v-226h103zM256 102v226h-102v-226h102z" />
    <glyph glyph-name="uni042A.001" horiz-adv-x="430" 
d="M31 1434h143v-349q123 0 164 -40.5t41 -163.5v-676q0 -123 -41 -164t-164 -41h-102v1331h-41v103zM174 553v-21q0 -69 16.5 -85.5t85.5 -16.5v225q-69 0 -85.5 -16.5t-16.5 -85.5zM276 102v226q-36 0 -61.5 2.5t-32.5 5.5l-8 2v-133q0 -69 16.5 -86t85.5 -17zM276 758
v225q-69 0 -85.5 -16.5t-16.5 -85.5v-136q0 2 7.5 4.5t32.5 5.5t62 3z" />
    <glyph glyph-name="uni042B.001" horiz-adv-x="614" 
d="M563 0h-102v1434h102v-1434zM51 1434h103v-349q123 0 163.5 -40.5t40.5 -163.5v-676q0 -123 -40.5 -164t-163.5 -41h-103v1434zM154 553v-21q0 -69 16.5 -85.5t85.5 -16.5v225q-69 0 -85.5 -16.5t-16.5 -85.5zM256 102v226q-36 0 -61.5 2.5t-32.5 5.5l-8 2v-133
q0 -69 16.5 -86t85.5 -17zM256 758v225q-69 0 -85.5 -16.5t-16.5 -85.5v-136q0 2 7.5 4.5t32.5 5.5t62 3z" />
    <glyph glyph-name="uni042C.001" 
d="M51 1434h103v-349q123 0 163.5 -40.5t40.5 -163.5v-676q0 -123 -40.5 -164t-163.5 -41h-103v1434zM154 553v-21q0 -69 16.5 -85.5t85.5 -16.5v225q-69 0 -85.5 -16.5t-16.5 -85.5zM256 102v226q-36 0 -61.5 2.5t-32.5 5.5l-8 2v-133q0 -69 16.5 -86t85.5 -17zM256 758
v225q-69 0 -85.5 -16.5t-16.5 -85.5v-136q0 2 7.5 4.5t32.5 5.5t62 3z" />
    <glyph glyph-name="uni042D.001" 
d="M256 532v123h-102v103h102v123q0 69 -16.5 85.5t-85.5 16.5h-103v102h103q36 0 61.5 -2.5t32.5 -4.5l8 -3v154q0 69 -16.5 85.5t-85.5 16.5h-103v103h103q123 0 163.5 -41t40.5 -164v-1024q0 -123 -40.5 -164t-163.5 -41h-103v102h103q69 0 85.5 17t16.5 86v133
q-20 -10 -102 -10h-103v102h103q69 0 85.5 16.5t16.5 85.5z" />
    <glyph glyph-name="uni042E.001" horiz-adv-x="614" 
d="M563 1229v-1024q0 -121 -33 -163t-120 -42t-120.5 42.5t-33.5 162.5v450h-102v-655h-103v1434h103v-676h102v471q0 120 33.5 162.5t120.5 42.5t120 -42t33 -163zM358 881v-349q0 -67 10 -84.5t42 -17.5t41.5 17.5t9.5 84.5v349q0 67 -9.5 84.5t-41.5 17.5t-42 -17.5
t-10 -84.5zM358 1331v-143q0 -67 10 -85t42 -18t41.5 18t9.5 85v143q-7 -7 -51 -7t-52 7zM461 102v123q0 67 -9.5 85t-41.5 18t-42 -18t-10 -85v-123q8 8 52 8t51 -8z" />
    <glyph glyph-name="uni042F.001" 
d="M358 1434v-1434h-102v328q-69 0 -85.5 -17t-16.5 -86v-225h-103v225q0 123 51 154q-51 31 -51 153v21q0 123 51 154q-51 31 -51 153v21q0 122 51 153q-51 31 -51 154v41q0 123 41 164t164 41h102zM154 655v-225q69 0 85.5 16.5t16.5 85.5v21q0 69 -16.5 85.5t-85.5 16.5z
M154 983v-225q69 0 85.5 16.5t16.5 85.5v21q0 69 -16.5 85.5t-85.5 16.5zM256 1188v41q0 69 -16.5 85.5t-85.5 16.5v-246q69 0 85.5 17t16.5 86z" />
    <glyph glyph-name="uni0430.001" 
d="M51 205v266q0 123 41 164t164 41v82q0 67 -9.5 84.5t-41.5 17.5h-154v103h154q14 0 26.5 -2.5t18.5 -5.5l6 -3v92q0 67 -9.5 85t-41.5 18h-154v102h154q87 0 120 -42t33 -163v-1044h-102q-123 0 -164 41t-41 164zM154 573v-184q69 0 85.5 15t16.5 77t-16.5 77t-85.5 15z
M154 287v-185q69 0 85.5 17t16.5 86v92q-20 -10 -102 -10z" />
    <glyph glyph-name="uni0431.001" 
d="M51 205v1126q0 123 41 164t164 41h102v-102h-102q-69 0 -85.5 -17t-16.5 -86v-82q123 0 163.5 -41t40.5 -164v-839q0 -121 -33 -163t-120 -42t-120.5 42.5t-33.5 162.5zM154 758v-266q0 -69 16.5 -86t85.5 -17v471q-69 0 -85.5 -16.5t-16.5 -85.5zM256 205v82
q-82 0 -102 10v-92q0 -67 9.5 -85t41.5 -18t41.5 18t9.5 85zM256 963v184q-69 0 -85.5 -17t-16.5 -86v-94q9 5 34.5 8.5t46.5 3.5z" />
    <glyph glyph-name="uni0432.001" 
d="M256 102v185q-69 0 -85.5 -15t-16.5 -77t16.5 -77.5t85.5 -15.5zM154 481q0 -62 16.5 -77t85.5 -15v184q-69 0 -85.5 -15t-16.5 -77zM154 768q0 -62 16.5 -77t85.5 -15v184q-69 0 -85.5 -15t-16.5 -77zM256 963v184q-69 0 -85.5 -15t-16.5 -77t16.5 -77t85.5 -15z
M358 1055q0 -113 -51 -144q51 -31 51 -143t-51 -143q51 -31 51 -144q0 -112 -51 -143q51 -31 51 -143q0 -116 -41 -155.5t-163 -39.5h-103v1249h103q123 0 163.5 -39t40.5 -155z" />
    <glyph glyph-name="uni0433.001" 
d="M358 1249v-102h-204v-184h204v-103h-204v-860h-103v1249h307z" />
    <glyph glyph-name="uni0434.001" 
d="M358 1331v-1126q0 -121 -33 -163t-120 -42t-120.5 42.5t-33.5 162.5v839q0 123 41 164t164 41v82q0 69 -16.5 86t-85.5 17h-103v102h103q123 0 163.5 -41t40.5 -164zM256 758q0 69 -16.5 85.5t-85.5 16.5v-471q69 0 85.5 17t16.5 86v266zM154 287v-82q0 -67 9.5 -85
t41.5 -18t41.5 18t9.5 85v92q-9 -4 -34.5 -6.5t-46.5 -2.5zM154 963q82 -1 102 -13v94q0 69 -16.5 86t-85.5 17v-184z" />
    <glyph glyph-name="uni0435.001" 
d="M358 102v-102h-153q-87 0 -120.5 42.5t-33.5 162.5v839q0 120 33.5 162.5t120.5 42.5t120 -42t33 -163v-286q0 -106 -33.5 -145.5t-119.5 -39.5h-51v-81q0 -67 9.5 -85t41.5 -18h153v-102h-153q-14 0 -26.5 2.5t-18.5 4.5l-6 3v-92q0 -67 9.5 -85t41.5 -18h153zM205 676
h51v82q0 67 -9.5 84.5t-41.5 17.5t-41.5 -17.5t-9.5 -84.5q0 -53 9.5 -67.5t41.5 -14.5zM256 963v81q0 67 -9.5 85t-41.5 18t-41.5 -18t-9.5 -85v-81q8 7 51 7t51 -7z" />
    <glyph glyph-name="uni0436.001" horiz-adv-x="614" 
d="M563 1249v-164q0 -143 -51 -174q51 -31 51 -153v-266q0 -123 -51 -154q51 -31 51 -154v-184h-102v184q0 69 -17 86t-86 17v-287h-102v287q-69 0 -85.5 -17t-16.5 -86v-184h-103v184q0 123 51 154q-51 31 -51 154v266q0 122 51 153q-51 31 -51 174v164h103v-164
q0 -84 16 -103t86 -19v286h102v-286q70 0 86.5 19t16.5 103v164h102zM154 860v-471q69 0 85.5 17t16.5 86v266q0 69 -16.5 85.5t-85.5 16.5zM358 758v-266q0 -69 17 -86t86 -17v471q-69 0 -86 -16.5t-17 -85.5z" />
    <glyph glyph-name="uni0437.001" 
d="M256 481q0 62 -16.5 77t-85.5 15v103q69 0 85.5 15t16.5 77t-16.5 77t-85.5 15h-103v103h103q36 0 61.5 -2.5t32.5 -5.5l8 -3v72q0 84 -16.5 103.5t-85.5 19.5h-103v102h103q123 0 163.5 -41t40.5 -164v-276q0 -112 -51 -143q51 -31 51 -144v-276q0 -123 -40.5 -164
t-163.5 -41h-103v102h103q69 0 85.5 19.5t16.5 103.5v72q-20 -10 -102 -10h-103v102h103q72 0 87 12.5t15 79.5z" />
    <glyph glyph-name="uni0438.001" 
d="M51 1249h103v-307q5 5 33.5 22t48.5 37t20 43v205h102v-1249h-102v307q-5 -5 -33.5 -22t-48.5 -37t-20 -43v-205h-103v1249zM154 881v-410q0 -23 20 -43t48.5 -37t33.5 -22v409q0 23 -20 43t-48.5 37.5t-33.5 22.5z" />
    <glyph glyph-name="uni0439.001" 
d="M205 1352q37 0 49 8.5t12 32.5h72q0 -27 -3.5 -42.5t-16.5 -31t-40.5 -22.5t-72.5 -7t-72.5 7t-40.5 22.5t-16.5 31t-3.5 42.5h71q0 -24 12.5 -32.5t49.5 -8.5zM154 1249h-103v-1249h103v205q0 23 20 43t48.5 37t33.5 22v-307h102v1249h-102v-205q0 -23 -20 -43
t-48.5 -37t-33.5 -22v307zM154 471v410q5 -5 33.5 -22.5t48.5 -37.5t20 -43v-409q-5 5 -33.5 22t-48.5 37t-20 43z" />
    <glyph glyph-name="uni043A.001" 
d="M256 1249h102v-184q0 -123 -51 -154q51 -31 51 -153v-266q0 -123 -51 -154q51 -31 51 -154v-184h-102v184q0 69 -16.5 86t-85.5 17v-287h-103v1249h103v-286q69 0 85.5 16.5t16.5 85.5v184zM154 758v-266q0 -69 16.5 -86t85.5 -17v471q-69 0 -85.5 -16.5t-16.5 -85.5z
" />
    <glyph glyph-name="uni043B.001" 
d="M358 1249v-1249h-102v860q-69 0 -85.5 -16.5t-16.5 -85.5v-758h-103v1044q0 109 43.5 157t161.5 48h102zM256 952v92q0 69 -16.5 86t-85.5 17v-184q82 -1 102 -11z" />
    <glyph glyph-name="uni043C.001" horiz-adv-x="614" 
d="M461 0v758q0 67 -9.5 84.5t-41.5 17.5q-29 0 -40 -14t-12 -64v-680h-102v656q0 67 -9.5 84.5t-41.5 17.5t-41.5 -17.5t-9.5 -84.5v-758h-103v1044q0 120 33.5 162.5t120.5 42.5q69 0 102 -24q33 24 103 24q87 0 120 -42t33 -163v-1044h-102zM358 1147v-82v-23
q1 -51 11.5 -65t40.5 -14q32 0 41.5 17.5t9.5 84.5v82q-7 -7 -51 -7t-52 7zM154 1147v-82q0 -67 9.5 -84.5t41.5 -17.5t41.5 17.5t9.5 84.5v82q-8 -7 -51 -7t-51 7z" />
    <glyph glyph-name="uni043D.001" 
d="M358 1249v-1249h-102v287h-102v-287h-103v1249h103v-286h102v286h102zM256 389v471h-102v-471h102z" />
    <glyph glyph-name="uni043E.001" 
d="M154 1147v-82q0 -67 9.5 -84.5t41.5 -17.5t41.5 17.5t9.5 84.5v82q-8 -7 -51 -7t-51 7zM154 758v-266q0 -67 9.5 -85t41.5 -18t41.5 18t9.5 85v266q0 67 -9.5 84.5t-41.5 17.5t-41.5 -17.5t-9.5 -84.5zM154 184v-82q8 8 51 8t51 -8v82q0 67 -9.5 85t-41.5 18t-41.5 -18
t-9.5 -85zM358 1044v-839q0 -121 -33 -163t-120 -42t-120.5 42.5t-33.5 162.5v839q0 120 33.5 162.5t120.5 42.5t120 -42t33 -163z" />
    <glyph glyph-name="uni043F.001" 
d="M358 1249v-1249h-102v860h-102v-860h-103v1249h307zM256 963v184h-102v-184h102z" />
    <glyph glyph-name="uni0440.001" 
d="M256 389v471q-69 0 -85.5 -16.5t-16.5 -85.5v-266q0 -69 16.5 -86t85.5 -17zM256 963v184q-69 0 -85.5 -17t-16.5 -86v-92q9 4 34.5 7t46.5 3zM256 102v185q-82 0 -102 10v-92q0 -69 16.5 -86t85.5 -17zM358 1044v-839q0 -123 -40.5 -164t-163.5 -41v-287h-103v1536h103
q123 0 163.5 -41t40.5 -164z" />
    <glyph glyph-name="uni0441.001" 
d="M154 758v-266q0 -68 17 -85.5t85 -17.5h102v-102h-102q-36 0 -61.5 2.5t-32.5 4.5l-8 3v-92q0 -69 16.5 -86t85.5 -17h102v-102h-102q-123 0 -164 41t-41 164v839q0 123 41 164t164 41h102v-102h-102q-69 0 -85.5 -17t-16.5 -86v-92q20 11 102 11h102v-103h-102
q-69 0 -85.5 -16.5t-16.5 -85.5z" />
    <glyph glyph-name="uni0442.001" 
d="M358 1249v-102h-102v-184h102v-103h-102v-860h-102v860h-103v103h103v184h-103v102h307z" />
    <glyph glyph-name="uni0443.001" 
d="M358 1249v-1331q0 -121 -33 -163t-120 -42h-154v103h154q32 0 41.5 17.5t9.5 84.5v82q-123 0 -164 41t-41 164v1044h103v-757q0 -69 16.5 -86t85.5 -17v860h102zM154 287v-185q69 0 85.5 17t16.5 86v92q-20 -10 -102 -10z" />
    <glyph glyph-name="uni0444.001" horiz-adv-x="614" 
d="M51 205v839q0 123 41 164t164 41v103h102v-103q123 0 164 -41t41 -164v-839q0 -123 -41 -164t-164 -41v-287h-102v287q-123 0 -164 41t-41 164zM358 1137v-185q69 0 86 17t17 86v92q-21 -10 -103 -10zM154 1147v-92q0 -69 16.5 -86t85.5 -17v185q-36 0 -61.5 2.5
t-32.5 4.5zM358 297v-184q36 0 62 -2.5t34 -5.5l7 -3v93q0 69 -17 85.5t-86 16.5zM154 195v-93q20 11 102 11v184q-69 0 -85.5 -16.5t-16.5 -85.5zM461 492v266q0 69 -17 85.5t-86 16.5v-471q69 0 86 17t17 86zM256 860q-69 0 -85.5 -16.5t-16.5 -85.5v-266q0 -69 16.5 -86
t85.5 -17v471z" />
    <glyph glyph-name="uni0445.001" 
d="M256 184q0 67 -9.5 85t-41.5 18t-41.5 -18t-9.5 -85v-184h-103v184q0 123 51 154q-51 31 -51 154v266q0 122 51 153q-51 31 -51 154v184h103v-184q0 -67 9.5 -84.5t41.5 -17.5t41.5 17.5t9.5 84.5v184h102v-184q0 -123 -51 -154q51 -31 51 -153v-266q0 -123 -51 -154
q51 -31 51 -154v-184h-102v184zM256 758q0 67 -9.5 84.5t-41.5 17.5t-41.5 -17.5t-9.5 -84.5v-266q0 -67 9.5 -85t41.5 -18t41.5 18t9.5 85v266z" />
    <glyph glyph-name="uni0446.001" horiz-adv-x="430" 
d="M399 0h-348v1249h103v-860h102v860h102v-860h41v-102h-41v-185h41v-102zM256 102v185h-102v-185h102z" />
    <glyph glyph-name="uni0447.001" 
d="M256 1249h102v-1249h-102v287q-123 0 -164 41t-41 164v757h103v-471q0 -69 16.5 -85.5t85.5 -16.5v573zM154 389q69 0 85.5 17t16.5 86v92q-20 -11 -102 -11v-184z" />
    <glyph glyph-name="uni0448.001" horiz-adv-x="614" 
d="M563 0h-512v1249h103v-860h102v860h102v-860h103v860h102v-1249zM461 102v185h-103v-185h103zM256 102v185h-102v-185h102z" />
    <glyph glyph-name="uni0449.001" horiz-adv-x="634" 
d="M604 0h-553v1249h103v-860h102v860h102v-860h103v860h102v-860h41v-102h-41v-185h41v-102zM461 102v185h-103v-185h103zM256 102v185h-102v-185h102z" />
    <glyph glyph-name="uni044A.001" horiz-adv-x="430" 
d="M31 1249h143v-286q123 0 164 -41t41 -164v-553q0 -123 -41 -164t-164 -41h-102v1147h-41v102zM174 481q0 -62 16.5 -77t85.5 -15v184q-69 0 -85.5 -15t-16.5 -77zM276 102v185q-36 0 -61.5 2.5t-32.5 4.5l-8 3v-92q0 -69 16.5 -86t85.5 -17zM276 676v184
q-69 0 -85.5 -16.5t-16.5 -85.5v-92q20 10 102 10z" />
    <glyph glyph-name="uni044B.001" horiz-adv-x="614" 
d="M461 1249h102v-1249h-102v1249zM51 1249h103v-286q123 0 163.5 -41t40.5 -164v-553q0 -123 -40.5 -164t-163.5 -41h-103v1249zM154 481q0 -62 16.5 -77t85.5 -15v184q-69 0 -85.5 -15t-16.5 -77zM256 102v185q-36 0 -61.5 2.5t-32.5 4.5l-8 3v-92q0 -69 16.5 -86
t85.5 -17zM256 676v184q-69 0 -85.5 -16.5t-16.5 -85.5v-92q20 10 102 10z" />
    <glyph glyph-name="uni044C.001" 
d="M51 1249h103v-286q123 0 163.5 -41t40.5 -164v-553q0 -123 -40.5 -164t-163.5 -41h-103v1249zM154 481q0 -62 16.5 -77t85.5 -15v184q-69 0 -85.5 -15t-16.5 -77zM256 102v185q-36 0 -61.5 2.5t-32.5 4.5l-8 3v-92q0 -69 16.5 -86t85.5 -17zM256 676v184
q-69 0 -85.5 -16.5t-16.5 -85.5v-92q20 10 102 10z" />
    <glyph glyph-name="uni044D.001" 
d="M256 492v81h-102v103h102v82q0 69 -16.5 85.5t-85.5 16.5h-103v103h103q36 0 61.5 -2.5t32.5 -5.5l8 -3v92q0 69 -16.5 86t-85.5 17h-103v102h103q123 0 163.5 -41t40.5 -164v-839q0 -123 -40.5 -164t-163.5 -41h-103v102h103q69 0 85.5 17t16.5 86v92q-20 -10 -102 -10
h-103v102h103q69 0 85.5 17t16.5 86z" />
    <glyph glyph-name="uni044E.001" horiz-adv-x="614" 
d="M563 1044v-839q0 -121 -33 -163t-120 -42t-120.5 42.5t-33.5 162.5v368h-102v-573h-103v1249h103v-573h102v368q0 120 33.5 162.5t120.5 42.5t120 -42t33 -163zM358 758v-266q0 -67 10 -85t42 -18t41.5 18t9.5 85v266q0 67 -9.5 84.5t-41.5 17.5t-42 -17.5t-10 -84.5z
M358 1147v-82q0 -67 10 -84.5t42 -17.5t41.5 17.5t9.5 84.5v82q-7 -7 -51 -7t-52 7zM461 102v82q0 67 -9.5 85t-41.5 18t-42 -18t-10 -85v-82q8 8 52 8t51 -8z" />
    <glyph glyph-name="uni044F.001" 
d="M358 1249v-1249h-102v287q-69 0 -85.5 -17t-16.5 -86v-184h-103v184q0 123 51 154q-51 31 -51 143q0 113 51 144q-51 31 -51 143t51 143q-51 31 -51 144q0 116 41 155t164 39h102zM154 573v-184q69 0 85.5 15t16.5 77t-16.5 77t-85.5 15zM154 860v-184q69 0 85.5 15
t16.5 77t-16.5 77t-85.5 15zM256 1055q0 62 -16.5 77t-85.5 15v-184q69 0 85.5 15t16.5 77z" />
    </font>
</defs>
</svg>
