<svg width="445" height="27" viewBox="0 0 445 27" fill="none" xmlns="http://www.w3.org/2000/svg">
<g clip-path="url(#clip0_0_27)">
<path d="M30.86 15.03H28.703C28.849 14.629 29.193 13.657 29.734 12.117L29.781 11.97C29.823 11.861 29.875 11.72 29.938 11.547C29.9891 11.4075 30.0358 11.2664 30.078 11.124L30.266 12.019L30.859 15.029L30.86 15.03ZM8.296 13.972L7.39 9.171C7.275 8.585 6.884 8.291 6.218 8.291H2.03L2 8.504C5.24 9.361 7.339 11.184 8.297 13.973L8.296 13.972ZM11.093 8.292L8.563 15.42L8.297 13.971C8.026 13.211 7.583 12.509 6.969 11.863C6.354 11.218 5.672 10.737 4.922 10.423L7.032 18.723H9.766L13.844 8.291H11.094L11.093 8.292ZM13.265 18.741H15.858L17.483 8.291H14.89L13.265 18.741ZM25.265 8.552C24.5252 8.2548 23.7343 8.10532 22.937 8.112C21.655 8.112 20.608 8.432 19.796 9.072C18.983 9.713 18.572 10.543 18.561 11.563C18.551 12.67 19.306 13.613 20.827 14.395C21.327 14.645 21.677 14.867 21.874 15.063C22.072 15.258 22.171 15.469 22.171 15.697C22.171 16.023 22.015 16.272 21.702 16.446C21.39 16.62 21.03 16.706 20.624 16.706C19.728 16.706 18.916 16.527 18.186 16.169L17.843 15.99L17.483 18.334C18.254 18.703 19.218 18.887 20.374 18.887C21.728 18.898 22.814 18.578 23.632 17.927C24.45 17.276 24.869 16.408 24.89 15.323C24.89 14.173 24.16 13.229 22.702 12.491C22.192 12.22 21.822 11.991 21.592 11.807C21.364 11.623 21.249 11.417 21.249 11.189C21.249 10.95 21.377 10.741 21.632 10.562C21.887 10.383 22.254 10.294 22.733 10.294C23.463 10.283 24.108 10.413 24.671 10.684L24.905 10.814L25.265 8.552ZM31.905 8.292H29.905C29.228 8.292 28.775 8.585 28.545 9.171L24.702 18.741H27.421L27.968 17.178H31.28C31.332 17.418 31.437 17.938 31.593 18.741H34L31.906 8.29L31.905 8.292ZM36 3.083V23.917C36 24.481 35.802 24.969 35.406 25.381C35.01 25.794 34.542 26 34 26H2C1.458 26 0.989999 25.794 0.593999 25.381C0.402922 25.1887 0.252003 24.9603 0.150025 24.7092C0.0480476 24.458 -0.00295069 24.1891 -1.05501e-06 23.918V3.083C-1.05501e-06 2.52 0.197999 2.031 0.593999 1.618C0.989999 1.206 1.458 1 2 1H34C34.542 1 35.01 1.206 35.406 1.618C35.802 2.031 36 2.519 36 3.083Z" fill="black"/>
</g>
<g clip-path="url(#clip1_0_27)">
<path d="M104.89 11.5632C104.89 12.1162 104.703 12.5732 104.328 12.9302C104.026 13.2132 103.562 13.3542 102.938 13.3542H102.672V9.77316H102.937C103.573 9.77316 104.037 9.91917 104.328 10.2132C104.703 10.5492 104.891 10.9992 104.891 11.5632H104.89ZM132.64 10.5052C132.64 11.0692 132.307 11.3522 131.64 11.3522H131.344V9.70817H131.656C132.313 9.70817 132.641 9.97416 132.641 10.5052H132.64ZM105.938 11.5632C105.938 10.7602 105.678 10.1062 105.158 9.60217C104.636 9.09717 103.965 8.84516 103.142 8.84516H101.656V14.2652H103.141C103.911 14.2652 104.531 14.0592 105 13.6462C105.301 13.3902 105.541 13.0705 105.703 12.7102C105.866 12.35 105.946 11.9582 105.938 11.5632ZM106.408 14.2652H107.423V8.84516H106.406V14.2652H106.408ZM111.408 12.6212C111.408 12.1872 111.301 11.8512 111.087 11.6122C110.873 11.3732 110.48 11.1452 109.907 10.9282C109.605 10.8202 109.399 10.7172 109.29 10.6192C109.237 10.5727 109.195 10.5151 109.166 10.4505C109.138 10.3858 109.124 10.3157 109.126 10.2452C109.126 10.0712 109.196 9.92717 109.336 9.81316C109.491 9.69565 109.682 9.63556 109.876 9.64316C110.178 9.64316 110.454 9.78916 110.704 10.0822L111.235 9.36617C110.824 8.97147 110.274 8.75507 109.705 8.76416C109.245 8.76416 108.86 8.91317 108.548 9.21117C108.397 9.35091 108.277 9.52108 108.196 9.71049C108.115 9.8999 108.075 10.1043 108.079 10.3102C108.079 10.6902 108.173 10.9902 108.36 11.2132C108.548 11.4362 108.881 11.6332 109.36 11.8072C109.746 11.9482 109.98 12.0512 110.064 12.1172C110.261 12.2472 110.36 12.4312 110.36 12.6702C110.363 12.7711 110.345 12.8714 110.307 12.9651C110.27 13.0588 110.213 13.1439 110.142 13.2152C110.068 13.2884 109.98 13.3457 109.883 13.3835C109.786 13.4214 109.683 13.439 109.579 13.4352C109.079 13.4352 108.709 13.1962 108.469 12.7192L107.814 13.3692C108.272 14.0642 108.871 14.4122 109.61 14.4122C110.142 14.4122 110.574 14.2462 110.907 13.9152C111.241 13.5852 111.407 13.1532 111.407 12.6212H111.408ZM115.751 14.0862V12.8332C115.366 13.2342 114.959 13.4352 114.532 13.4352C114.022 13.4352 113.602 13.2592 113.274 12.9052C112.946 12.5532 112.782 12.1052 112.782 11.5632C112.782 11.0432 112.946 10.6002 113.274 10.2372C113.424 10.0631 113.61 9.92393 113.819 9.82959C114.028 9.73524 114.255 9.68799 114.485 9.69116C114.933 9.69116 115.355 9.89817 115.751 10.3102V9.05717C115.367 8.84839 114.938 8.73648 114.501 8.73116C114.135 8.72488 113.772 8.79471 113.435 8.93621C113.097 9.07772 112.793 9.28781 112.541 9.55317C112.004 10.1012 111.735 10.7712 111.735 11.5632C111.735 12.3552 112.001 13.0252 112.532 13.5732C112.782 13.8389 113.085 14.0493 113.422 14.1908C113.758 14.3324 114.12 14.402 114.485 14.3952C114.923 14.3952 115.345 14.2922 115.751 14.0852V14.0862ZM135 23.9162V15.3402C134.323 15.7742 133.57 16.2302 132.742 16.7072C131.914 17.1852 130.677 17.8202 129.032 18.6122C127.344 19.4225 125.626 20.169 123.882 20.8502C122.096 21.5502 119.922 22.2802 117.359 23.0392C114.797 23.7992 112.172 24.4392 109.484 24.9592H134C134.27 24.9592 134.505 24.8562 134.703 24.6502C134.799 24.554 134.874 24.4398 134.925 24.3141C134.976 24.1884 135.002 24.0538 135 23.9182V23.9162ZM121.703 11.5962C121.703 10.7822 121.427 10.0872 120.875 9.51217C120.323 8.93717 119.656 8.65016 118.875 8.65016C118.094 8.65016 117.427 8.93717 116.875 9.51217C116.323 10.0872 116.047 10.7822 116.047 11.5962C116.047 12.4092 116.323 13.1042 116.875 13.6792C117.427 14.2542 118.094 14.5422 118.875 14.5422C119.656 14.5422 120.323 14.2542 120.875 13.6792C121.427 13.1042 121.703 12.4092 121.703 11.5962ZM124.078 14.4122L126.328 8.84516H125.218L123.813 12.4912L122.422 8.84516H121.312L123.532 14.4122H124.078ZM126.781 14.2652H129.656V13.3532H127.796V11.8902H129.594V10.9782H127.797V9.77316H129.657V8.84516H126.78V14.2652H126.781ZM132.891 14.2652H134.141L132.5 11.9862C133.292 11.8132 133.688 11.3032 133.688 10.4562C133.688 9.94617 133.526 9.55016 133.203 9.26816C132.88 8.98616 132.427 8.84516 131.843 8.84516H130.328V14.2652H131.344V12.1002H131.484L132.891 14.2652ZM136 3.18116V23.8192C136 24.4272 135.8 24.9422 135.398 25.3652C135.213 25.5684 134.988 25.73 134.736 25.8395C134.485 25.949 134.212 26.0037 133.938 26.0002H102.061C101.489 26.0002 101.001 25.7882 100.601 25.3652C100.2 24.9422 100 24.4272 100 23.8202V3.18116C100 2.57316 100.2 2.05816 100.602 1.63516C100.787 1.43197 101.012 1.27029 101.264 1.16082C101.515 1.05134 101.788 0.996587 102.062 1.00016H133.937C134.51 1.00016 134.997 1.21216 135.398 1.63516C135.799 2.05816 136 2.57316 136 3.18116Z" fill="black"/>
</g>
<g clip-path="url(#clip2_0_27)">
<path d="M67.484 4.467C66.151 3.544 64.687 3.083 63.094 3.083C62.0301 3.08103 60.978 3.30604 60.008 3.743C59.0545 4.16037 58.1917 4.75992 57.468 5.508C56.7424 6.27276 56.1674 7.16736 55.773 8.145C55.352 9.1616 55.1372 10.2517 55.141 11.352C55.141 12.48 55.351 13.554 55.773 14.574C56.1677 15.5517 56.743 16.4463 57.469 17.211C58.1903 17.958 59.0499 18.5578 60 18.977C60.98 19.417 62.01 19.637 63.094 19.637C64.688 19.637 66.151 19.175 67.484 18.253C66.142 17.1262 65.1728 15.6194 64.704 13.931C64.2141 12.2486 64.2166 10.4611 64.711 8.78C65.1849 7.09811 66.1505 5.5962 67.484 4.467ZM68 4.857C66.707 5.90143 65.7682 7.31974 65.312 8.918C64.8331 10.5128 64.8307 12.2128 65.305 13.809C65.7595 15.4076 66.7016 16.8245 68 17.862C69.2984 16.8245 70.2405 15.4076 70.695 13.809C71.1688 12.213 71.166 10.5134 70.687 8.919C70.2314 7.32014 69.2929 5.9011 68 4.856V4.857ZM68.516 4.467C69.8509 5.59829 70.8166 7.10319 71.289 8.788C71.784 10.508 71.786 12.228 71.297 13.948C70.8301 15.6328 69.8598 17.1348 68.516 18.253C69.849 19.175 71.313 19.636 72.906 19.636C73.99 19.636 75.021 19.416 76 18.976C76.95 18.5571 77.8096 17.9577 78.531 17.211C79.257 16.4464 79.8323 15.5517 80.227 14.574C80.6488 13.5524 80.8636 12.4572 80.859 11.352C80.8627 10.2517 80.6479 9.16161 80.227 8.145C79.8323 7.16728 79.2569 6.27268 78.531 5.508C77.8076 4.76001 76.9452 4.16046 75.992 3.743C75.0219 3.3063 73.9699 3.08131 72.906 3.083C71.313 3.083 69.849 3.544 68.516 4.467ZM80.094 16.218H80.204V16.169H79.937V16.219H80.047V16.495H80.094V16.218ZM80.547 16.495H80.609V16.169H80.531L80.438 16.381L80.344 16.169H80.266V16.495H80.313V16.251L80.406 16.462H80.469L80.547 16.251V16.495ZM80.422 23.656V23.689H80.344V23.64H80.422V23.656ZM80.422 23.803H80.469L80.406 23.721H80.438L80.453 23.705C80.463 23.695 80.469 23.678 80.469 23.656C80.4699 23.6383 80.4642 23.6208 80.453 23.607L80.438 23.591H80.297V23.803H80.344V23.721H80.359L80.422 23.803ZM60.703 22.696C60.703 22.49 60.76 22.322 60.875 22.191C60.9338 22.1257 61.0064 22.0744 61.0875 22.0406C61.1686 22.0069 61.2563 21.9917 61.344 21.996C61.531 21.996 61.682 22.064 61.797 22.2C61.9127 22.3389 61.9738 22.5153 61.969 22.696C61.9768 22.8799 61.9155 23.0601 61.797 23.201C61.7407 23.2651 61.6709 23.3159 61.5925 23.3496C61.5141 23.3834 61.4293 23.3992 61.344 23.396C61.2563 23.4003 61.1686 23.3851 61.0875 23.3514C61.0064 23.3176 60.9338 23.2663 60.875 23.201C60.7565 23.0601 60.6952 22.8799 60.703 22.696ZM68.093 21.98C68.406 21.98 68.588 22.153 68.641 22.5H67.547C67.599 22.153 67.781 21.98 68.094 21.98H68.093ZM73.656 22.696C73.656 22.49 73.714 22.322 73.828 22.191C73.8843 22.1269 73.9541 22.0761 74.0325 22.0424C74.1108 22.0086 74.1957 21.9928 74.281 21.996C74.469 21.996 74.622 22.064 74.742 22.2C74.862 22.335 74.922 22.5 74.922 22.696C74.9298 22.8799 74.8685 23.0601 74.75 23.201C74.6912 23.2663 74.6186 23.3176 74.5375 23.3514C74.4564 23.3851 74.3687 23.4003 74.281 23.396C74.1957 23.3992 74.1108 23.3834 74.0325 23.3496C73.9541 23.3159 73.8843 23.2651 73.828 23.201C73.7095 23.0601 73.6482 22.8799 73.656 22.696ZM77.906 22.696C77.906 22.501 77.966 22.336 78.086 22.199C78.1429 22.1332 78.2136 22.0809 78.2932 22.0458C78.3727 22.0106 78.4591 21.9937 78.546 21.996C78.734 21.996 78.888 22.064 79.008 22.2C79.128 22.335 79.188 22.5 79.188 22.696C79.188 22.902 79.128 23.07 79.008 23.201C78.9498 23.2649 78.8785 23.3154 78.7989 23.3491C78.7193 23.3827 78.6334 23.3987 78.547 23.396C78.4598 23.3984 78.3732 23.3813 78.2935 23.346C78.2137 23.3107 78.1429 23.2581 78.086 23.192C77.9657 23.0552 77.9014 22.8781 77.906 22.696ZM80.375 23.868C80.353 23.8679 80.3314 23.8624 80.312 23.852C80.302 23.852 80.286 23.841 80.266 23.819C80.245 23.797 80.234 23.781 80.234 23.77C80.2242 23.7497 80.2191 23.7275 80.219 23.705C80.219 23.673 80.224 23.651 80.234 23.64C80.234 23.618 80.244 23.597 80.266 23.575L80.281 23.559C80.302 23.559 80.313 23.553 80.313 23.542C80.3321 23.5318 80.3533 23.5263 80.375 23.526C80.406 23.526 80.427 23.532 80.438 23.542L80.5 23.575L80.531 23.64V23.656C80.541 23.678 80.547 23.694 80.547 23.706L80.531 23.721V23.771L80.516 23.786L80.5 23.819C80.48 23.841 80.458 23.852 80.437 23.852C80.427 23.862 80.407 23.868 80.375 23.868ZM59.359 23.803H59.829V22.419C59.829 22.159 59.753 21.95 59.602 21.793C59.451 21.635 59.245 21.551 58.984 21.54C58.651 21.54 58.406 21.67 58.25 21.931C58.104 21.671 57.87 21.541 57.547 21.541C57.4262 21.5397 57.307 21.5687 57.2005 21.6255C57.0939 21.6823 57.0033 21.765 56.937 21.866V21.606H56.47V23.803H56.938V22.582C56.938 22.192 57.11 21.996 57.454 21.996C57.767 21.996 57.923 22.191 57.923 22.582V23.802H58.376V22.582C58.376 22.192 58.548 21.996 58.892 21.996C59.204 21.996 59.36 22.191 59.36 22.582V23.802L59.359 23.803ZM61.953 23.803H62.406V21.605H61.953V21.865C61.8741 21.7621 61.7723 21.6791 61.6556 21.6227C61.5389 21.5663 61.4106 21.5379 61.281 21.54C61.1398 21.5366 60.9996 21.564 60.87 21.6203C60.7405 21.6766 60.6248 21.7604 60.531 21.866C60.333 22.083 60.234 22.36 60.234 22.696C60.234 23.032 60.334 23.309 60.531 23.526C60.6248 23.6316 60.7405 23.7155 60.87 23.7718C60.9995 23.8281 61.1398 23.8555 61.281 23.852C61.573 23.852 61.797 23.743 61.953 23.526V23.803ZM64.734 23.135C64.734 22.766 64.49 22.549 64 22.485L63.781 22.452C63.541 22.408 63.421 22.332 63.421 22.224C63.421 22.061 63.552 21.98 63.813 21.98C64.053 21.98 64.276 22.04 64.484 22.159L64.672 21.769C64.442 21.616 64.156 21.54 63.812 21.54C63.542 21.54 63.328 21.606 63.172 21.736C63.0954 21.7987 63.0344 21.8783 62.9937 21.9685C62.9529 22.0587 62.9335 22.1571 62.937 22.256C62.937 22.615 63.182 22.826 63.672 22.891L63.875 22.924C64.125 22.967 64.25 23.044 64.25 23.152C64.25 23.336 64.088 23.428 63.766 23.428C63.506 23.428 63.271 23.352 63.062 23.201L62.859 23.575C63.119 23.759 63.422 23.852 63.766 23.852C64.068 23.852 64.305 23.786 64.476 23.656C64.5582 23.597 64.6246 23.5187 64.6696 23.4281C64.7146 23.3374 64.7367 23.2371 64.734 23.136V23.135ZM66.766 23.689L66.641 23.282C66.5176 23.3548 66.3773 23.3941 66.234 23.396C66.036 23.396 65.937 23.276 65.937 23.038V22.045H66.687V21.605H65.937V20.938H65.469V21.606H65.031V22.045H65.469V23.038C65.469 23.58 65.714 23.852 66.203 23.852C66.4031 23.8576 66.5999 23.8006 66.766 23.689ZM68.109 21.54C67.9678 21.5365 67.8275 21.5639 67.698 21.6202C67.5685 21.6765 67.4528 21.7604 67.359 21.866C67.161 22.083 67.062 22.36 67.062 22.696C67.062 23.043 67.164 23.323 67.367 23.534C67.57 23.746 67.828 23.852 68.141 23.852C68.484 23.852 68.771 23.748 69 23.542L68.781 23.184C68.615 23.3383 68.3976 23.4253 68.171 23.428C67.818 23.428 67.604 23.249 67.531 22.891H69.109V22.696C69.109 22.349 69.016 22.069 68.829 21.858C68.7401 21.7549 68.6293 21.6729 68.5048 21.6179C68.3803 21.5629 68.2451 21.5363 68.109 21.54ZM70.594 21.54C70.4813 21.5372 70.3702 21.5663 70.2734 21.624C70.1766 21.6817 70.0981 21.7656 70.047 21.866V21.606H69.578V23.803H70.047V22.566C70.047 22.186 70.197 21.996 70.5 21.996C70.5976 21.9945 70.694 22.0168 70.781 22.061L70.921 21.605C70.818 21.5598 70.7064 21.5377 70.594 21.54ZM71.062 22.696C71.062 23.032 71.164 23.309 71.367 23.526C71.57 23.743 71.844 23.852 72.187 23.852C72.49 23.852 72.74 23.765 72.937 23.592L72.719 23.201C72.531 23.341 72.349 23.407 72.172 23.396C72.0856 23.3987 71.9997 23.3827 71.9201 23.3491C71.8405 23.3154 71.7692 23.2649 71.711 23.201C71.5879 23.0623 71.5233 22.8813 71.531 22.696C71.531 22.49 71.591 22.322 71.711 22.191C71.7691 22.1273 71.8403 22.0768 71.9197 22.0432C71.9991 22.0095 72.0848 21.9934 72.171 21.996C72.3706 21.9962 72.5641 22.0651 72.719 22.191L72.937 21.801C72.7265 21.6267 72.4602 21.5344 72.187 21.541C71.844 21.541 71.57 21.649 71.367 21.866C71.164 22.083 71.062 22.36 71.062 22.696ZM74.891 23.803H75.359V21.605H74.891V21.865C74.8176 21.76 74.719 21.6751 74.6041 21.6183C74.4893 21.5615 74.362 21.5346 74.234 21.54C74.0919 21.5372 73.9508 21.5648 73.8202 21.621C73.6896 21.6773 73.5726 21.7608 73.477 21.866C73.273 22.083 73.172 22.36 73.172 22.696C73.172 23.032 73.273 23.309 73.477 23.526C73.5726 23.6313 73.6896 23.7148 73.8202 23.7711C73.9507 23.8273 74.0919 23.8549 74.234 23.852C74.526 23.852 74.744 23.743 74.891 23.526V23.803ZM76.969 21.54C76.8563 21.5372 76.7452 21.5663 76.6484 21.624C76.5516 21.6817 76.4731 21.7656 76.422 21.866V21.606H75.969V23.803H76.422V22.566C76.422 22.186 76.572 21.996 76.875 21.996C76.9726 21.9945 77.069 22.0168 77.156 22.061L77.296 21.605C77.1937 21.5577 77.0816 21.5354 76.969 21.54ZM79.156 23.803H79.609V20.71H79.156V21.866C79 21.649 78.776 21.54 78.484 21.54C78.3435 21.5385 78.2043 21.5676 78.0762 21.6252C77.9481 21.6829 77.834 21.7678 77.742 21.874C77.538 22.0983 77.4287 22.3929 77.437 22.696C77.437 23.021 77.539 23.296 77.742 23.518C77.945 23.74 78.192 23.852 78.484 23.852C78.786 23.852 79.01 23.743 79.156 23.526V23.803ZM80.375 23.477L80.344 23.494H80.297C80.2735 23.5064 80.2522 23.5227 80.234 23.542C80.204 23.553 80.187 23.575 80.187 23.607C80.1751 23.6382 80.17 23.6716 80.172 23.705C80.172 23.738 80.177 23.765 80.187 23.787C80.187 23.808 80.203 23.83 80.234 23.852C80.2522 23.8714 80.2735 23.8876 80.297 23.9C80.317 23.911 80.344 23.917 80.375 23.917C80.4072 23.9186 80.4394 23.9128 80.469 23.9C80.469 23.89 80.479 23.879 80.5 23.868L80.531 23.852C80.5485 23.8314 80.5642 23.8093 80.578 23.786C80.5891 23.7608 80.5946 23.7335 80.594 23.706C80.5958 23.6722 80.5904 23.6385 80.578 23.607C80.5606 23.5867 80.5448 23.5649 80.531 23.542C80.531 23.532 80.521 23.521 80.5 23.51L80.469 23.493C80.4531 23.4922 80.4373 23.4895 80.422 23.485C80.4067 23.4805 80.3909 23.4778 80.375 23.477ZM86 3.083V23.917C86 24.481 85.802 24.969 85.406 25.381C85.01 25.794 84.542 26 84 26H52C51.458 26 50.99 25.794 50.594 25.381C50.4029 25.1887 50.252 24.9603 50.15 24.7092C50.048 24.458 49.997 24.1891 50 23.918V3.083C50 2.52 50.198 2.031 50.594 1.618C50.99 1.206 51.458 1 52 1H84C84.542 1 85.01 1.206 85.406 1.618C85.802 2.031 86 2.519 86 3.083Z" fill="black"/>
</g>
<g clip-path="url(#clip3_0_27)">
<path d="M161.64 13.663C161.64 14.064 161.508 14.398 161.242 14.663C161.115 14.7928 160.963 14.8953 160.795 14.9641C160.628 15.0329 160.447 15.0666 160.266 15.063C159.964 15.063 159.721 14.976 159.539 14.803C159.357 14.628 159.266 14.39 159.266 14.086C159.266 13.684 159.396 13.346 159.656 13.069C159.916 12.792 160.24 12.654 160.625 12.654C160.917 12.654 161.159 12.744 161.352 12.922C161.544 13.102 161.641 13.348 161.641 13.662L161.64 13.663ZM173.906 11.238C173.906 11.693 173.792 12.003 173.563 12.165C173.333 12.328 172.99 12.41 172.531 12.41L172.031 12.426L172.297 10.684C172.317 10.564 172.385 10.505 172.5 10.505H172.781C173.011 10.505 173.193 10.516 173.328 10.538C173.475 10.5658 173.611 10.6364 173.718 10.741C173.844 10.855 173.906 11.021 173.906 11.238ZM179.391 13.663C179.391 14.053 179.258 14.384 178.992 14.656C178.869 14.7864 178.72 14.8899 178.555 14.9598C178.389 15.0297 178.211 15.0645 178.032 15.062C177.729 15.062 177.484 14.976 177.297 14.802C177.109 14.629 177.016 14.39 177.016 14.086C177.016 13.684 177.146 13.346 177.406 13.069C177.666 12.792 177.99 12.654 178.375 12.654C178.667 12.654 178.909 12.744 179.102 12.922C179.294 13.102 179.391 13.348 179.391 13.662V13.663ZM158.016 10.88C158.016 10.24 157.816 9.775 157.414 9.488C157.013 9.2 156.49 9.057 155.844 9.057H153.344C153.146 9.057 153.036 9.16 153.016 9.366L152 16.006C151.995 16.0376 151.996 16.07 152.004 16.1011C152.012 16.1321 152.027 16.1611 152.047 16.186C152.065 16.2109 152.088 16.2311 152.115 16.2451C152.142 16.259 152.172 16.2662 152.203 16.266H153.391C153.599 16.266 153.714 16.164 153.734 15.958L154.016 14.168C154.024 14.0859 154.063 14.01 154.125 13.956C154.192 13.8998 154.273 13.8631 154.359 13.85C154.453 13.834 154.542 13.826 154.625 13.826C154.708 13.826 154.807 13.831 154.922 13.842C155.036 13.852 155.109 13.858 155.141 13.858C156.036 13.858 156.74 13.595 157.25 13.068C157.76 12.542 158.016 11.813 158.016 10.88ZM162.844 15.958L163.484 11.71C163.49 11.6785 163.488 11.6461 163.48 11.615C163.473 11.584 163.458 11.555 163.438 11.53C163.42 11.505 163.397 11.4846 163.369 11.4707C163.342 11.4568 163.312 11.4497 163.281 11.45H162.094C161.948 11.45 161.859 11.628 161.828 11.986C161.547 11.552 161.052 11.336 160.344 11.336C159.594 11.336 158.956 11.628 158.43 12.214C157.912 12.7768 157.63 13.5164 157.64 14.281C157.64 14.921 157.82 15.431 158.18 15.811C158.54 16.191 159.02 16.381 159.625 16.381C159.917 16.381 160.219 16.316 160.531 16.185C160.818 16.0728 161.075 15.8947 161.281 15.665C161.24 15.795 161.219 15.909 161.219 16.007C161.219 16.18 161.287 16.267 161.422 16.267H162.5C162.698 16.267 162.813 16.164 162.844 15.957V15.958ZM169.828 11.678C169.827 11.6205 169.805 11.5653 169.766 11.523C169.724 11.473 169.677 11.449 169.625 11.449H168.422C168.307 11.449 168.213 11.504 168.141 11.612L166.484 14.151L165.797 11.71C165.745 11.536 165.63 11.45 165.453 11.45H164.281C164.229 11.45 164.182 11.474 164.141 11.523C164.102 11.5649 164.08 11.6197 164.078 11.677C164.078 11.699 164.18 12.019 164.383 12.637L165.039 14.639C165.273 15.355 165.396 15.735 165.406 15.779C164.552 16.994 164.125 17.645 164.125 17.732C164.125 17.872 164.193 17.943 164.328 17.943H165.531C165.646 17.943 165.74 17.889 165.812 17.781L169.797 11.791C169.817 11.769 169.828 11.731 169.828 11.677V11.678ZM175.766 10.88C175.766 10.24 175.566 9.775 175.164 9.488C174.763 9.2 174.24 9.057 173.594 9.057H171.109C170.901 9.057 170.786 9.16 170.766 9.366L169.75 16.006C169.745 16.0376 169.746 16.07 169.754 16.1011C169.762 16.1321 169.777 16.1611 169.797 16.186C169.815 16.2109 169.838 16.2311 169.865 16.2451C169.892 16.259 169.922 16.2662 169.953 16.266H171.234C171.359 16.266 171.443 16.196 171.484 16.056L171.766 14.167C171.774 14.0853 171.813 14.0097 171.875 13.956C171.942 13.8998 172.023 13.8631 172.109 13.85C172.203 13.834 172.292 13.826 172.375 13.826C172.458 13.826 172.557 13.831 172.672 13.842C172.786 13.852 172.859 13.858 172.891 13.858C173.787 13.858 174.49 13.595 175 13.068C175.51 12.542 175.766 11.813 175.766 10.88ZM180.594 15.958L181.234 11.71C181.239 11.6784 181.238 11.646 181.23 11.6149C181.222 11.5839 181.207 11.5549 181.187 11.53C181.169 11.5051 181.146 11.4849 181.119 11.4709C181.092 11.457 181.062 11.4498 181.031 11.45H179.844C179.698 11.45 179.609 11.628 179.578 11.986C179.308 11.552 178.813 11.336 178.094 11.336C177.344 11.336 176.706 11.628 176.18 12.214C175.662 12.7768 175.38 13.5164 175.39 14.281C175.39 14.921 175.57 15.431 175.93 15.811C176.29 16.191 176.77 16.381 177.375 16.381C177.677 16.381 177.985 16.316 178.297 16.185C178.609 16.055 178.854 15.882 179.031 15.665C179.031 15.675 179.021 15.725 179 15.811C178.983 15.875 178.972 15.9407 178.969 16.007C178.969 16.18 179.036 16.267 179.172 16.267H180.25C180.448 16.267 180.563 16.164 180.594 15.957V15.958ZM184 9.3V9.283C184 9.132 183.932 9.056 183.797 9.056H182.64C182.525 9.056 182.457 9.116 182.437 9.235L181.421 16.005L181.405 16.038C181.405 16.092 181.426 16.144 181.468 16.193C181.487 16.2162 181.511 16.2348 181.538 16.2475C181.565 16.2601 181.594 16.2664 181.624 16.266H182.655C182.853 16.266 182.963 16.163 182.983 15.956L184 9.302V9.3ZM156.125 11.48C156.073 11.86 155.937 12.11 155.719 12.23C155.5 12.349 155.187 12.408 154.781 12.408L154.266 12.425L154.531 10.683C154.552 10.563 154.62 10.504 154.734 10.504H155.031C155.448 10.504 155.75 10.567 155.938 10.691C156.125 10.816 156.188 11.079 156.125 11.481V11.48ZM186 3.084V23.918C186 24.482 185.802 24.97 185.406 25.382C185.01 25.795 184.542 26.001 184 26.001H152C151.458 26.001 150.99 25.795 150.594 25.382C150.403 25.1896 150.252 24.9611 150.15 24.7097C150.048 24.4584 149.997 24.1892 150 23.918V3.083C150 2.52 150.198 2.031 150.594 1.618C150.99 1.206 151.458 1 152 1H184C184.542 1 185.01 1.206 185.406 1.618C185.802 2.031 186 2.519 186 3.083V3.084Z" fill="black"/>
</g>
<defs>
<clipPath id="clip0_0_27">
<rect width="36" height="25" fill="white" transform="translate(0 1)"/>
</clipPath>
<clipPath id="clip1_0_27">
<rect width="36" height="25" fill="white" transform="translate(100 1)"/>
</clipPath>
<clipPath id="clip2_0_27">
<rect width="36" height="25" fill="white" transform="translate(50 1)"/>
</clipPath>
<clipPath id="clip3_0_27">
<rect width="36" height="25" fill="white" transform="translate(150 1)"/>
</clipPath>
</defs>
</svg>
